<?xml version="1.0" standalone="no"?>
<!DOCTYPE svg PUBLIC "-//W3C//DTD SVG 1.1//EN" "http://www.w3.org/Graphics/SVG/1.1/DTD/svg11.dtd" >
<svg>
<metadata>
Created by FontForge 20090622 at Tue Apr 24 10:55:34 2018
 By deploy user
Copyright (c) 2008 by Process Type Foundry. All rights reserved.
</metadata>
<defs>
<font id="BryantPro-Regular" horiz-adv-x="650" >
  <font-face 
    font-family="Bryant Pro Regular"
    font-weight="400"
    font-stretch="normal"
    units-per-em="1000"
    panose-1="2 11 5 3 4 0 0 2 0 3"
    ascent="750"
    descent="-250"
    x-height="434"
    cap-height="674"
    bbox="-45 -281 1186 926"
    underline-thickness="20"
    underline-position="-113"
    unicode-range="U+0020-U+FB02"
  />
<missing-glyph horiz-adv-x="686" 
d="M110 0v666h466v-666h-466zM527 616h-340l340 -527v527zM159 576v-527h339z" />
    <glyph glyph-name="fi" unicode="fi" horiz-adv-x="538" 
d="M459 22q0 -13 -8.5 -21.5t-21.5 -8.5t-21.5 8.5t-8.5 21.5v390q0 13 8.5 21.5t21.5 8.5t21.5 -8.5t8.5 -21.5v-390zM392 558q0 15 11 26t26 11t26 -11t11 -26t-11 -26t-26 -11t-26 11t-11 26zM167 434h114q10 0 17.5 -7.5t7.5 -17.5t-7.5 -17.5t-17.5 -7.5h-114v-362
q0 -13 -8.5 -21.5t-21.5 -8.5t-21.5 8.5t-8.5 21.5v362h-70q-11 0 -18 7t-7 18t7 18t18 7h70v62q0 170 160 170h21q10 0 17.5 -7t7.5 -18t-7.5 -18t-17.5 -7h-18q-53 0 -78 -27t-25 -92v-63z" />
    <glyph glyph-name="fl" unicode="fl" horiz-adv-x="541" 
d="M461 22q0 -13 -8.5 -21.5t-21.5 -8.5t-21.5 8.5t-8.5 21.5v622q0 13 8.5 21.5t21.5 8.5t21.5 -8.5t8.5 -21.5v-622zM167 434h114q10 0 17.5 -7.5t7.5 -17.5t-7.5 -17.5t-17.5 -7.5h-114v-362q0 -13 -8.5 -21.5t-21.5 -8.5t-21.5 8.5t-8.5 21.5v362h-70q-11 0 -18 7t-7 18
t7 18t18 7h70v62q0 170 160 170h21q10 0 17.5 -7t7.5 -18t-7.5 -18t-17.5 -7h-18q-53 0 -78 -27t-25 -92v-63z" />
    <glyph glyph-name=".notdef" horiz-adv-x="686" 
d="M110 0v666h466v-666h-466zM527 616h-340l340 -527v527zM159 576v-527h339z" />
    <glyph glyph-name=".null" horiz-adv-x="0" 
 />
    <glyph glyph-name="nonmarkingreturn" horiz-adv-x="333" 
 />
    <glyph glyph-name="space" unicode=" " horiz-adv-x="300" 
 />
    <glyph glyph-name="exclam" unicode="!" horiz-adv-x="280" 
d="M170 369l-14 -195q-2 -18 -16 -18t-16 18l-14 195v275q0 12 8.5 21t21.5 9t21.5 -9t8.5 -21v-275zM98 36q0 17 12.5 29.5t29.5 12.5t29.5 -12.5t12.5 -29.5t-12.5 -29.5t-29.5 -12.5t-29.5 12.5t-12.5 29.5z" />
    <glyph glyph-name="quotedbl" unicode="&#x22;" horiz-adv-x="382" 
d="M129 458q0 -11 -7.5 -19t-19.5 -8t-19.5 8t-7.5 19v189q0 11 7.5 19t19.5 8t19.5 -8t7.5 -19v-189zM307 458q0 -11 -7.5 -19t-19.5 -8t-19.5 8t-7.5 19v189q0 11 7.5 19t19.5 8t19.5 -8t7.5 -19v-189z" />
    <glyph glyph-name="numbersign" unicode="#" horiz-adv-x="716" 
d="M664 459q0 -10 -7 -17.5t-18 -7.5h-97l-21 -193h95q22 0 22 -22q0 -10 -7 -17.5t-18 -7.5h-97l-20 -176q-3 -26 -27 -26q-27 0 -23 30l19 172h-239l-21 -177q-4 -25 -27 -25q-12 0 -18 7.5t-5 18.5l20 176h-92q-10 0 -16.5 6.5t-6.5 15.5q0 25 25 25h96l21 193h-95
q-9 0 -15.5 6.5t-6.5 15.5q0 25 27 25h95l19 168q3 25 27 25q26 0 23 -29l-19 -164h239l19 168q3 25 28 25q26 0 23 -27l-19 -166h94q9 0 16 -6t7 -16zM492 434h-239l-22 -193h239z" />
    <glyph glyph-name="dollar" unicode="$" horiz-adv-x="611" 
d="M541 175q0 -69 -53.5 -114t-148.5 -53v-90q0 -10 -7.5 -18t-20.5 -8t-20.5 8t-7.5 18v91q-113 9 -194 74q-14 12 -14 24q0 10 7 17t18 7t24 -9q44 -31 86 -47t105 -16q76 0 121.5 31t45.5 85q0 21 -10.5 39.5t-24.5 31t-41.5 26.5t-47.5 21.5l-57 20.5q-119 42 -168 84
t-49 102q0 71 55 112t151 45v91q0 10 7.5 18t20.5 8t20.5 -8t7.5 -18v-92q88 -8 161 -55q14 -9 14 -21q0 -10 -7 -18t-20 -8q-8 0 -16 5q-86 48 -166 48q-169 0 -169 -106q0 -46 35 -71.5t128 -60.5q134 -50 184.5 -87t50.5 -107z" />
    <glyph glyph-name="percent" unicode="%" horiz-adv-x="847" 
d="M785 147q0 -67 -46 -113t-114 -46t-114 46t-46 113q0 66 46 112.5t114 46.5t114 -46.5t46 -112.5zM643 651q0 -8 -5 -16l-389 -634q-7 -13 -21 -13q-11 0 -17.5 7t-6.5 17q0 7 9 22l384 628q7 13 22 13q10 0 17 -6.5t7 -17.5zM734 147q0 48 -30 81t-79 33t-79 -33
t-30 -81t30 -81t79 -33t79 33t30 81zM380 519q0 -67 -46 -113t-114 -46t-114 46t-46 113q0 66 46 112.5t114 46.5t114 -46.5t46 -112.5zM329 519q0 48 -30 81t-79 33t-79 -33t-30 -81t30 -81t79 -33t79 33t30 81z" />
    <glyph glyph-name="ampersand" unicode="&#x26;" horiz-adv-x="716" 
d="M696 34q0 -9 -7 -16q-29 -30 -86 -30q-47 0 -72.5 17.5t-58.5 61.5q-36 -36 -89.5 -57.5t-110.5 -21.5q-97 0 -149.5 49t-52.5 122q0 78 48.5 129.5t138.5 95.5q-74 95 -74 166q0 56 38 92t105 36q62 0 99.5 -36.5t37.5 -92.5q0 -52 -36.5 -98.5t-97.5 -81.5l150 -223
q28 37 68 128q7 15 22 15q12 0 19.5 -7t7.5 -18q0 -3 -2 -9q-35 -85 -85 -151q20 -28 29 -38.5t26.5 -21.5t38.5 -11q29 0 62 19q5 3 11 3q9 0 14.5 -6t5.5 -15zM409 546q0 38 -22 62t-63 24q-39 0 -62 -20.5t-23 -62.5q0 -59 65 -142q44 22 74.5 61t30.5 78zM443 108
l-161 236q-53 -30 -81 -50t-50.5 -55t-22.5 -78q0 -57 38 -91.5t109 -34.5q97 0 168 73z" />
    <glyph glyph-name="quotesingle" unicode="'" horiz-adv-x="204" 
d="M129 458q0 -11 -7.5 -19t-19.5 -8t-19.5 8t-7.5 19v189q0 11 7.5 19t19.5 8t19.5 -8t7.5 -19v-189z" />
    <glyph glyph-name="parenleft" unicode="(" horiz-adv-x="315" 
d="M220 698q9 12 22 12q12 0 20 -8t8 -18q0 -8 -5 -16q-60 -104 -87.5 -197t-27.5 -201t27.5 -201t87.5 -197q5 -8 5 -16q0 -10 -8 -18t-20 -8q-13 0 -22 12q-130 211 -130 428t130 428z" />
    <glyph glyph-name="parenright" unicode=")" horiz-adv-x="315" 
d="M95 698q130 -211 130 -428t-130 -428q-9 -12 -22 -12q-12 0 -20 8t-8 18q0 8 5 16q60 104 87.5 197t27.5 201t-27.5 201t-87.5 197q-5 8 -5 16q0 10 8 18t20 8q13 0 22 -12z" />
    <glyph glyph-name="asterisk" unicode="*" horiz-adv-x="410" 
d="M205 566l58 100q5 8 15 8q18 0 18 -16q0 -5 -3 -11l-58 -96h113q17 0 17 -17t-17 -17h-113l58 -95q4 -7 4 -12q0 -16 -19 -16q-10 0 -16 11l-57 98l-57 -98q-6 -11 -16 -11q-19 0 -19 16q0 5 4 12l58 95h-113q-17 0 -17 17t17 17h113l-58 96q-3 6 -3 11q0 16 18 16
q10 0 15 -8z" />
    <glyph glyph-name="plus" unicode="+" horiz-adv-x="560" 
d="M84 350h167v169q0 12 8.5 20.5t20.5 8.5t20.5 -8.5t8.5 -20.5v-169h167q12 0 20.5 -7.5t8.5 -19.5t-8.5 -19.5t-20.5 -7.5h-167v-169q0 -12 -8.5 -20.5t-20.5 -8.5t-20.5 8.5t-8.5 20.5v169h-167q-12 0 -20.5 7.5t-8.5 19.5t8.5 19.5t20.5 7.5z" />
    <glyph glyph-name="comma" unicode="," horiz-adv-x="206" 
d="M131 25q0 -87 -27 -160q-10 -27 -31 -27q-26 0 -26 24q0 5 5 20q25 74 25 143v43q0 12 7.5 20t19.5 8t19.5 -8t7.5 -20v-43z" />
    <glyph glyph-name="hyphen" unicode="-" horiz-adv-x="438" 
d="M96 223q-11 0 -18.5 6.5t-7.5 18.5t7.5 18.5t18.5 6.5h246q11 0 18.5 -6.5t7.5 -18.5t-7.5 -18.5t-18.5 -6.5h-246z" />
    <glyph glyph-name="period" unicode="." horiz-adv-x="234" 
d="M75 36q0 17 12.5 29.5t29.5 12.5t29.5 -12.5t12.5 -29.5t-12.5 -29.5t-29.5 -12.5t-29.5 12.5t-12.5 29.5z" />
    <glyph glyph-name="slash" unicode="/" horiz-adv-x="450" 
d="M385 699q0 -6 -2 -12l-265 -774q-8 -20 -27 -20q-26 0 -26 24q0 4 2 12l266 777q6 19 27 19q10 0 17.5 -7t7.5 -19z" />
    <glyph glyph-name="zero" unicode="0" horiz-adv-x="684" 
d="M624 333q0 -145 -78 -245t-204 -100t-204 100t-78 245t78 245t204 100t204 -100t78 -245zM564 333q0 124 -60 207.5t-162 83.5t-162 -83.5t-60 -207.5t60 -207.5t162 -83.5t162 83.5t60 207.5z" />
    <glyph glyph-name="one" unicode="1" horiz-adv-x="364" 
d="M264 22q0 -12 -8.5 -21t-21.5 -9t-21.5 9t-8.5 21v586l-137 -42q-8 -2 -11 -2q-11 0 -19.5 7.5t-8.5 19.5q0 21 23 28l164 51q14 4 20 4q29 0 29 -31v-621z" />
    <glyph glyph-name="two" unicode="2" horiz-adv-x="627" 
d="M562 26q0 -10 -8 -18t-18 -8h-442q-11 0 -19 8t-8 19q0 51 10.5 91t26.5 68t46 53t59 42t75 39q125 60 168.5 96.5t43.5 92.5q0 57 -45.5 86.5t-128.5 29.5q-115 0 -199 -64q-8 -6 -16 -6q-11 0 -18.5 7t-7.5 18q0 19 37 42q87 56 208 56q106 0 168 -45t62 -125
q0 -65 -47.5 -114t-171.5 -107q-116 -54 -162 -102.5t-46 -132.5h407q11 0 18.5 -7.5t7.5 -18.5z" />
    <glyph glyph-name="three" unicode="3" horiz-adv-x="627" 
d="M562 187q0 -89 -72 -144t-182 -55q-141 0 -241 84q-12 10 -12 23q0 12 8.5 18.5t19.5 6.5q10 0 18 -7q92 -75 207 -75q85 0 139.5 40.5t54.5 110.5q0 65 -50.5 105.5t-144.5 40.5h-72q-11 0 -18.5 8t-7.5 18q0 11 7.5 18.5t18.5 7.5h65q73 0 115.5 34.5t42.5 88.5
q0 58 -39 87.5t-110 29.5q-67 0 -135 -34q-16 -9 -27 -9t-18 7t-7 16q0 19 26 32q72 39 165 39t149 -44.5t56 -119.5q0 -99 -114 -148q69 -12 113.5 -59t44.5 -120z" />
    <glyph glyph-name="four" unicode="4" horiz-adv-x="637" 
d="M614 213q0 -11 -7.5 -18t-18.5 -7h-110v-166q0 -13 -8 -21.5t-21 -8.5t-21 8.5t-8 21.5v166h-364q-26 0 -26 25q0 10 9 19l385 429q12 13 27 13q27 0 27 -32v-404h110q11 0 18.5 -7t7.5 -18zM420 238v343l-308 -343h308z" />
    <glyph glyph-name="five" unicode="5" horiz-adv-x="634" 
d="M572 206q0 -94 -69 -156.5t-185 -62.5q-150 0 -242 86q-11 11 -11 21q0 12 8 19t20 7q9 0 18 -7q87 -74 207 -74q90 0 142 46.5t52 118.5q0 76 -50 119t-131 43q-103 0 -181 -66q-10 -8 -23 -8q-15 0 -22 9t-5 21l51 319q5 25 30 25h309q11 0 19 -7.5t8 -18.5t-7.5 -18.5
t-19.5 -7.5h-287l-41 -250q62 53 171 53q107 0 173 -56.5t66 -154.5z" />
    <glyph glyph-name="six" unicode="6" horiz-adv-x="629" 
d="M576 204q0 -92 -66.5 -154t-183.5 -62q-124 0 -190 62.5t-66 171.5q0 143 79.5 261.5t212.5 176.5q43 18 62 18q25 0 25 -20q0 -10 -6.5 -15.5t-23.5 -12.5q-127 -51 -194.5 -133.5t-102.5 -205.5q31 58 88.5 88.5t131.5 30.5q105 0 169.5 -58.5t64.5 -147.5zM518 203
q0 72 -48 115t-135 43q-82 0 -142.5 -46t-60.5 -115q0 -75 48.5 -119t147.5 -44q84 0 137 46.5t53 119.5z" />
    <glyph glyph-name="seven" unicode="7" horiz-adv-x="555" 
d="M525 641q0 -9 -7 -18q-118 -151 -174.5 -287.5t-56.5 -313.5q0 -13 -8 -21.5t-22 -8.5t-22 8.5t-8 21.5q0 176 57 317.5t163 274.5h-385q-11 0 -19 7.5t-8 18.5t8 18.5t19 7.5h432q31 0 31 -25z" />
    <glyph glyph-name="eight" unicode="8" horiz-adv-x="652" 
d="M113 513q0 75 60 120t153 45t153 -45t60 -120q0 -95 -113 -146q72 -19 116 -65.5t44 -116.5q0 -87 -70 -142t-190 -55t-190 55t-70 142q0 70 44 116.5t116 65.5q-113 51 -113 146zM326 338q-85 0 -143 -40.5t-58 -111.5q0 -69 54 -109t147 -40t147 40t54 109
q0 71 -58 111.5t-143 40.5zM326 386q67 0 111.5 35.5t44.5 88.5q0 56 -42.5 88t-113.5 32t-113.5 -32t-42.5 -88q0 -53 44.5 -88.5t111.5 -35.5z" />
    <glyph glyph-name="nine" unicode="9" horiz-adv-x="628" 
d="M57 462q0 92 67 154t183 62q124 0 190 -62.5t66 -171.5q0 -143 -79.5 -261.5t-212.5 -176.5q-43 -18 -62 -18q-25 0 -25 20q0 10 6.5 15.5t23.5 12.5q127 51 194.5 133.5t102.5 205.5q-31 -58 -88.5 -88.5t-131.5 -30.5q-109 0 -171.5 58t-62.5 148zM115 463
q0 -72 48 -115t135 -43q82 0 142.5 46t60.5 115q0 75 -48.5 119t-147.5 44q-84 0 -137 -46.5t-53 -119.5z" />
    <glyph glyph-name="colon" unicode=":" horiz-adv-x="234" 
d="M75 36q0 17 12.5 29.5t29.5 12.5t29.5 -12.5t12.5 -29.5t-12.5 -29.5t-29.5 -12.5t-29.5 12.5t-12.5 29.5zM75 332q0 17 12.5 29.5t29.5 12.5t29.5 -12.5t12.5 -29.5t-12.5 -29.5t-29.5 -12.5t-29.5 12.5t-12.5 29.5z" />
    <glyph glyph-name="semicolon" unicode=";" horiz-adv-x="229" 
d="M140 25q0 -84 -28 -160q-10 -27 -31 -27q-26 0 -26 24q0 8 5 20q24 61 24 143v42q0 12 8 20.5t20 8.5t20 -8.5t8 -20.5v-42zM70 332q0 17 12.5 29.5t29.5 12.5t29.5 -12.5t12.5 -29.5t-12.5 -29.5t-29.5 -12.5t-29.5 12.5t-12.5 29.5z" />
    <glyph glyph-name="less" unicode="&#x3c;" horiz-adv-x="540" 
d="M470 527q0 -16 -16 -24l-332 -180l332 -180q16 -8 16 -24q0 -10 -7 -17.5t-19 -7.5q-9 0 -16 4l-362 202q-16 10 -16 23t16 23l362 202q7 4 16 4q12 0 19 -7.5t7 -17.5z" />
    <glyph glyph-name="equal" unicode="=" horiz-adv-x="550" 
d="M437 433q11 0 19.5 -7.5t8.5 -18.5t-8.5 -18.5t-19.5 -7.5h-324q-11 0 -19.5 7.5t-8.5 18.5t8.5 18.5t19.5 7.5h324zM437 259q11 0 19.5 -7t8.5 -19q0 -11 -8.5 -18.5t-19.5 -7.5h-324q-11 0 -19.5 7.5t-8.5 18.5q0 12 8.5 19t19.5 7h324z" />
    <glyph glyph-name="greater" unicode="&#x3e;" horiz-adv-x="540" 
d="M70 527q0 10 7 17.5t19 7.5q9 0 16 -4l362 -202q16 -10 16 -23t-16 -23l-362 -202q-7 -4 -16 -4q-12 0 -19 7.5t-7 17.5q0 16 16 24l332 180l-332 180q-16 8 -16 24z" />
    <glyph glyph-name="question" unicode="?" horiz-adv-x="492" 
d="M447 529q0 -78 -100 -160q-62 -50 -77 -74.5t-15 -80.5v-41q0 -12 -9 -20t-22 -8q-12 0 -20.5 8.5t-8.5 19.5v40q0 38 4.5 62.5t20 46t28 33.5t45.5 39q53 44 73.5 73t20.5 62q0 95 -137 95q-80 0 -155 -45q-10 -6 -18 -6q-11 0 -19 7.5t-8 18.5q0 14 22 28q79 51 182 51
q86 0 139.5 -39.5t53.5 -109.5zM183 36q0 17 12.5 29.5t29.5 12.5t29.5 -12.5t12.5 -29.5t-12.5 -29.5t-29.5 -12.5t-29.5 12.5t-12.5 29.5z" />
    <glyph glyph-name="at" unicode="@" horiz-adv-x="756" 
d="M716 66q0 -14 -14 -20q-113 -58 -255 -58q-182 0 -285.5 100t-103.5 252q0 148 88.5 243t238.5 95q110 0 167 -55.5t57 -156.5v-264q0 -25 -25 -25t-25 25v38q-42 -67 -126 -67q-72 0 -119.5 49t-47.5 122t47.5 122t119.5 49q84 0 126 -67v28q0 158 -175 158
q-128 0 -202 -83t-74 -211q0 -133 89 -220.5t250 -87.5q114 0 239 51q4 2 11 2q9 0 14 -6t5 -13zM435 217q54 0 88.5 35t34.5 92t-34.5 92t-88.5 35q-53 0 -85.5 -36t-32.5 -91t32.5 -91t85.5 -36z" />
    <glyph glyph-name="A" unicode="A" horiz-adv-x="716" 
d="M386 654l278 -621q4 -8 4 -14q0 -12 -8 -19.5t-21 -7.5q-19 0 -27 19l-82 183h-344l-82 -183q-8 -19 -27 -19q-13 0 -21 7.5t-8 19.5q0 6 4 14l278 621q9 20 28 20t28 -20zM209 247h298l-149 343z" />
    <glyph glyph-name="B" unicode="B" horiz-adv-x="647" 
d="M602 183q0 -76 -59.5 -129.5t-166.5 -53.5h-251q-13 0 -21.5 9t-8.5 21v606q0 13 8 21.5t22 8.5h227q87 0 142 -44.5t55 -119.5q0 -52 -24.5 -87t-78.5 -57q68 -11 112 -56t44 -119zM489 496q0 57 -36.5 87.5t-99.5 30.5h-198v-237h203q61 0 96 34.5t35 84.5zM377 325
h-222v-273h225q78 0 120 38.5t42 98.5q0 64 -44 100t-121 36z" />
    <glyph glyph-name="C" unicode="C" horiz-adv-x="705" 
d="M391 678q160 0 256 -126q8 -12 8 -20q0 -12 -8 -19.5t-20 -7.5q-13 0 -21 11q-41 52 -91 79.5t-124 27.5q-125 0 -199 -85t-74 -205t74 -205t199 -85q74 0 124 27.5t91 79.5q8 11 21 11q12 0 20 -7.5t8 -19.5q0 -8 -8 -20q-96 -126 -256 -126q-148 0 -240.5 99.5
t-92.5 245.5t92.5 245.5t240.5 99.5z" />
    <glyph glyph-name="D" unicode="D" horiz-adv-x="692" 
d="M647 333q0 -142 -91.5 -237.5t-240.5 -95.5h-190q-13 0 -21.5 9t-8.5 21v606q0 13 8.5 21.5t21.5 8.5h190q149 0 240.5 -95.5t91.5 -237.5zM587 333q0 121 -74.5 200t-201.5 79h-156v-558h156q127 0 201.5 79t74.5 200z" />
    <glyph glyph-name="E" unicode="E" horiz-adv-x="583" 
d="M155 317v-263h356q11 0 19 -8t8 -19t-8 -19t-19 -8h-386q-13 0 -21.5 8.5t-8.5 21.5v606q0 13 8.5 21.5t21.5 8.5h385q11 0 19 -8t8 -19t-8 -19t-19 -8h-355v-241h206q11 0 19 -8t8 -19t-8 -19t-19 -8h-206z" />
    <glyph glyph-name="F" unicode="F" horiz-adv-x="557" 
d="M155 22q0 -13 -8.5 -21.5t-21.5 -8.5t-21.5 8.5t-8.5 21.5v614q0 13 8.5 21.5t21.5 8.5h385q11 0 19 -8t8 -19t-8 -19t-19 -8h-355v-241h206q11 0 19 -8t8 -19t-8 -19t-19 -8h-206v-295z" />
    <glyph glyph-name="G" unicode="G" horiz-adv-x="731" 
d="M669 123q0 -13 -8 -23q-44 -49 -114.5 -80.5t-155.5 -31.5q-81 0 -146 29.5t-105 79t-61 110t-21 126.5q0 147 94 246t239 99q142 0 230 -93q8 -10 8 -21t-7.5 -18.5t-19.5 -7.5q-13 0 -21 8q-80 77 -190 77q-121 0 -197 -84.5t-76 -205.5q0 -124 72.5 -209t202.5 -85
q133 0 218 85v148h-191q-11 0 -18.5 7.5t-7.5 18.5t7.5 18.5t18.5 7.5h220q12 0 20.5 -8t8.5 -20v-173z" />
    <glyph glyph-name="H" unicode="H" horiz-adv-x="715" 
d="M95 22v622q0 13 8.5 21.5t21.5 8.5t21.5 -8.5t8.5 -21.5v-277h405v277q0 13 8.5 21.5t21.5 8.5t21.5 -8.5t8.5 -21.5v-622q0 -13 -8.5 -21.5t-21.5 -8.5t-21.5 8.5t-8.5 21.5v290h-405v-290q0 -13 -8.5 -21.5t-21.5 -8.5t-21.5 8.5t-8.5 21.5z" />
    <glyph glyph-name="I" unicode="I" horiz-adv-x="260" 
d="M160 22q0 -13 -8.5 -21.5t-21.5 -8.5t-21.5 8.5t-8.5 21.5v622q0 13 8.5 21.5t21.5 8.5t21.5 -8.5t8.5 -21.5v-622z" />
    <glyph glyph-name="J" unicode="J" horiz-adv-x="591" 
d="M263 41q88 0 133 54.5t45 152.5v396q0 13 8.5 21.5t21.5 8.5t21.5 -8.5t8.5 -21.5v-394q0 -118 -60 -190t-177 -72q-92 0 -149.5 48.5t-77.5 132.5q-2 8 -2 14q0 29 29 29q22 0 27 -24q34 -147 172 -147z" />
    <glyph glyph-name="K" unicode="K" horiz-adv-x="661" 
d="M155 285l387 381q8 8 20 8q13 0 21 -8t8 -18q0 -13 -9 -22l-220 -216l238 -373q6 -10 6 -18q0 -11 -8 -19t-21 -8q-16 0 -25 14l-232 364l-165 -162v-186q0 -13 -8.5 -21.5t-21.5 -8.5t-21.5 8.5t-8.5 21.5v622q0 13 8.5 21.5t21.5 8.5t21.5 -8.5t8.5 -21.5v-359z" />
    <glyph glyph-name="L" unicode="L" horiz-adv-x="575" 
d="M155 54h358q11 0 19 -8t8 -19t-8 -19t-19 -8h-388q-13 0 -21.5 8.5t-8.5 21.5v614q0 13 8.5 21.5t21.5 8.5t21.5 -8.5t8.5 -21.5v-590z" />
    <glyph glyph-name="M" unicode="M" horiz-adv-x="846" 
d="M423 76l271 579q10 19 28 19q13 0 21 -8t8 -21v-624q0 -12 -8 -20.5t-21 -8.5q-12 0 -20 8.5t-8 20.5v510l-243 -521q-8 -18 -28 -18t-28 18l-243 521v-510q0 -12 -8 -20.5t-20 -8.5q-13 0 -21 8.5t-8 20.5v624q0 13 8 21t21 8q18 0 28 -19z" />
    <glyph glyph-name="N" unicode="N" horiz-adv-x="723" 
d="M628 20q0 -12 -7.5 -20t-21.5 -8q-13 0 -23 13l-424 559v-544q0 -11 -8 -19.5t-20 -8.5t-20.5 8t-8.5 20v625q0 13 8.5 21t21.5 8q14 0 23 -13l423 -560v544q0 13 8 21t21 8q12 0 20 -8.5t8 -20.5v-625z" />
    <glyph glyph-name="O" unicode="O" horiz-adv-x="774" 
d="M722 333q0 -143 -93.5 -244t-240.5 -101t-241.5 101t-94.5 244t94.5 244t241.5 101t240.5 -101t93.5 -244zM662 333q0 120 -75 206t-199 86t-200 -86t-76 -206t76 -206t200 -86t199 86t75 206z" />
    <glyph glyph-name="P" unicode="P" horiz-adv-x="627" 
d="M597 479q0 -82 -54.5 -134.5t-150.5 -52.5h-237v-270q0 -13 -8.5 -21.5t-21.5 -8.5t-21.5 8.5t-8.5 21.5v614q0 13 9 21.5t21 8.5h267q96 0 150.5 -52.5t54.5 -134.5zM537 479q0 58 -36 95.5t-97 37.5h-249v-266h249q61 0 97 37.5t36 95.5z" />
    <glyph glyph-name="Q" unicode="Q" horiz-adv-x="774" 
d="M655 -74q4 -8 4 -13q0 -11 -8 -18t-19 -7q-14 0 -23 14l-71 120q-68 -34 -150 -34q-147 0 -241.5 101t-94.5 244t94.5 244t241.5 101t240.5 -101t93.5 -244q0 -87 -37 -162t-102 -122zM662 333q0 120 -75 206t-199 86t-200 -86t-76 -206t76 -206t200 -86q66 0 123 27
l-56 96q-6 12 -6 17q0 11 8 18t19 7q15 0 22 -13l57 -97q51 41 79 103.5t28 133.5z" />
    <glyph glyph-name="R" unicode="R" horiz-adv-x="685" 
d="M617 481q0 -70 -39.5 -118.5t-111.5 -61.5l130 -266q4 -8 4 -14q0 -12 -8.5 -20.5t-20.5 -8.5q-19 0 -28 17l-141 287h-247v-274q0 -13 -8.5 -21.5t-21.5 -8.5t-21.5 8.5t-8.5 21.5v614q0 13 9 21.5t21 8.5h287q96 0 150.5 -51.5t54.5 -133.5zM557 481q0 58 -36 94.5
t-97 36.5h-269v-262h269q61 0 97 36.5t36 94.5z" />
    <glyph glyph-name="S" unicode="S" horiz-adv-x="634" 
d="M579 165q0 -81 -66.5 -129t-181.5 -48q-145 0 -252 83q-14 12 -14 25q0 10 7 17t18 7t24 -9q101 -71 216 -71q89 0 139 33.5t50 89.5q0 53 -46.5 84t-145.5 61q-141 43 -194.5 90t-53.5 110q0 83 70.5 126.5t177.5 43.5q121 0 215 -64q14 -9 14 -21q0 -10 -7 -18t-20 -8
q-8 0 -16 5q-88 54 -187 54q-83 0 -135 -29.5t-52 -88.5q0 -49 42 -80.5t147 -65.5q48 -16 74 -25.5t60 -24t51.5 -27.5t34.5 -31t24 -40t7 -49z" />
    <glyph glyph-name="T" unicode="T" horiz-adv-x="582" 
d="M321 22q0 -13 -8.5 -21.5t-21.5 -8.5t-21.5 8.5t-8.5 21.5v590h-216q-11 0 -19 8t-8 19t8 19t19 8h492q11 0 19 -8t8 -19t-8 -19t-19 -8h-216v-590z" />
    <glyph glyph-name="U" unicode="U" horiz-adv-x="738" 
d="M369 -12q-130 0 -205.5 74t-75.5 200v382q0 13 8.5 21.5t21.5 8.5t21.5 -8.5t8.5 -21.5v-386q0 -102 54.5 -159.5t166.5 -57.5t166.5 57.5t54.5 159.5v386q0 13 8.5 21.5t21.5 8.5t21.5 -8.5t8.5 -21.5v-382q0 -126 -75.5 -200t-205.5 -74z" />
    <glyph glyph-name="V" unicode="V" horiz-adv-x="610" 
d="M305 -8q-18 0 -27 19l-265 623q-3 8 -3 14q0 11 8.5 18.5t19.5 7.5q18 0 25 -16l242 -570l242 570q7 16 25 16q11 0 19.5 -7.5t8.5 -18.5q0 -6 -3 -14l-265 -623q-9 -19 -27 -19z" />
    <glyph glyph-name="W" unicode="W" horiz-adv-x="944" 
d="M499 653l188 -552l183 552q6 21 26 21q12 0 20 -7.5t8 -19.5q0 -4 -2 -12l-208 -624q-7 -19 -27 -19q-21 0 -27 19l-188 554l-188 -554q-6 -19 -27 -19q-20 0 -27 19l-208 624q-2 8 -2 12q0 12 8 19.5t20 7.5q20 0 26 -21l183 -552l188 552q6 21 27 21t27 -21z" />
    <glyph glyph-name="X" unicode="X" horiz-adv-x="640" 
d="M540 3l-220 285l-220 -285q-9 -11 -25 -11q-25 0 -25 25q0 9 6 18l231 300l-228 296q-6 9 -6 17q0 11 8 18.5t19 7.5q14 0 23 -11l217 -281l217 281q9 11 23 11q11 0 19 -7.5t8 -18.5q0 -8 -6 -17l-228 -296l231 -300q6 -9 6 -18q0 -25 -25 -25q-16 0 -25 11z" />
    <glyph glyph-name="Y" unicode="Y" horiz-adv-x="552" 
d="M541 630l-235 -338v-270q0 -13 -8.5 -21.5t-21.5 -8.5t-21.5 8.5t-8.5 21.5v270l-235 338q-6 9 -6 17q0 12 7.5 19.5t19.5 7.5q16 0 26 -14l218 -312l218 312q10 14 26 14q12 0 19.5 -7.5t7.5 -19.5q0 -8 -6 -17z" />
    <glyph glyph-name="Z" unicode="Z" horiz-adv-x="637" 
d="M575 26q0 -11 -8 -18.5t-19 -7.5h-439q-12 0 -20.5 7t-8.5 19q0 8 7 19l401 569h-376q-11 0 -19 7.5t-8 18.5t8 18.5t19 7.5h427q28 0 28 -26q0 -10 -8 -20l-398 -568h387q11 0 19 -7.5t8 -18.5z" />
    <glyph glyph-name="bracketleft" unicode="[" horiz-adv-x="342" 
d="M287 -123q0 -11 -7.5 -18.5t-18.5 -7.5h-128q-13 0 -20.5 8.5t-7.5 20.5v776q0 14 8 22t20 8h128q11 0 18.5 -7.5t7.5 -18.5t-7.5 -18.5t-18.5 -7.5h-96v-731h96q11 0 18.5 -7.5t7.5 -18.5z" />
    <glyph glyph-name="backslash" unicode="\" horiz-adv-x="450" 
d="M65 699q0 12 8 19t18 7q20 0 27 -21l265 -775q2 -8 2 -12q0 -9 -7.5 -16.5t-18.5 -7.5q-19 0 -27 20l-265 774q-2 6 -2 12z" />
    <glyph glyph-name="bracketright" unicode="]" horiz-adv-x="342" 
d="M55 -123q0 11 7.5 18.5t18.5 7.5h96v731h-96q-11 0 -18.5 7.5t-7.5 18.5t7.5 18.5t18.5 7.5h128q12 0 20 -8t8 -22v-776q0 -12 -7.5 -20.5t-20.5 -8.5h-128q-11 0 -18.5 7.5t-7.5 18.5z" />
    <glyph glyph-name="asciicircum" unicode="^" horiz-adv-x="468" 
d="M257 659l152 -268q4 -8 4 -14q0 -24 -26 -24q-13 0 -22 14l-131 234l-131 -234q-9 -14 -22 -14q-26 0 -26 24q0 6 4 14l152 268q9 15 23 15t23 -15z" />
    <glyph glyph-name="underscore" unicode="_" horiz-adv-x="438" 
d="M439 -44h-440v31h440v-31z" />
    <glyph glyph-name="grave" unicode="`" horiz-adv-x="329" 
d="M224 536q0 -10 -7 -17t-17 -7q-14 0 -25 16l-69 97q-6 8 -6 17q0 10 7.5 16.5t17.5 6.5q14 0 21 -11l72 -102q6 -9 6 -16z" />
    <glyph glyph-name="a" unicode="a" horiz-adv-x="516" 
d="M441 22q0 -13 -8 -21.5t-22 -8.5t-22 8.5t-8 21.5v22q-50 -56 -149 -56q-79 0 -127 37t-48 94q0 60 50.5 96.5t133.5 36.5q46 0 83.5 -16t56.5 -38v59q0 71 -35.5 104.5t-109.5 33.5q-60 0 -123 -26q-9 -3 -14 -3q-26 0 -26 25q0 15 15 22q64 33 153 33q95 0 147.5 -49
t52.5 -139v-236zM381 119q0 39 -41 63.5t-95 24.5q-58 0 -93 -24t-35 -64t34 -63.5t90 -23.5q57 0 98.5 24.5t41.5 62.5z" />
    <glyph glyph-name="b" unicode="b" horiz-adv-x="590" 
d="M140 22q0 -13 -8.5 -21.5t-21.5 -8.5t-21.5 8.5t-8.5 21.5v622q0 13 8.5 21.5t21.5 8.5t21.5 -8.5t8.5 -21.5v-290q61 92 179 92q92 0 155.5 -65t63.5 -164t-63.5 -164t-155.5 -65q-118 0 -179 92v-58zM478 217q0 78 -46.5 128t-121.5 50t-122.5 -51.5t-47.5 -126.5
t47.5 -126.5t122.5 -51.5t121.5 50t46.5 128z" />
    <glyph glyph-name="c" unicode="c" horiz-adv-x="507" 
d="M282 446q58 0 105 -24t71 -60q6 -9 6 -18q0 -11 -8.5 -18t-20.5 -7q-11 0 -21 12q-53 63 -132 63q-73 0 -121 -51.5t-48 -125.5t48 -125.5t121 -51.5q79 0 132 63q10 12 21 12q12 0 20.5 -7t8.5 -18q0 -9 -6 -18q-24 -36 -71 -60t-105 -24q-98 0 -163.5 65.5t-65.5 163.5
t65.5 163.5t163.5 65.5z" />
    <glyph glyph-name="d" unicode="d" horiz-adv-x="590" 
d="M450 22v58q-61 -92 -179 -92q-92 0 -155.5 65t-63.5 164t63.5 164t155.5 65q118 0 179 -92v290q0 13 8.5 21.5t21.5 8.5t21.5 -8.5t8.5 -21.5v-622q0 -13 -8.5 -21.5t-21.5 -8.5t-21.5 8.5t-8.5 21.5zM112 217q0 -78 46.5 -128t121.5 -50t122.5 51.5t47.5 126.5
t-47.5 126.5t-122.5 51.5t-121.5 -50t-46.5 -128z" />
    <glyph glyph-name="e" unicode="e" horiz-adv-x="538" 
d="M275 446q92 0 151 -63.5t59 -160.5q0 -10 -7.5 -17.5t-17.5 -7.5h-347q2 -64 47.5 -111t120.5 -47q83 0 136 63q11 13 23 13q11 0 18 -7.5t7 -17.5q0 -9 -6 -18q-27 -37 -74 -60.5t-104 -23.5q-104 0 -166.5 67t-62.5 162q0 94 63 161.5t160 67.5zM430 247
q-6 64 -49 106.5t-106 42.5q-65 0 -109.5 -43t-50.5 -106h315z" />
    <glyph glyph-name="f" unicode="f" horiz-adv-x="321" 
d="M167 434h114q10 0 17.5 -7.5t7.5 -17.5t-7.5 -17.5t-17.5 -7.5h-114v-362q0 -13 -8.5 -21.5t-21.5 -8.5t-21.5 8.5t-8.5 21.5v362h-70q-11 0 -18 7t-7 18t7 18t18 7h70v62q0 170 160 170h21q10 0 17.5 -7t7.5 -18t-7.5 -18t-17.5 -7h-18q-53 0 -78 -27t-25 -92v-63z" />
    <glyph glyph-name="g" unicode="g" horiz-adv-x="590" 
d="M450 94q-26 -42 -74 -67t-102 -25q-94 0 -158 61.5t-64 160.5t64 160.5t158 61.5q61 0 107 -27.5t69 -64.5v58q0 13 8.5 21.5t21.5 8.5t21.5 -8.5t8.5 -21.5v-377q0 -106 -57 -168t-173 -62q-105 0 -178 45q-18 10 -18 26q0 22 23 22q10 0 26 -8q67 -36 147 -36
q88 0 129 47.5t41 129.5v63zM111 224q0 -78 47 -125.5t122 -47.5q71 0 120.5 51t49.5 122t-49.5 122t-120.5 51q-75 0 -122 -47.5t-47 -125.5z" />
    <glyph glyph-name="h" unicode="h" horiz-adv-x="565" 
d="M490 245v-223q0 -13 -8.5 -21.5t-21.5 -8.5t-21.5 8.5t-8.5 21.5v222q0 69 -36 108t-104 39q-65 0 -107.5 -44t-42.5 -116v-209q0 -13 -8.5 -21.5t-21.5 -8.5t-21.5 8.5t-8.5 21.5v622q0 13 8.5 21.5t21.5 8.5t21.5 -8.5t8.5 -21.5v-284q50 86 163 86q86 0 136.5 -56
t50.5 -145z" />
    <glyph glyph-name="i" unicode="i" horiz-adv-x="220" 
d="M140 22q0 -13 -8.5 -21.5t-21.5 -8.5t-21.5 8.5t-8.5 21.5v390q0 13 8.5 21.5t21.5 8.5t21.5 -8.5t8.5 -21.5v-390zM72 566q0 16 11 27t27 11t27 -11t11 -27t-11 -27t-27 -11t-27 11t-11 27z" />
    <glyph glyph-name="j" unicode="j" horiz-adv-x="220" 
d="M-6 -145q53 0 69.5 22.5t16.5 79.5v455q0 13 8.5 21.5t21.5 8.5t21.5 -8.5t8.5 -21.5v-459q0 -77 -31.5 -112.5t-109.5 -35.5h-17q-10 0 -17.5 7.5t-7.5 17.5t7.5 17.5t17.5 7.5h12zM72 566q0 16 11 27t27 11t27 -11t11 -27t-11 -27t-27 -11t-27 11t-11 27z" />
    <glyph glyph-name="k" unicode="k" horiz-adv-x="480" 
d="M140 172v-150q0 -13 -8.5 -21.5t-21.5 -8.5t-21.5 8.5t-8.5 21.5v622q0 13 8.5 21.5t21.5 8.5t21.5 -8.5t8.5 -21.5v-404l244 194q10 8 20 8q12 0 19.5 -8.5t7.5 -18.5q0 -12 -14 -23l-167 -132l182 -222q8 -11 8 -19q0 -11 -8.5 -19t-21.5 -8q-11 0 -21 12l-182 222z
" />
    <glyph glyph-name="l" unicode="l" horiz-adv-x="220" 
d="M140 22q0 -13 -8.5 -21.5t-21.5 -8.5t-21.5 8.5t-8.5 21.5v622q0 13 8.5 21.5t21.5 8.5t21.5 -8.5t8.5 -21.5v-622z" />
    <glyph glyph-name="m" unicode="m" horiz-adv-x="903" 
d="M828 245v-223q0 -13 -8.5 -21.5t-21.5 -8.5t-21.5 8.5t-8.5 21.5v222q0 69 -35 108t-103 39q-65 0 -105.5 -43.5t-40.5 -116.5v-209q0 -13 -8.5 -21.5t-21.5 -8.5t-21.5 8.5t-8.5 21.5v222q0 69 -35 108t-103 39q-65 0 -105.5 -43.5t-40.5 -116.5v-209q0 -13 -8.5 -21.5
t-21.5 -8.5t-21.5 8.5t-8.5 21.5v390q0 13 8.5 21.5t21.5 8.5t21.5 -8.5t8.5 -21.5v-52q50 86 159 86q58 0 101.5 -28t64.5 -73q58 101 178 101q85 0 135 -56t50 -145z" />
    <glyph glyph-name="n" unicode="n" horiz-adv-x="565" 
d="M490 245v-223q0 -13 -8.5 -21.5t-21.5 -8.5t-21.5 8.5t-8.5 21.5v222q0 69 -36 108t-104 39q-65 0 -107.5 -44t-42.5 -116v-209q0 -13 -8.5 -21.5t-21.5 -8.5t-21.5 8.5t-8.5 21.5v390q0 13 8.5 21.5t21.5 8.5t21.5 -8.5t8.5 -21.5v-52q50 86 163 86q86 0 136.5 -56
t50.5 -145z" />
    <glyph glyph-name="o" unicode="o" horiz-adv-x="560" 
d="M508 217q0 -97 -64.5 -163t-163.5 -66t-163.5 66t-64.5 163t64.5 163t163.5 66t163.5 -66t64.5 -163zM448 217q0 76 -48.5 126.5t-119.5 50.5t-119.5 -50.5t-48.5 -126.5t48.5 -126.5t119.5 -50.5t119.5 50.5t48.5 126.5z" />
    <glyph glyph-name="p" unicode="p" horiz-adv-x="590" 
d="M140 412v-58q61 92 179 92q92 0 155.5 -65t63.5 -164t-63.5 -164t-155.5 -65q-118 0 -179 92v-245q0 -13 -8.5 -21.5t-21.5 -8.5t-21.5 8.5t-8.5 21.5v577q0 13 8.5 21.5t21.5 8.5t21.5 -8.5t8.5 -21.5zM478 217q0 78 -46.5 128t-121.5 50t-122.5 -51.5t-47.5 -126.5
t47.5 -126.5t122.5 -51.5t121.5 50t46.5 128z" />
    <glyph glyph-name="q" unicode="q" horiz-adv-x="590" 
d="M450 412q0 13 8.5 21.5t21.5 8.5t21.5 -8.5t8.5 -21.5v-577q0 -13 -8.5 -21.5t-21.5 -8.5t-21.5 8.5t-8.5 21.5v245q-61 -92 -179 -92q-92 0 -155.5 65t-63.5 164t63.5 164t155.5 65q118 0 179 -92v58zM112 217q0 -78 46.5 -128t121.5 -50t122.5 51.5t47.5 126.5
t-47.5 126.5t-122.5 51.5t-121.5 -50t-46.5 -128z" />
    <glyph glyph-name="r" unicode="r" horiz-adv-x="329" 
d="M314 416q0 -27 -30 -27q-64 0 -104 -54.5t-40 -139.5v-173q0 -12 -8.5 -21t-21.5 -9q-12 0 -21 9t-9 21v390q0 13 8.5 21.5t21.5 8.5t21.5 -8.5t8.5 -21.5v-70q15 44 53.5 72t90.5 28q13 0 21.5 -7t8.5 -19z" />
    <glyph glyph-name="s" unicode="s" horiz-adv-x="468" 
d="M418 109q0 -54 -46 -87.5t-127 -33.5q-100 0 -168 57q-12 9 -12 23q0 10 6.5 16t16.5 6q12 0 23 -9q60 -47 137 -47q52 0 82 19.5t30 52.5q0 24 -17.5 40.5t-37 24t-60.5 18.5q-97 27 -136 59.5t-39 81.5q0 57 46 86.5t126 29.5q71 0 135 -35q27 -13 27 -30
q0 -23 -25 -23q-8 0 -24 9q-56 30 -114 30q-113 0 -113 -65q0 -31 26 -50t96 -39q88 -26 128 -53t40 -81z" />
    <glyph glyph-name="t" unicode="t" horiz-adv-x="323" 
d="M192 434h101q10 0 17.5 -7.5t7.5 -17.5t-7.5 -17.5t-17.5 -7.5h-101v-362q0 -13 -8.5 -21.5t-21.5 -8.5t-21.5 8.5t-8.5 21.5v362h-89q-11 0 -18 7t-7 18t7 18t18 7h89v140q0 13 8.5 21.5t21.5 8.5t21.5 -8.5t8.5 -21.5v-140z" />
    <glyph glyph-name="u" unicode="u" horiz-adv-x="565" 
d="M75 189v223q0 13 8.5 21.5t21.5 8.5t21.5 -8.5t8.5 -21.5v-222q0 -69 36 -108t104 -39q65 0 107.5 44t42.5 116v209q0 13 8.5 21.5t21.5 8.5t21.5 -8.5t8.5 -21.5v-390q0 -13 -8.5 -21.5t-21.5 -8.5t-21.5 8.5t-8.5 21.5v52q-50 -86 -163 -86q-86 0 -136.5 56t-50.5 145z
" />
    <glyph glyph-name="v" unicode="v" horiz-adv-x="438" 
d="M69 424l150 -339l150 339q7 18 26 18q13 0 20.5 -8t7.5 -19q0 -7 -4 -15l-175 -391q-8 -17 -25 -17t-25 17l-175 391q-4 8 -4 15q0 11 7.5 19t20.5 8q19 0 26 -18z" />
    <glyph glyph-name="w" unicode="w" horiz-adv-x="644" 
d="M347 423l117 -334l109 333q7 20 25 20q12 0 20 -7t8 -19q0 -4 -2 -12l-132 -394q-7 -18 -27 -18q-21 0 -27 19l-116 330l-116 -330q-6 -19 -27 -19q-20 0 -27 18l-132 394q-2 8 -2 12q0 12 8 19t20 7q18 0 25 -20l109 -333l117 334q7 19 25 19t25 -19z" />
    <glyph glyph-name="x" unicode="x" horiz-adv-x="468" 
d="M234 258l138 173q8 11 21 11t20.5 -7.5t7.5 -18.5q0 -8 -7 -18l-146 -180l149 -182q6 -9 6 -18q0 -11 -8 -18.5t-19 -7.5q-13 0 -21 10l-141 176l-141 -176q-8 -10 -21 -10q-11 0 -19 7.5t-8 18.5q0 9 6 18l149 182l-146 180q-7 10 -7 18q0 11 7.5 18.5t20.5 7.5t21 -11z
" />
    <glyph glyph-name="y" unicode="y" horiz-adv-x="433" 
d="M418 415q0 -5 -3 -13l-147 -356q-68 -163 -191 -236q-8 -5 -18 -5q-12 0 -19 7t-7 18q0 15 18 25q84 58 136 148l-170 397q-4 10 -4 15q0 11 7.5 19t20.5 8q18 0 26 -19l151 -356l148 358q7 17 25 17q12 0 19.5 -7.5t7.5 -19.5z" />
    <glyph glyph-name="z" unicode="z" horiz-adv-x="467" 
d="M422 24q0 -24 -25 -24h-312q-10 0 -17.5 7t-7.5 17q0 8 7 19l273 343h-254q-10 0 -17.5 7t-7.5 17q0 11 7.5 17.5t17.5 6.5h308q11 0 18 -6.5t7 -17.5q0 -9 -6 -18l-274 -344h258q11 0 18 -7t7 -17z" />
    <glyph glyph-name="braceleft" unicode="{" horiz-adv-x="347" 
d="M211 157v-222q0 -22 8.5 -30.5t28.5 -8.5h34q10 0 17.5 -7.5t7.5 -18.5t-7.5 -18.5t-17.5 -7.5h-43q-88 0 -88 92v232q0 37 -16.5 54t-54.5 17h-8q-11 0 -19 7.5t-8 18.5t8 18.5t19 7.5h8q38 0 54.5 17t16.5 54v232q0 92 88 92h43q10 0 17.5 -7.5t7.5 -18.5t-7.5 -18.5
t-17.5 -7.5h-34q-20 0 -28.5 -8.5t-8.5 -30.5v-222q0 -50 -19 -76.5t-66 -31.5q47 -5 66 -31.5t19 -76.5z" />
    <glyph glyph-name="bar" unicode="|" horiz-adv-x="278" 
d="M115 -174v885q0 10 6.5 17t17.5 7t17.5 -7t6.5 -17v-885q0 -10 -6.5 -17t-17.5 -7t-17.5 7t-6.5 17z" />
    <glyph glyph-name="braceright" unicode="}" horiz-adv-x="347" 
d="M136 -65v222q0 50 19 76.5t66 31.5q-47 5 -66 31.5t-19 76.5v222q0 22 -8.5 30.5t-28.5 8.5h-34q-10 0 -17.5 7.5t-7.5 18.5t7.5 18.5t17.5 7.5h43q88 0 88 -92v-232q0 -37 16.5 -54t54.5 -17h8q11 0 19 -7.5t8 -18.5t-8 -18.5t-19 -7.5h-8q-38 0 -54.5 -17t-16.5 -54
v-232q0 -92 -88 -92h-43q-10 0 -17.5 7.5t-7.5 18.5t7.5 18.5t17.5 7.5h34q20 0 28.5 8.5t8.5 30.5z" />
    <glyph glyph-name="asciitilde" unicode="~" horiz-adv-x="508" 
d="M60 229q0 7 4 14q45 75 112 75q36 0 91 -30q57 -31 77 -31q21 0 36 11t36 38q9 12 20 12q10 0 16 -6t6 -15t-4 -14q-50 -75 -113 -75q-7 0 -14.5 1.5t-13 2.5t-15 5l-14 6t-17 8.5l-18.5 9.5q-57 28 -74 28q-19 0 -34.5 -10t-38.5 -39q-9 -12 -20 -12q-10 0 -16 6t-6 15z
" />
    <glyph glyph-name="nbspace" unicode="&#xa0;" horiz-adv-x="300" 
 />
    <glyph glyph-name="exclamdown" unicode="&#xa1;" horiz-adv-x="280" 
d="M156 271l14 -195v-241q0 -12 -8.5 -21t-21.5 -9t-21.5 9t-8.5 21v241l14 195q2 18 16 18t16 -18zM98 404q0 17 12.5 29.5t29.5 12.5t29.5 -12.5t12.5 -29.5t-12.5 -29.5t-29.5 -12.5t-29.5 12.5t-12.5 29.5z" />
    <glyph glyph-name="cent" unicode="&#xa2;" horiz-adv-x="566" 
d="M80 333q0 90 56 153.5t143 73.5v92q0 10 7.5 18t20.5 8t20.5 -8t7.5 -18v-92q50 -5 89.5 -27.5t60.5 -54.5q6 -9 6 -18q0 -11 -8.5 -18t-20.5 -7q-11 0 -21 12q-53 63 -132 63q-73 0 -121 -51.5t-48 -125.5t48 -125.5t121 -51.5q79 0 132 63q10 12 21 12q12 0 20.5 -7
t8.5 -18q0 -9 -6 -18q-22 -32 -61.5 -55t-88.5 -28v-91q0 -10 -7.5 -18t-20.5 -8t-20.5 8t-7.5 18v91q-87 11 -143 74.5t-56 153.5z" />
    <glyph glyph-name="sterling" unicode="&#xa3;" horiz-adv-x="638" 
d="M578 632q0 -25 -25 -25q-7 0 -14 3q-41 14 -96 14q-76 0 -111 -39.5t-35 -119.5v-94h223q11 0 19.5 -7t8.5 -19t-8.5 -19t-19.5 -7h-223v-267h254q11 0 19 -7.5t8 -18.5q0 -12 -8 -19t-19 -7h-462q-12 0 -20.5 7t-8.5 19t8.5 19t20.5 7h148v267h-129q-12 0 -20.5 6.5
t-8.5 19.5t8.5 19.5t20.5 6.5h129v95q0 104 53.5 158t150.5 54q69 0 114 -19q23 -10 23 -27z" />
    <glyph glyph-name="currency" unicode="&#xa4;" horiz-adv-x="656" 
d="M581 98q0 -9 -7 -16t-17 -7q-9 0 -17 7l-75 76q-56 -47 -137 -47q-82 0 -138 47l-75 -76q-7 -7 -16 -7q-10 0 -17 7t-7 16q0 8 7 17l75 74q-51 59 -51 144q0 82 50 143l-74 74q-7 7 -7 16q0 10 7 17t17 7q8 0 16 -8l74 -74q60 47 139 47t138 -48l74 75q10 8 17 8
q10 0 17 -7t7 -17q0 -9 -7 -16l-75 -74q51 -62 51 -143t-52 -144l76 -74q7 -7 7 -17zM493 333q0 72 -47 122t-118 50t-118.5 -50t-47.5 -122t47.5 -122t118.5 -50t118 50t47 122z" />
    <glyph glyph-name="yen" unicode="&#xa5;" horiz-adv-x="582" 
d="M94 340q-11 0 -18.5 6.5t-7.5 16.5t7.5 16.5t18.5 6.5h110l-148 244q-6 9 -6 17q0 12 8 19.5t19 7.5q16 0 25 -15l189 -313l189 313q9 15 25 15q11 0 19 -7.5t8 -19.5q0 -8 -6 -17l-148 -244h110q11 0 18.5 -6.5t7.5 -16.5t-7.5 -16.5t-18.5 -6.5h-138l-29 -48v-66h167
q11 0 18.5 -6.5t7.5 -16.5t-7.5 -16.5t-18.5 -6.5h-167v-158q0 -13 -8.5 -21.5t-21.5 -8.5t-21.5 8.5t-8.5 21.5v158h-167q-11 0 -18.5 6.5t-7.5 16.5t7.5 16.5t18.5 6.5h167v66l-29 48h-138z" />
    <glyph glyph-name="brokenbar" unicode="&#xa6;" horiz-adv-x="278" 
d="M115 356v355q0 10 6.5 17t17.5 7t17.5 -7t6.5 -17v-355q0 -10 -6.5 -17t-17.5 -7t-17.5 7t-6.5 17zM115 -174v355q0 10 6.5 17t17.5 7t17.5 -7t6.5 -17v-355q0 -10 -6.5 -17t-17.5 -7t-17.5 7t-6.5 17z" />
    <glyph glyph-name="section" unicode="&#xa7;" horiz-adv-x="617" 
d="M537 256q0 -79 -81 -127q57 -41 57 -101q0 -59 -55.5 -98.5t-145.5 -39.5q-56 0 -115 19.5t-98 50.5q-14 11 -14 26q0 10 6.5 16t17.5 6q14 0 27 -10q74 -59 179 -59q61 0 99.5 24t38.5 64q0 15 -4 27t-17 23.5t-22.5 18.5t-35.5 18.5l-39 17t-50 19.5q-108 43 -152.5 78
t-44.5 91q0 80 92 125q-30 25 -42 47t-12 55q0 64 55 97.5t150 33.5q99 0 167 -40q18 -10 18 -25q0 -10 -7 -17.5t-18 -7.5q-8 0 -26 10q-59 31 -137 31q-142 0 -142 -81q0 -19 8.5 -35t19 -26.5t35.5 -23t41.5 -19l53.5 -20.5q108 -41 150.5 -75t42.5 -93zM479 250
q0 41 -34.5 66t-127.5 62q-87 36 -93 39q-78 -35 -78 -93q0 -40 35 -64t124 -60l107 -44q30 16 48.5 42t18.5 52z" />
    <glyph glyph-name="dieresis" unicode="&#xa8;" horiz-adv-x="366" 
d="M60 565q0 17 12 28.5t28 11.5t28 -11.5t12 -28.5t-12 -28.5t-28 -11.5t-28 11.5t-12 28.5zM226 565q0 17 12 28.5t28 11.5t28 -11.5t12 -28.5t-12 -28.5t-28 -11.5t-28 11.5t-12 28.5z" />
    <glyph glyph-name="copyright" unicode="&#xa9;" horiz-adv-x="806" 
d="M58 333q0 144 98.5 244.5t246.5 100.5t246.5 -100.5t98.5 -244.5t-98.5 -244.5t-246.5 -100.5t-246.5 100.5t-98.5 244.5zM106 333q0 -126 83 -214t214 -88t214 88t83 214t-83 214t-214 88t-214 -88t-83 -214zM417 503q81 0 130 -63q6 -8 6 -17q0 -11 -7 -17t-17 -6
q-13 0 -22 11q-36 45 -90 45t-85.5 -35t-31.5 -88t31.5 -88t85.5 -35t90 45q9 11 22 11q10 0 17 -6t7 -17q0 -9 -6 -17q-49 -63 -130 -63q-77 0 -123 48.5t-46 121.5t46 121.5t123 48.5z" />
    <glyph glyph-name="ordfeminine" unicode="&#xaa;" horiz-adv-x="415" 
d="M340 399q0 -24 -23 -24q-22 0 -22 24v9q-33 -36 -99 -36q-54 0 -87.5 22.5t-33.5 63.5q0 40 34 63t88 23q62 0 97 -32v41q0 84 -92 84q-45 0 -84 -18q-4 -2 -9 -2q-20 0 -20 19q0 14 24 25q37 17 92 17q65 0 100 -33t35 -94v-152zM294 458q0 24 -27 38t-62 14t-59.5 -13
t-24.5 -39q0 -25 22 -38.5t57 -13.5q38 0 66 14.5t28 37.5z" />
    <glyph glyph-name="guillemotleft" unicode="&#xab;" horiz-adv-x="569" 
d="M272 367q0 -11 -10 -21l-141 -133l141 -133q10 -10 10 -21q0 -10 -8 -17t-19 -7q-9 0 -19 8l-158 152q-8 8 -8 18t8 18l158 152q10 8 19 8q11 0 19 -7t8 -17zM499 367q0 -11 -10 -21l-141 -133l141 -133q10 -10 10 -21q0 -10 -8 -17t-19 -7q-9 0 -19 8l-158 152
q-8 8 -8 18t8 18l158 152q10 8 19 8q11 0 19 -7t8 -17z" />
    <glyph glyph-name="logicalnot" unicode="&#xac;" horiz-adv-x="625" 
d="M104 328h392q12 0 20.5 -7.5t8.5 -19.5v-196q0 -12 -8.5 -20.5t-20.5 -8.5t-20.5 8.5t-8.5 20.5v169h-363q-12 0 -20.5 7.5t-8.5 19.5t8.5 19.5t20.5 7.5z" />
    <glyph glyph-name="registered" unicode="&#xae;" horiz-adv-x="416" 
d="M376 512q0 -70 -47.5 -118t-120.5 -48t-120.5 48t-47.5 118t47.5 118t120.5 48t120.5 -48t47.5 -118zM346 512q0 58 -37.5 98t-100.5 40t-100.5 -40t-37.5 -98t37.5 -98t100.5 -40t100.5 40t37.5 98zM276 549q0 -37 -31 -50l32 -51q2 -4 2 -8q0 -5 -4.5 -9t-10.5 -4
q-9 0 -14 9l-34 58h-31v-55q0 -5 -4 -9t-10 -4t-10.5 4t-4.5 9v149q0 6 4.5 10.5t10.5 4.5h43q29 0 45.5 -14.5t16.5 -39.5zM217 576h-32v-55h32q14 0 21.5 8t7.5 20q0 27 -29 27z" />
    <glyph glyph-name="macron" unicode="&#xaf;" horiz-adv-x="389" 
d="M307 582q9 0 15.5 -6.5t6.5 -15.5t-6.5 -15.5t-15.5 -6.5h-225q-9 0 -15.5 6.5t-6.5 15.5t6.5 15.5t15.5 6.5h225z" />
    <glyph glyph-name="degree" unicode="&#xb0;" horiz-adv-x="304" 
d="M264 565q0 -47 -30.5 -79.5t-81.5 -32.5t-81.5 32.5t-30.5 79.5t30.5 80t81.5 33t81.5 -33t30.5 -80zM222 565q0 33 -19 54.5t-51 21.5t-51 -21.5t-19 -54.5t19 -54t51 -21t51 21t19 54z" />
    <glyph glyph-name="plusminus" unicode="&#xb1;" horiz-adv-x="580" 
d="M94 53h392q12 0 20.5 -7t8.5 -19t-8.5 -19.5t-20.5 -7.5h-392q-12 0 -20.5 7.5t-8.5 19.5t8.5 19t20.5 7zM94 360h167v159q0 12 8.5 20.5t20.5 8.5t20.5 -8.5t8.5 -20.5v-159h167q12 0 20.5 -7.5t8.5 -19.5t-8.5 -19.5t-20.5 -7.5h-167v-159q0 -12 -8.5 -20.5t-20.5 -8.5
t-20.5 8.5t-8.5 20.5v159h-167q-12 0 -20.5 7.5t-8.5 19.5t8.5 19.5t20.5 7.5z" />
    <glyph glyph-name="twosuperior" unicode="&#xb2;" horiz-adv-x="473" 
d="M263 434q-63 -35 -88 -59.5t-29 -62.5h228q10 0 17 -6t7 -16t-7 -17t-17 -7h-260q-10 0 -17 7t-7 18q0 29 8.5 53t18 39t33 33.5t36.5 26l45 26.5q6 4 19.5 11.5t19.5 10.5t17 10t16 11l12.5 10t11.5 11t8 11.5t5.5 13.5t1.5 14q0 58 -90 58q-48 0 -97 -26
q-19 -9 -30.5 -3t-11.5 19q0 15 16 25q55 33 124 33q66 0 103.5 -27t37.5 -79q0 -23 -8.5 -42t-30 -36.5t-39 -28.5t-53.5 -31z" />
    <glyph glyph-name="threesuperior" unicode="&#xb3;" horiz-adv-x="449" 
d="M155 484q0 10 7 16t18 6h36q40 0 63.5 19.5t23.5 47.5q0 29 -21.5 44.5t-56.5 15.5q-39 0 -84 -17q-16 -6 -26 0.5t-10 17.5q0 16 18 23q47 21 102 21q59 0 93.5 -27t34.5 -76q0 -63 -67 -89q41 -7 64.5 -34t23.5 -68q0 -54 -42 -89t-113 -35q-82 0 -141 44q-13 9 -13 22
q0 15 14 20.5t31 -6.5q49 -35 108 -35q49 0 77.5 22t28.5 58q0 76 -108 76h-36q-10 0 -17.5 6.5t-7.5 16.5z" />
    <glyph glyph-name="acute" unicode="&#xb4;" horiz-adv-x="329" 
d="M105 536q0 7 6 16l72 102q7 11 21 11q10 0 17.5 -6t7.5 -17q0 -9 -6 -17l-69 -97q-12 -16 -25 -16q-10 0 -17 7t-7 17z" />
    <glyph glyph-name="mu" unicode="&#xb5;" horiz-adv-x="565" 
d="M75 412q0 13 8.5 21.5t21.5 8.5t21.5 -8.5t8.5 -21.5v-222q0 -73 33.5 -110t106.5 -37q65 0 107.5 44t42.5 116v209q0 13 8.5 21.5t21.5 8.5t21.5 -8.5t8.5 -21.5v-390q0 -13 -8.5 -21.5t-21.5 -8.5t-21.5 8.5t-8.5 21.5v52q-50 -86 -163 -86q-77 0 -127 47v-200
q0 -13 -8.5 -21.5t-21.5 -8.5t-21.5 8.5t-8.5 21.5v577z" />
    <glyph glyph-name="paragraph" unicode="&#xb6;" horiz-adv-x="603" 
d="M283 -167v460h-14q-89 0 -149 49.5t-60 136.5q0 90 60 138.5t149 48.5h206q12 0 20 -7.5t8 -20.5v-618q0 -11 -8.5 -19.5t-19.5 -8.5t-19.5 8.5t-8.5 19.5v597h-108v-784q0 -11 -8.5 -19.5t-19.5 -8.5t-19.5 8.5t-8.5 19.5zM118 479q0 -66 40.5 -102.5t109.5 -36.5h15
v277h-16q-66 0 -107.5 -35t-41.5 -103z" />
    <glyph glyph-name="periodcentered" unicode="&#xb7;" horiz-adv-x="234" 
d="M75 270q0 17 12.5 29.5t29.5 12.5t29.5 -12.5t12.5 -29.5t-12.5 -29.5t-29.5 -12.5t-29.5 12.5t-12.5 29.5z" />
    <glyph glyph-name="cedilla" unicode="&#xb8;" horiz-adv-x="303" 
d="M248 -121q0 -33 -25.5 -53.5t-73.5 -20.5q-39 0 -70 13q-14 6 -14 18q0 10 8 16t19 2q30 -11 56 -11q54 0 54 35q0 31 -44 31q-12 0 -28 -3.5t-24 -3.5t-13.5 5t-5.5 12q0 6 4 15l29 67h41l-26 -63q16 8 37 8q35 0 55.5 -18t20.5 -49z" />
    <glyph glyph-name="onesuperior" unicode="&#xb9;" horiz-adv-x="348" 
d="M186 290v331l-85 -28q-13 -4 -22 2.5t-9 17.5q0 17 20 23l94 32q18 6 27 6q27 0 27 -27v-357q0 -11 -7.5 -18.5t-18.5 -7.5t-18.5 7.5t-7.5 18.5z" />
    <glyph glyph-name="ordmasculine" unicode="&#xba;" horiz-adv-x="414" 
d="M359 526q0 -64 -42 -109t-110 -45q-69 0 -110.5 44.5t-41.5 109.5t41.5 108.5t110.5 43.5t110.5 -44t41.5 -108zM207 413q49 0 77.5 32t28.5 81t-28.5 79.5t-77.5 30.5t-77.5 -30.5t-28.5 -79.5t28.5 -81t77.5 -32z" />
    <glyph glyph-name="guillemotright" unicode="&#xbb;" horiz-adv-x="569" 
d="M297 367q0 10 8 17t19 7q9 0 19 -8l158 -152q8 -8 8 -18t-8 -18l-158 -152q-10 -8 -19 -8q-11 0 -19 7t-8 17q0 11 10 21l141 133l-141 133q-10 10 -10 21zM70 367q0 10 8 17t19 7q9 0 19 -8l158 -152q8 -8 8 -18t-8 -18l-158 -152q-10 -8 -19 -8q-11 0 -19 7t-8 17
q0 11 10 21l141 133l-141 133q-10 10 -10 21z" />
    <glyph glyph-name="onequarter" unicode="&#xbc;" horiz-adv-x="891" 
d="M196 290v331l-85 -28q-13 -4 -22 2.5t-9 17.5q0 17 20 23l94 32q18 6 27 6q27 0 27 -27v-357q0 -11 -7.5 -18.5t-18.5 -7.5t-18.5 7.5t-7.5 18.5zM654 640l-424 -639q-9 -13 -22 -13q-10 0 -17 6t-7 16q0 7 5 15l424 639q8 14 23 14q24 0 24 -22q0 -7 -6 -16zM748 22
q0 -11 -7.5 -18.5t-18.5 -7.5t-18.5 7.5t-7.5 18.5v91h-208q-23 0 -23 20q0 11 9 20l226 244q10 11 24 11q24 0 24 -26v-227h54q24 0 24 -21t-24 -21h-54v-91zM534 155h162v175z" />
    <glyph glyph-name="onehalf" unicode="&#xbd;" horiz-adv-x="940" 
d="M654 640l-424 -639q-9 -13 -22 -13q-10 0 -17 6t-7 16q0 7 5 15l424 639q8 14 23 14q24 0 24 -22q0 -7 -6 -16zM730 168q-63 -35 -88 -59.5t-29 -62.5h228q10 0 17 -6t7 -16t-7 -17t-17 -7h-260q-10 0 -17 7t-7 18q0 29 8.5 53t18 39t33 33.5t36.5 26l45 26.5
q6 4 19.5 11.5t19.5 10.5t17 10t16 11l12.5 10t11.5 11t8 11.5t5.5 13.5t1.5 14q0 58 -90 58q-48 0 -97 -26q-19 -9 -30.5 -3t-11.5 19q0 15 16 25q56 33 124 33q66 0 103.5 -27t37.5 -79q0 -23 -8.5 -42t-30 -36.5t-39 -28.5t-53.5 -31zM196 290v331l-85 -28
q-13 -4 -22 2.5t-9 17.5q0 17 20 23l94 32q18 6 27 6q27 0 27 -27v-357q0 -11 -7.5 -18.5t-18.5 -7.5t-18.5 7.5t-7.5 18.5z" />
    <glyph glyph-name="threequarters" unicode="&#xbe;" horiz-adv-x="962" 
d="M155 484q0 10 7 16t18 6h36q40 0 63.5 19.5t23.5 47.5q0 29 -21.5 44.5t-56.5 15.5q-39 0 -84 -17q-16 -6 -26 0.5t-10 17.5q0 16 18 23q47 21 102 21q59 0 93.5 -27t34.5 -76q0 -63 -67 -89q41 -7 64.5 -34t23.5 -68q0 -54 -42 -89t-113 -35q-82 0 -141 44q-13 9 -13 22
q0 15 14 20.5t31 -6.5q49 -35 108 -35q49 0 77.5 22t28.5 58q0 76 -108 76h-36q-10 0 -17.5 6.5t-7.5 16.5zM725 640l-424 -639q-9 -13 -22 -13q-10 0 -17 6t-7 16q0 7 5 15l424 639q8 14 23 14q24 0 24 -22q0 -7 -6 -16zM819 22q0 -11 -7.5 -18.5t-18.5 -7.5t-18.5 7.5
t-7.5 18.5v91h-208q-23 0 -23 20q0 11 9 20l226 244q10 11 24 11q24 0 24 -26v-227h54q24 0 24 -21t-24 -21h-54v-91zM605 155h162v175z" />
    <glyph glyph-name="questiondown" unicode="&#xbf;" horiz-adv-x="482" 
d="M50 -56q0 41 20.5 73.5t75.5 76.5q59 46 75.5 70t16.5 71v30q0 12 9 20t22 8t21 -8.5t8 -19.5v-29q0 -59 -19.5 -89t-78.5 -78q-55 -46 -72.5 -69.5t-17.5 -56.5q0 -86 137 -86q78 0 155 46q10 6 20 6t17.5 -7.5t7.5 -17.5q0 -14 -22 -28q-79 -51 -182 -51
q-88 0 -140.5 35t-52.5 104zM310 404q0 -17 -12.5 -29.5t-29.5 -12.5t-29.5 12.5t-12.5 29.5t12.5 29.5t29.5 12.5t29.5 -12.5t12.5 -29.5z" />
    <glyph glyph-name="Agrave" unicode="&#xc0;" horiz-adv-x="716" 
d="M386 654l278 -621q4 -8 4 -14q0 -12 -8 -19.5t-21 -7.5q-19 0 -27 19l-82 183h-344l-82 -183q-8 -19 -27 -19q-13 0 -21 7.5t-8 19.5q0 6 4 14l278 621q9 20 28 20t28 -20zM209 247h298l-149 343zM314 827l55 -62q8 -10 8 -19t-7.5 -16t-17.5 -7q-11 0 -24 14l-55 59
q-8 9 -8 20q0 9 7 16t18 7q14 0 24 -12z" />
    <glyph glyph-name="Aacute" unicode="&#xc1;" horiz-adv-x="716" 
d="M386 654l278 -621q4 -8 4 -14q0 -12 -8 -19.5t-21 -7.5q-19 0 -27 19l-82 183h-344l-82 -183q-8 -19 -27 -19q-13 0 -21 7.5t-8 19.5q0 6 4 14l278 621q9 20 28 20t28 -20zM209 247h298l-149 343zM338 765l55 62q10 12 24 12q11 0 18 -7t7 -16q0 -11 -8 -20l-55 -59
q-13 -14 -24 -14q-10 0 -17.5 7t-7.5 16t8 19z" />
    <glyph glyph-name="Acircumflex" unicode="&#xc2;" horiz-adv-x="716" 
d="M386 654l278 -621q4 -8 4 -14q0 -12 -8 -19.5t-21 -7.5q-19 0 -27 19l-82 183h-344l-82 -183q-8 -19 -27 -19q-13 0 -21 7.5t-8 19.5q0 6 4 14l278 621q9 20 28 20t28 -20zM209 247h298l-149 343zM376 831l91 -69q9 -9 9 -19q0 -8 -7 -14t-16 -6t-16 6l-80 57l-80 -57
q-7 -6 -16 -6t-16 6t-7 14q0 10 9 19l91 69q11 8 19 8t19 -8z" />
    <glyph glyph-name="Atilde" unicode="&#xc3;" horiz-adv-x="716" 
d="M386 654l278 -621q4 -8 4 -14q0 -12 -8 -19.5t-21 -7.5q-19 0 -27 19l-82 183h-344l-82 -183q-8 -19 -27 -19q-13 0 -21 7.5t-8 19.5q0 6 4 14l278 621q9 20 28 20t28 -20zM209 247h298l-149 343zM417 727q-22 0 -59 21q-33 18 -47 18q-21 0 -37 -19l-11 -12
q-9 -9 -19 -9q-9 0 -16 6t-7 15t6 16l10 13q30 37 74 37q26 0 51 -14q6 -3 16 -9t15 -8.5t11.5 -5t11.5 -2.5q14 0 35 21l10 10q9 9 19 9q9 0 16 -5.5t7 -14.5t-6 -17q-1 -2 -3 -4.5t-5 -5.5t-4 -5q-31 -35 -68 -35z" />
    <glyph glyph-name="Adieresis" unicode="&#xc4;" horiz-adv-x="716" 
d="M386 654l278 -621q4 -8 4 -14q0 -12 -8 -19.5t-21 -7.5q-19 0 -27 19l-82 183h-344l-82 -183q-8 -19 -27 -19q-13 0 -21 7.5t-8 19.5q0 6 4 14l278 621q9 20 28 20t28 -20zM209 247h298l-149 343zM220 785q0 17 12 28.5t28 11.5t28 -11.5t12 -28.5t-12 -28.5t-28 -11.5
t-28 11.5t-12 28.5zM416 785q0 17 12 28.5t28 11.5t28 -11.5t12 -28.5t-12 -28.5t-28 -11.5t-28 11.5t-12 28.5z" />
    <glyph glyph-name="Aring" unicode="&#xc5;" horiz-adv-x="716" 
d="M430 715q0 -47 -42 -65l276 -617q4 -8 4 -14q0 -12 -8 -19.5t-21 -7.5q-19 0 -27 19l-82 183h-344l-82 -183q-8 -19 -27 -19q-13 0 -21 7.5t-8 19.5q0 6 4 14l276 617q-42 18 -42 65q0 30 20.5 50.5t51.5 20.5t51.5 -20.5t20.5 -50.5zM209 247h298l-149 343zM396 715
q0 17 -10.5 29t-27.5 12t-27.5 -12t-10.5 -29t10.5 -29t27.5 -12t27.5 12t10.5 29z" />
    <glyph glyph-name="AE" unicode="&#xc6;" horiz-adv-x="940" 
d="M636 0q-20 0 -28 19l-78 175h-344l-82 -183q-8 -19 -27 -19q-13 0 -21 7.5t-8 19.5q0 6 4 14l278 613q9 20 30 20h507q11 0 19 -8t8 -19t-8 -19t-19 -8h-466l109 -241h208q11 0 19 -8t8 -19t-8 -19t-19 -8h-183l119 -263h214q11 0 19 -8t8 -19t-8 -19t-19 -8h-232z
M209 247h298l-149 338z" />
    <glyph glyph-name="Ccedilla" unicode="&#xc7;" horiz-adv-x="705" 
d="M500 -121q0 -33 -25.5 -53.5t-73.5 -20.5q-39 0 -70 13q-14 6 -14 18q0 10 8 16t19 2q30 -11 56 -11q54 0 54 35q0 31 -44 31q-12 0 -28 -3.5t-24 -3.5t-13.5 5t-5.5 12q0 6 4 15l23 55q-138 9 -223 107t-85 237q0 146 92.5 245.5t240.5 99.5q160 0 256 -126q8 -12 8 -20
q0 -12 -8 -19.5t-20 -7.5q-13 0 -21 11q-41 52 -91 79.5t-124 27.5q-125 0 -199 -85t-74 -205t74 -205t199 -85q74 0 124 27.5t91 79.5q8 11 21 11q12 0 20 -7.5t8 -19.5q0 -8 -8 -20q-90 -118 -239 -125l-21 -51q16 8 37 8q35 0 55.5 -18t20.5 -49z" />
    <glyph glyph-name="Egrave" unicode="&#xc8;" horiz-adv-x="583" 
d="M155 317v-263h356q11 0 19 -8t8 -19t-8 -19t-19 -8h-386q-13 0 -21.5 8.5t-8.5 21.5v606q0 13 8.5 21.5t21.5 8.5h385q11 0 19 -8t8 -19t-8 -19t-19 -8h-355v-241h206q11 0 19 -8t8 -19t-8 -19t-19 -8h-206zM288 827l55 -62q8 -10 8 -19t-7.5 -16t-17.5 -7q-11 0 -24 14
l-55 59q-8 9 -8 20q0 9 7 16t18 7q14 0 24 -12z" />
    <glyph glyph-name="Eacute" unicode="&#xc9;" horiz-adv-x="583" 
d="M155 317v-263h356q11 0 19 -8t8 -19t-8 -19t-19 -8h-386q-13 0 -21.5 8.5t-8.5 21.5v606q0 13 8.5 21.5t21.5 8.5h385q11 0 19 -8t8 -19t-8 -19t-19 -8h-355v-241h206q11 0 19 -8t8 -19t-8 -19t-19 -8h-206zM286 765l55 62q10 12 24 12q11 0 18 -7t7 -16q0 -11 -8 -20
l-55 -59q-13 -14 -24 -14q-10 0 -17.5 7t-7.5 16t8 19z" />
    <glyph glyph-name="Ecircumflex" unicode="&#xca;" horiz-adv-x="583" 
d="M155 317v-263h356q11 0 19 -8t8 -19t-8 -19t-19 -8h-386q-13 0 -21.5 8.5t-8.5 21.5v606q0 13 8.5 21.5t21.5 8.5h385q11 0 19 -8t8 -19t-8 -19t-19 -8h-355v-241h206q11 0 19 -8t8 -19t-8 -19t-19 -8h-206zM337 831l91 -69q9 -9 9 -19q0 -8 -7 -14t-16 -6q-8 0 -16 6
l-80 57l-80 -57q-7 -6 -16 -6t-16 6t-7 14q0 10 9 19l91 69q11 8 19 8t19 -8z" />
    <glyph glyph-name="Edieresis" unicode="&#xcb;" horiz-adv-x="583" 
d="M155 317v-263h356q11 0 19 -8t8 -19t-8 -19t-19 -8h-386q-13 0 -21.5 8.5t-8.5 21.5v606q0 13 8.5 21.5t21.5 8.5h385q11 0 19 -8t8 -19t-8 -19t-19 -8h-355v-241h206q11 0 19 -8t8 -19t-8 -19t-19 -8h-206zM182 785q0 17 12 28.5t28 11.5t28 -11.5t12 -28.5t-12 -28.5
t-28 -11.5t-28 11.5t-12 28.5zM378 785q0 17 12 28.5t28 11.5t28 -11.5t12 -28.5t-12 -28.5t-28 -11.5t-28 11.5t-12 28.5z" />
    <glyph glyph-name="Igrave" unicode="&#xcc;" horiz-adv-x="260" 
d="M160 22q0 -13 -8.5 -21.5t-21.5 -8.5t-21.5 8.5t-8.5 21.5v622q0 13 8.5 21.5t21.5 8.5t21.5 -8.5t8.5 -21.5v-622zM97 827l55 -62q8 -10 8 -19t-7.5 -16t-17.5 -7q-11 0 -24 14l-55 59q-8 9 -8 20q0 9 7 16t18 7q14 0 24 -12z" />
    <glyph glyph-name="Iacute" unicode="&#xcd;" horiz-adv-x="260" 
d="M160 22q0 -13 -8.5 -21.5t-21.5 -8.5t-21.5 8.5t-8.5 21.5v622q0 13 8.5 21.5t21.5 8.5t21.5 -8.5t8.5 -21.5v-622zM107 765l55 62q10 12 24 12q11 0 18 -7t7 -16q0 -11 -8 -20l-55 -59q-13 -14 -24 -14q-10 0 -17.5 7t-7.5 16t8 19z" />
    <glyph glyph-name="Icircumflex" unicode="&#xce;" horiz-adv-x="260" 
d="M160 22q0 -13 -8.5 -21.5t-21.5 -8.5t-21.5 8.5t-8.5 21.5v622q0 13 8.5 21.5t21.5 8.5t21.5 -8.5t8.5 -21.5v-622zM149 831l91 -69q9 -9 9 -19q0 -8 -7 -14t-16 -6q-8 0 -16 6l-80 57l-80 -57q-8 -6 -16 -6q-9 0 -16 6t-7 14q0 10 9 19l91 69q11 8 19 8t19 -8z" />
    <glyph glyph-name="Idieresis" unicode="&#xcf;" horiz-adv-x="260" 
d="M160 22q0 -13 -8.5 -21.5t-21.5 -8.5t-21.5 8.5t-8.5 21.5v622q0 13 8.5 21.5t21.5 8.5t21.5 -8.5t8.5 -21.5v-622zM-8 785q0 17 12 28.5t28 11.5t28 -11.5t12 -28.5t-12 -28.5t-28 -11.5t-28 11.5t-12 28.5zM188 785q0 17 12 28.5t28 11.5t28 -11.5t12 -28.5t-12 -28.5
t-28 -11.5t-28 11.5t-12 28.5z" />
    <glyph glyph-name="Eth" unicode="&#xd0;" horiz-adv-x="747" 
d="M695 333q0 -142 -91.5 -237.5t-240.5 -95.5h-190q-13 0 -21.5 9t-8.5 21v277h-77q-11 0 -19.5 7.5t-8.5 18.5t8.5 18.5t19.5 7.5h77v277q0 13 8.5 21.5t21.5 8.5h190q149 0 240.5 -95.5t91.5 -237.5zM363 359q11 0 19.5 -7.5t8.5 -18.5t-8.5 -18.5t-19.5 -7.5h-160v-253
h156q127 0 201.5 79t74.5 200t-74.5 200t-201.5 79h-156v-253h160z" />
    <glyph glyph-name="Ntilde" unicode="&#xd1;" horiz-adv-x="723" 
d="M628 20q0 -12 -7.5 -20t-21.5 -8q-13 0 -23 13l-424 559v-544q0 -11 -8 -19.5t-20 -8.5t-20.5 8t-8.5 20v625q0 13 8.5 21t21.5 8q14 0 23 -13l423 -560v544q0 13 8 21t21 8q12 0 20 -8.5t8 -20.5v-625zM419 727q-22 0 -59 21q-33 18 -47 18q-21 0 -37 -19l-11 -12
q-9 -9 -19 -9q-9 0 -16 6t-7 15t6 16l10 13q30 37 74 37q26 0 51 -14q6 -3 16 -9t15 -8.5t11.5 -5t11.5 -2.5q14 0 35 21l10 10q9 9 19 9q9 0 16 -5.5t7 -14.5t-6 -17q-1 -2 -3 -4.5t-5 -5.5t-4 -5q-31 -35 -68 -35z" />
    <glyph glyph-name="Ograve" unicode="&#xd2;" horiz-adv-x="786" 
d="M728 333q0 -143 -93.5 -244t-240.5 -101t-241.5 101t-94.5 244t94.5 244t241.5 101t240.5 -101t93.5 -244zM668 333q0 120 -75 206t-199 86t-200 -86t-76 -206t76 -206t200 -86t199 86t75 206zM360 827l55 -62q8 -10 8 -19t-7.5 -16t-17.5 -7q-11 0 -24 14l-55 59
q-8 9 -8 20q0 9 7 16t18 7q14 0 24 -12z" />
    <glyph glyph-name="Oacute" unicode="&#xd3;" horiz-adv-x="774" 
d="M722 333q0 -143 -93.5 -244t-240.5 -101t-241.5 101t-94.5 244t94.5 244t241.5 101t240.5 -101t93.5 -244zM662 333q0 120 -75 206t-199 86t-200 -86t-76 -206t76 -206t200 -86t199 86t75 206zM364 765l55 62q10 12 24 12q11 0 18 -7t7 -16q0 -11 -8 -20l-55 -59
q-13 -14 -24 -14q-10 0 -17.5 7t-7.5 16t8 19z" />
    <glyph glyph-name="Ocircumflex" unicode="&#xd4;" horiz-adv-x="774" 
d="M722 333q0 -143 -93.5 -244t-240.5 -101t-241.5 101t-94.5 244t94.5 244t241.5 101t240.5 -101t93.5 -244zM662 333q0 120 -75 206t-199 86t-200 -86t-76 -206t76 -206t200 -86t199 86t75 206zM407 831l91 -69q9 -9 9 -19q0 -8 -7 -14t-16 -6q-8 0 -16 6l-80 57l-80 -57
q-7 -6 -16 -6t-16 6t-7 14q0 10 9 19l91 69q11 8 19 8t19 -8z" />
    <glyph glyph-name="Otilde" unicode="&#xd5;" horiz-adv-x="774" 
d="M722 333q0 -143 -93.5 -244t-240.5 -101t-241.5 101t-94.5 244t94.5 244t241.5 101t240.5 -101t93.5 -244zM662 333q0 120 -75 206t-199 86t-200 -86t-76 -206t76 -206t200 -86t199 86t75 206zM445 727q-22 0 -59 21q-33 18 -47 18q-21 0 -37 -19l-11 -12q-9 -9 -19 -9
q-9 0 -16 6t-7 15t6 16l10 13q30 37 74 37q26 0 51 -14q6 -3 16 -9t15 -8.5t11.5 -5t11.5 -2.5q14 0 35 21l10 10q9 9 19 9q9 0 16 -5.5t7 -14.5t-6 -17q-1 -2 -3 -4.5t-5 -5.5t-4 -5q-32 -35 -68 -35z" />
    <glyph glyph-name="Odieresis" unicode="&#xd6;" horiz-adv-x="774" 
d="M722 333q0 -143 -93.5 -244t-240.5 -101t-241.5 101t-94.5 244t94.5 244t241.5 101t240.5 -101t93.5 -244zM662 333q0 120 -75 206t-199 86t-200 -86t-76 -206t76 -206t200 -86t199 86t75 206zM250 785q0 17 12 28.5t28 11.5t28 -11.5t12 -28.5t-12 -28.5t-28 -11.5
t-28 11.5t-12 28.5zM446 785q0 17 12 28.5t28 11.5t28 -11.5t12 -28.5t-12 -28.5t-28 -11.5t-28 11.5t-12 28.5z" />
    <glyph glyph-name="multiply" unicode="&#xd7;" horiz-adv-x="505" 
d="M134 482l118 -118l118 118q8 8 21 8q12 0 20 -8t8 -20q0 -13 -8 -21l-118 -118l117 -117q10 -10 10 -21q0 -12 -9 -20.5t-20 -8.5t-21 8l-118 118l-118 -118q-8 -8 -20 -8q-13 0 -21 8t-8 21q0 12 8 20l118 118l-118 118q-8 10 -8 21q0 12 8.5 20t20.5 8t20 -8z" />
    <glyph glyph-name="Oslash" unicode="&#xd8;" horiz-adv-x="774" 
d="M59 -25l92 109q-99 101 -99 249q0 143 94.5 244t241.5 101q116 0 203 -68l92 110q8 8 17 8q22 0 22 -22q0 -7 -5 -14l-93 -111q98 -100 98 -248q0 -143 -93.5 -244t-240.5 -101q-118 0 -205 68l-90 -108q-8 -10 -19 -10q-8 0 -15 6.5t-7 14.5q0 7 7 16zM112 333
q0 -123 75 -206l369 441q-70 57 -168 57q-124 0 -200 -86t-76 -206zM662 333q0 122 -74 205l-370 -440q71 -57 170 -57q124 0 199 86t75 206z" />
    <glyph glyph-name="Ugrave" unicode="&#xd9;" horiz-adv-x="744" 
d="M372 -12q-130 0 -205.5 74t-75.5 200v382q0 13 8.5 21.5t21.5 8.5t21.5 -8.5t8.5 -21.5v-386q0 -102 54.5 -159.5t166.5 -57.5t166.5 57.5t54.5 159.5v386q0 13 8.5 21.5t21.5 8.5t21.5 -8.5t8.5 -21.5v-382q0 -126 -75.5 -200t-205.5 -74zM346 827l55 -62q8 -10 8 -19
t-7.5 -16t-17.5 -7q-11 0 -24 14l-55 59q-8 9 -8 20q0 9 7 16t18 7q14 0 24 -12z" />
    <glyph glyph-name="Uacute" unicode="&#xda;" horiz-adv-x="744" 
d="M372 -12q-130 0 -205.5 74t-75.5 200v382q0 13 8.5 21.5t21.5 8.5t21.5 -8.5t8.5 -21.5v-386q0 -102 54.5 -159.5t166.5 -57.5t166.5 57.5t54.5 159.5v386q0 13 8.5 21.5t21.5 8.5t21.5 -8.5t8.5 -21.5v-382q0 -126 -75.5 -200t-205.5 -74zM340 765l55 62q10 12 24 12
q11 0 18 -7t7 -16q0 -11 -8 -20l-55 -59q-13 -14 -24 -14q-10 0 -17.5 7t-7.5 16t8 19z" />
    <glyph glyph-name="Ucircumflex" unicode="&#xdb;" horiz-adv-x="744" 
d="M372 -12q-130 0 -205.5 74t-75.5 200v382q0 13 8.5 21.5t21.5 8.5t21.5 -8.5t8.5 -21.5v-386q0 -102 54.5 -159.5t166.5 -57.5t166.5 57.5t54.5 159.5v386q0 13 8.5 21.5t21.5 8.5t21.5 -8.5t8.5 -21.5v-382q0 -126 -75.5 -200t-205.5 -74zM390 831l91 -69q9 -9 9 -19
q0 -8 -7 -14t-16 -6q-8 0 -16 6l-80 57l-80 -57q-8 -6 -16 -6q-9 0 -16 6t-7 14q0 10 9 19l91 69q11 8 19 8t19 -8z" />
    <glyph glyph-name="Udieresis" unicode="&#xdc;" horiz-adv-x="744" 
d="M372 -12q-130 0 -205.5 74t-75.5 200v382q0 13 8.5 21.5t21.5 8.5t21.5 -8.5t8.5 -21.5v-386q0 -102 54.5 -159.5t166.5 -57.5t166.5 57.5t54.5 159.5v386q0 13 8.5 21.5t21.5 8.5t21.5 -8.5t8.5 -21.5v-382q0 -126 -75.5 -200t-205.5 -74zM233 785q0 17 11.5 28.5
t28.5 11.5t28.5 -11.5t11.5 -28.5t-11.5 -28.5t-28.5 -11.5t-28.5 11.5t-11.5 28.5zM429 785q0 17 11.5 28.5t28.5 11.5t28.5 -11.5t11.5 -28.5t-11.5 -28.5t-28.5 -11.5t-28.5 11.5t-11.5 28.5z" />
    <glyph glyph-name="Yacute" unicode="&#xdd;" horiz-adv-x="552" 
d="M541 630l-235 -338v-270q0 -13 -8.5 -21.5t-21.5 -8.5t-21.5 8.5t-8.5 21.5v270l-235 338q-6 9 -6 17q0 12 7.5 19.5t19.5 7.5q16 0 26 -14l218 -312l218 312q10 14 26 14q12 0 19.5 -7.5t7.5 -19.5q0 -8 -6 -17zM257 765l55 62q10 12 24 12q11 0 18 -7t7 -16
q0 -11 -8 -20l-55 -59q-13 -14 -24 -14q-10 0 -17.5 7t-7.5 16t8 19z" />
    <glyph glyph-name="Thorn" unicode="&#xde;" horiz-adv-x="632" 
d="M597 336q0 -82 -54.5 -134.5t-150.5 -52.5h-237v-127q0 -13 -8.5 -21.5t-21.5 -8.5t-21.5 8.5t-8.5 21.5v622q0 13 8.5 21.5t21.5 8.5t21.5 -8.5t8.5 -21.5v-121h237q96 0 150.5 -52.5t54.5 -134.5zM155 203h249q61 0 97 37.5t36 95.5t-36 95.5t-97 37.5h-249v-266z" />
    <glyph glyph-name="germandbls" unicode="&#xdf;" horiz-adv-x="626" 
d="M581 105q0 -52 -43 -84.5t-119 -32.5q-83 0 -144 45q-14 11 -14 22t6.5 17.5t17.5 6.5q9 0 22 -9q56 -36 114 -36q49 0 75.5 18.5t26.5 48.5q0 34 -23.5 53t-78.5 40q-69 27 -98 53t-29 68q0 20 8 38.5t17 31t32 38.5q3 4 13 15.5l13.5 15.5t10.5 13.5t10 15t6.5 14t5 16
t1.5 16.5q0 49 -38 73.5t-93 24.5q-135 0 -135 -142v-463q0 -12 -8.5 -21t-21.5 -9t-21.5 9t-8.5 21v461q0 93 49 144t146 51q85 0 137 -40.5t52 -108.5q0 -23 -8.5 -44t-18 -35t-30.5 -39q-7 -9 -19.5 -23.5t-17 -20.5t-11 -15.5t-8.5 -17.5t-2 -17q0 -25 18.5 -40.5
t76.5 -37.5q66 -25 99 -55t33 -79z" />
    <glyph glyph-name="agrave" unicode="&#xe0;" horiz-adv-x="516" 
d="M441 22q0 -13 -8 -21.5t-22 -8.5t-22 8.5t-8 21.5v22q-50 -56 -149 -56q-79 0 -127 37t-48 94q0 60 50.5 96.5t133.5 36.5q46 0 83.5 -16t56.5 -38v59q0 71 -35.5 104.5t-109.5 33.5q-60 0 -123 -26q-9 -3 -14 -3q-26 0 -26 25q0 15 15 22q64 33 153 33q95 0 147.5 -49
t52.5 -139v-236zM381 119q0 39 -41 63.5t-95 24.5q-58 0 -93 -24t-35 -64t34 -63.5t90 -23.5q57 0 98.5 24.5t41.5 62.5zM286 536q0 -10 -7 -17t-17 -7q-14 0 -25 16l-69 97q-6 8 -6 17q0 10 7.5 16.5t17.5 6.5q14 0 21 -11l72 -102q6 -9 6 -16z" />
    <glyph glyph-name="aacute" unicode="&#xe1;" horiz-adv-x="516" 
d="M441 22q0 -13 -8 -21.5t-22 -8.5t-22 8.5t-8 21.5v22q-50 -56 -149 -56q-79 0 -127 37t-48 94q0 60 50.5 96.5t133.5 36.5q46 0 83.5 -16t56.5 -38v59q0 71 -35.5 104.5t-109.5 33.5q-60 0 -123 -26q-9 -3 -14 -3q-26 0 -26 25q0 15 15 22q64 33 153 33q95 0 147.5 -49
t52.5 -139v-236zM381 119q0 39 -41 63.5t-95 24.5q-58 0 -93 -24t-35 -64t34 -63.5t90 -23.5q57 0 98.5 24.5t41.5 62.5zM216 536q0 7 6 16l72 102q7 11 21 11q10 0 17.5 -6t7.5 -17q0 -9 -6 -17l-69 -97q-12 -16 -25 -16q-10 0 -17 7t-7 17z" />
    <glyph glyph-name="acircumflex" unicode="&#xe2;" horiz-adv-x="516" 
d="M441 22q0 -13 -8 -21.5t-22 -8.5t-22 8.5t-8 21.5v22q-50 -56 -149 -56q-79 0 -127 37t-48 94q0 60 50.5 96.5t133.5 36.5q46 0 83.5 -16t56.5 -38v59q0 71 -35.5 104.5t-109.5 33.5q-60 0 -123 -26q-9 -3 -14 -3q-26 0 -26 25q0 15 15 22q64 33 153 33q95 0 147.5 -49
t52.5 -139v-236zM381 119q0 39 -41 63.5t-95 24.5q-58 0 -93 -24t-35 -64t34 -63.5t90 -23.5q57 0 98.5 24.5t41.5 62.5zM273 638l95 -88q9 -9 9 -19q0 -8 -7 -14t-16 -6q-8 0 -16 6l-84 74l-84 -74q-8 -6 -16 -6q-9 0 -16 6t-7 14q0 10 9 19l95 88q8 8 19 8t19 -8z" />
    <glyph glyph-name="atilde" unicode="&#xe3;" horiz-adv-x="516" 
d="M441 22q0 -13 -8 -21.5t-22 -8.5t-22 8.5t-8 21.5v22q-50 -56 -149 -56q-79 0 -127 37t-48 94q0 60 50.5 96.5t133.5 36.5q46 0 83.5 -16t56.5 -38v59q0 71 -35.5 104.5t-109.5 33.5q-60 0 -123 -26q-9 -3 -14 -3q-26 0 -26 25q0 15 15 22q64 33 153 33q95 0 147.5 -49
t52.5 -139v-236zM381 119q0 39 -41 63.5t-95 24.5q-58 0 -93 -24t-35 -64t34 -63.5t90 -23.5q57 0 98.5 24.5t41.5 62.5zM308 519q-22 0 -59 21q-33 18 -47 18q-21 0 -37 -19l-11 -12q-9 -9 -19 -9q-9 0 -16 6t-7 15t6 16l10 13q30 37 74 37q26 0 51 -14q6 -3 16 -9t15 -8.5
t11.5 -5t11.5 -2.5q14 0 35 21l10 10q9 9 19 9q9 0 16 -5.5t7 -14.5q0 -10 -6 -17q-1 -2 -3 -4.5t-5 -5.5t-4 -5q-32 -35 -68 -35z" />
    <glyph glyph-name="adieresis" unicode="&#xe4;" horiz-adv-x="516" 
d="M441 22q0 -13 -8 -21.5t-22 -8.5t-22 8.5t-8 21.5v22q-50 -56 -149 -56q-79 0 -127 37t-48 94q0 60 50.5 96.5t133.5 36.5q46 0 83.5 -16t56.5 -38v59q0 71 -35.5 104.5t-109.5 33.5q-60 0 -123 -26q-9 -3 -14 -3q-26 0 -26 25q0 15 15 22q64 33 153 33q95 0 147.5 -49
t52.5 -139v-236zM381 119q0 39 -41 63.5t-95 24.5q-58 0 -93 -24t-35 -64t34 -63.5t90 -23.5q57 0 98.5 24.5t41.5 62.5zM135 565q0 17 11.5 28.5t28.5 11.5t28.5 -11.5t11.5 -28.5t-11.5 -28.5t-28.5 -11.5t-28.5 11.5t-11.5 28.5zM301 565q0 17 11.5 28.5t28.5 11.5
t28.5 -11.5t11.5 -28.5t-11.5 -28.5t-28.5 -11.5t-28.5 11.5t-11.5 28.5z" />
    <glyph glyph-name="aring" unicode="&#xe5;" horiz-adv-x="516" 
d="M441 22q0 -13 -8 -21.5t-22 -8.5t-22 8.5t-8 21.5v22q-50 -56 -149 -56q-79 0 -127 37t-48 94q0 60 50.5 96.5t133.5 36.5q46 0 83.5 -16t56.5 -38v59q0 71 -35.5 104.5t-109.5 33.5q-60 0 -123 -26q-9 -3 -14 -3q-26 0 -26 25q0 15 15 22q64 33 153 33q95 0 147.5 -49
t52.5 -139v-236zM381 119q0 39 -41 63.5t-95 24.5q-58 0 -93 -24t-35 -64t34 -63.5t90 -23.5q57 0 98.5 24.5t41.5 62.5zM325 570q0 -30 -20.5 -50.5t-51.5 -20.5t-51.5 20.5t-20.5 50.5t20.5 50.5t51.5 20.5t51.5 -20.5t20.5 -50.5zM291 570q0 17 -10.5 29t-27.5 12
t-27.5 -12t-10.5 -29t10.5 -29t27.5 -12t27.5 12t10.5 29z" />
    <glyph glyph-name="ae" unicode="&#xe6;" horiz-adv-x="867" 
d="M604 446q92 0 151 -63.5t59 -160.5q0 -10 -7.5 -17.5t-17.5 -7.5h-347q0 -66 43.5 -112.5t124.5 -46.5q82 0 136 64q11 13 23 13q11 0 18 -7.5t7 -17.5q0 -9 -6 -18q-27 -37 -74 -60.5t-104 -23.5q-65 0 -113.5 26t-71.5 64q-59 -90 -190 -90q-82 0 -130 36.5t-48 94.5
q0 60 50.5 96.5t133.5 36.5q46 0 83.5 -16t56.5 -38v59q0 71 -35.5 104.5t-109.5 33.5q-60 0 -123 -26q-9 -3 -14 -3q-26 0 -26 25q0 15 15 22q64 33 153 33q139 0 176 -107q61 107 187 107zM381 119q0 39 -41 63.5t-95 24.5q-58 0 -93 -24t-35 -64q0 -41 33 -64t91 -23
q57 0 98.5 24.5t41.5 62.5zM759 247q-6 64 -49 106.5t-106 42.5q-65 0 -110 -42.5t-50 -106.5h315z" />
    <glyph glyph-name="ccedilla" unicode="&#xe7;" horiz-adv-x="507" 
d="M387 -121q0 -33 -25.5 -53.5t-73.5 -20.5q-39 0 -70 13q-14 6 -14 18q0 10 8 16t19 2q30 -11 56 -11q54 0 54 35q0 31 -44 31q-12 0 -28 -3.5t-24 -3.5q-9 0 -14 5t-5 12q0 6 4 15l24 56q-88 9 -144.5 72.5t-56.5 154.5q0 98 65.5 163.5t163.5 65.5q58 0 105 -24t71 -60
q6 -9 6 -18q0 -11 -8.5 -18t-20.5 -7q-11 0 -21 12q-53 63 -132 63q-73 0 -121 -51.5t-48 -125.5t48 -125.5t121 -51.5q79 0 132 63q10 12 21 12q12 0 20.5 -7t8.5 -18q0 -9 -6 -18q-23 -34 -66 -57t-97 -26l-21 -51q16 8 37 8q35 0 55.5 -18t20.5 -49z" />
    <glyph glyph-name="egrave" unicode="&#xe8;" horiz-adv-x="538" 
d="M275 446q92 0 151 -63.5t59 -160.5q0 -10 -7.5 -17.5t-17.5 -7.5h-347q2 -64 47.5 -111t120.5 -47q83 0 136 63q11 13 23 13q11 0 18 -7.5t7 -17.5q0 -9 -6 -18q-27 -37 -74 -60.5t-104 -23.5q-104 0 -166.5 67t-62.5 162q0 94 63 161.5t160 67.5zM430 247
q-6 64 -49 106.5t-106 42.5q-65 0 -109.5 -43t-50.5 -106h315zM311 536q0 -10 -7 -17t-17 -7q-14 0 -25 16l-69 97q-6 8 -6 17q0 10 7.5 16.5t17.5 6.5q14 0 21 -11l72 -102q6 -9 6 -16z" />
    <glyph glyph-name="eacute" unicode="&#xe9;" horiz-adv-x="538" 
d="M275 446q92 0 151 -63.5t59 -160.5q0 -10 -7.5 -17.5t-17.5 -7.5h-347q2 -64 47.5 -111t120.5 -47q83 0 136 63q11 13 23 13q11 0 18 -7.5t7 -17.5q0 -9 -6 -18q-27 -37 -74 -60.5t-104 -23.5q-104 0 -166.5 67t-62.5 162q0 94 63 161.5t160 67.5zM430 247
q-6 64 -49 106.5t-106 42.5q-65 0 -109.5 -43t-50.5 -106h315zM228 536q0 7 6 16l72 102q7 11 21 11q10 0 17.5 -6t7.5 -17q0 -9 -6 -17l-69 -97q-12 -16 -25 -16q-10 0 -17 7t-7 17z" />
    <glyph glyph-name="ecircumflex" unicode="&#xea;" horiz-adv-x="538" 
d="M275 446q92 0 151 -63.5t59 -160.5q0 -10 -7.5 -17.5t-17.5 -7.5h-347q2 -64 47.5 -111t120.5 -47q83 0 136 63q11 13 23 13q11 0 18 -7.5t7 -17.5q0 -9 -6 -18q-27 -37 -74 -60.5t-104 -23.5q-104 0 -166.5 67t-62.5 162q0 94 63 161.5t160 67.5zM430 247
q-6 64 -49 106.5t-106 42.5q-65 0 -109.5 -43t-50.5 -106h315zM303 638l95 -88q9 -9 9 -19q0 -8 -7 -14t-16 -6q-8 0 -16 6l-84 74l-84 -74q-8 -6 -16 -6q-9 0 -16 6t-7 14q0 10 9 19l95 88q8 8 19 8t19 -8z" />
    <glyph glyph-name="edieresis" unicode="&#xeb;" horiz-adv-x="538" 
d="M275 446q92 0 151 -63.5t59 -160.5q0 -10 -7.5 -17.5t-17.5 -7.5h-347q2 -64 47.5 -111t120.5 -47q83 0 136 63q11 13 23 13q11 0 18 -7.5t7 -17.5q0 -9 -6 -18q-27 -37 -74 -60.5t-104 -23.5q-104 0 -166.5 67t-62.5 162q0 94 63 161.5t160 67.5zM430 247
q-6 64 -49 106.5t-106 42.5q-65 0 -109.5 -43t-50.5 -106h315zM158 565q0 17 12 28.5t28 11.5t28 -11.5t12 -28.5t-12 -28.5t-28 -11.5t-28 11.5t-12 28.5zM324 565q0 17 12 28.5t28 11.5t28 -11.5t12 -28.5t-12 -28.5t-28 -11.5t-28 11.5t-12 28.5z" />
    <glyph glyph-name="igrave" unicode="&#xec;" horiz-adv-x="220" 
d="M140 22q0 -13 -8.5 -21.5t-21.5 -8.5t-21.5 8.5t-8.5 21.5v390q0 13 8.5 21.5t21.5 8.5t21.5 -8.5t8.5 -21.5v-390zM136 536q0 -10 -7 -17t-17 -7q-14 0 -25 16l-69 97q-6 8 -6 17q0 10 7.5 16.5t17.5 6.5q14 0 21 -11l72 -102q6 -9 6 -16z" />
    <glyph glyph-name="iacute" unicode="&#xed;" horiz-adv-x="220" 
d="M140 22q0 -13 -8.5 -21.5t-21.5 -8.5t-21.5 8.5t-8.5 21.5v390q0 13 8.5 21.5t21.5 8.5t21.5 -8.5t8.5 -21.5v-390zM81 536q0 7 6 16l72 102q7 11 21 11q10 0 17.5 -6t7.5 -17q0 -9 -6 -17l-69 -97q-12 -16 -25 -16q-10 0 -17 7t-7 17z" />
    <glyph glyph-name="icircumflex" unicode="&#xee;" horiz-adv-x="220" 
d="M140 22q0 -13 -8.5 -21.5t-21.5 -8.5t-21.5 8.5t-8.5 21.5v390q0 13 8.5 21.5t21.5 8.5t21.5 -8.5t8.5 -21.5v-390zM129 638l95 -88q9 -9 9 -19q0 -8 -7 -14t-16 -6q-8 0 -16 6l-84 74l-84 -74q-8 -6 -16 -6q-9 0 -16 6t-7 14q0 10 9 19l95 88q8 8 19 8t19 -8z" />
    <glyph glyph-name="idieresis" unicode="&#xef;" horiz-adv-x="220" 
d="M140 22q0 -13 -8.5 -21.5t-21.5 -8.5t-21.5 8.5t-8.5 21.5v390q0 13 8.5 21.5t21.5 8.5t21.5 -8.5t8.5 -21.5v-390zM-18 565q0 17 12 28.5t28 11.5t28 -11.5t12 -28.5t-12 -28.5t-28 -11.5t-28 11.5t-12 28.5zM148 565q0 17 12 28.5t28 11.5t28 -11.5t12 -28.5t-12 -28.5
t-28 -11.5t-28 11.5t-12 28.5z" />
    <glyph glyph-name="eth" unicode="&#xf0;" horiz-adv-x="544" 
d="M320 589l50 42q9 7 17 7t15.5 -7.5t7.5 -15.5q0 -11 -10 -19l-45 -38q137 -126 137 -333q0 -98 -58.5 -167.5t-162.5 -69.5q-55 0 -98 19.5t-68 51.5t-37.5 68.5t-12.5 73.5q0 93 59.5 151t151.5 58q52 0 98.5 -25.5t73.5 -67.5q-26 124 -120 211l-61 -51q-7 -6 -17 -6
t-17 6.5t-7 15.5q0 11 11 20l56 46q-44 37 -121 77q-13 6 -13 21q0 9 6.5 15t16.5 6q6 0 12 -3q75 -33 136 -86zM113 201q0 -71 44 -118.5t114 -47.5q74 0 118 49t44 116q0 74 -47.5 118.5t-111.5 44.5q-76 0 -118.5 -44t-42.5 -118z" />
    <glyph glyph-name="ntilde" unicode="&#xf1;" horiz-adv-x="565" 
d="M490 245v-223q0 -13 -8.5 -21.5t-21.5 -8.5t-21.5 8.5t-8.5 21.5v222q0 69 -36 108t-104 39q-65 0 -107.5 -44t-42.5 -116v-209q0 -13 -8.5 -21.5t-21.5 -8.5t-21.5 8.5t-8.5 21.5v390q0 13 8.5 21.5t21.5 8.5t21.5 -8.5t8.5 -21.5v-52q50 86 163 86q86 0 136.5 -56
t50.5 -145zM338 519q-22 0 -59 21q-33 18 -47 18q-21 0 -37 -19l-11 -12q-9 -9 -19 -9q-9 0 -16 6t-7 15t6 16l10 13q30 37 74 37q26 0 51 -14q6 -3 16 -9t15 -8.5t11.5 -5t11.5 -2.5q14 0 35 21l10 10q9 9 19 9q9 0 16 -5.5t7 -14.5q0 -10 -6 -17q-1 -2 -3 -4.5t-5 -5.5
t-4 -5q-32 -35 -68 -35z" />
    <glyph glyph-name="ograve" unicode="&#xf2;" horiz-adv-x="560" 
d="M508 217q0 -97 -64.5 -163t-163.5 -66t-163.5 66t-64.5 163t64.5 163t163.5 66t163.5 -66t64.5 -163zM448 217q0 76 -48.5 126.5t-119.5 50.5t-119.5 -50.5t-48.5 -126.5t48.5 -126.5t119.5 -50.5t119.5 50.5t48.5 126.5zM299 536q0 -10 -7 -17t-17 -7q-14 0 -25 16
l-69 97q-6 8 -6 17q0 10 7.5 16.5t17.5 6.5q14 0 21 -11l72 -102q6 -9 6 -16z" />
    <glyph glyph-name="oacute" unicode="&#xf3;" horiz-adv-x="560" 
d="M508 217q0 -97 -64.5 -163t-163.5 -66t-163.5 66t-64.5 163t64.5 163t163.5 66t163.5 -66t64.5 -163zM448 217q0 76 -48.5 126.5t-119.5 50.5t-119.5 -50.5t-48.5 -126.5t48.5 -126.5t119.5 -50.5t119.5 50.5t48.5 126.5zM236 536q0 7 6 16l72 102q7 11 21 11
q10 0 17.5 -6t7.5 -17q0 -9 -6 -17l-69 -97q-12 -16 -25 -16q-10 0 -17 7t-7 17z" />
    <glyph glyph-name="ocircumflex" unicode="&#xf4;" horiz-adv-x="560" 
d="M508 217q0 -97 -64.5 -163t-163.5 -66t-163.5 66t-64.5 163t64.5 163t163.5 66t163.5 -66t64.5 -163zM448 217q0 76 -48.5 126.5t-119.5 50.5t-119.5 -50.5t-48.5 -126.5t48.5 -126.5t119.5 -50.5t119.5 50.5t48.5 126.5zM299 638l95 -88q9 -9 9 -19q0 -8 -7 -14t-16 -6
q-8 0 -16 6l-84 74l-84 -74q-8 -6 -16 -6q-9 0 -16 6t-7 14q0 10 9 19l95 88q8 8 19 8t19 -8z" />
    <glyph glyph-name="otilde" unicode="&#xf5;" horiz-adv-x="560" 
d="M508 217q0 -97 -64.5 -163t-163.5 -66t-163.5 66t-64.5 163t64.5 163t163.5 66t163.5 -66t64.5 -163zM448 217q0 76 -48.5 126.5t-119.5 50.5t-119.5 -50.5t-48.5 -126.5t48.5 -126.5t119.5 -50.5t119.5 50.5t48.5 126.5zM344 519q-22 0 -59 21q-33 18 -47 18
q-21 0 -37 -19l-11 -12q-9 -9 -19 -9q-9 0 -16 6t-7 15t6 16l10 13q30 37 74 37q26 0 51 -14q6 -3 16 -9t15 -8.5t11.5 -5t11.5 -2.5q14 0 35 21l10 10q9 9 19 9q9 0 16 -5.5t7 -14.5q0 -10 -6 -17q-1 -2 -3 -4.5t-5 -5.5t-4 -5q-32 -35 -68 -35z" />
    <glyph glyph-name="odieresis" unicode="&#xf6;" horiz-adv-x="560" 
d="M508 217q0 -97 -64.5 -163t-163.5 -66t-163.5 66t-64.5 163t64.5 163t163.5 66t163.5 -66t64.5 -163zM448 217q0 76 -48.5 126.5t-119.5 50.5t-119.5 -50.5t-48.5 -126.5t48.5 -126.5t119.5 -50.5t119.5 50.5t48.5 126.5zM152 565q0 17 12 28.5t28 11.5t28 -11.5
t12 -28.5t-12 -28.5t-28 -11.5t-28 11.5t-12 28.5zM318 565q0 17 12 28.5t28 11.5t28 -11.5t12 -28.5t-12 -28.5t-28 -11.5t-28 11.5t-12 28.5z" />
    <glyph glyph-name="divide" unicode="&#xf7;" horiz-adv-x="570" 
d="M476 296h-382q-12 0 -20.5 7.5t-8.5 19.5t8.5 19.5t20.5 7.5h382q12 0 20.5 -7.5t8.5 -19.5t-8.5 -19.5t-20.5 -7.5zM243 147q0 17 12.5 29.5t29.5 12.5t29.5 -12.5t12.5 -29.5t-12.5 -29.5t-29.5 -12.5t-29.5 12.5t-12.5 29.5zM243 499q0 17 12.5 29.5t29.5 12.5
t29.5 -12.5t12.5 -29.5t-12.5 -29.5t-29.5 -12.5t-29.5 12.5t-12.5 29.5z" />
    <glyph glyph-name="oslash" unicode="&#xf8;" horiz-adv-x="560" 
d="M58 -29l63 79q-69 64 -69 167q0 97 64.5 163t163.5 66q70 0 128 -37l63 79q6 8 16 8q19 0 21 -18q0 -8 -5 -14l-64 -80q69 -67 69 -167q0 -97 -64.5 -163t-163.5 -66q-74 0 -128 37l-62 -77q-9 -10 -17 -10q-7 0 -14 5t-7 13q0 7 6 15zM448 217q0 72 -45 122l-217 -271
q42 -28 94 -28q71 0 119.5 50.5t48.5 126.5zM112 217q0 -72 44 -123l217 272q-40 28 -93 28q-71 0 -119.5 -50.5t-48.5 -126.5z" />
    <glyph glyph-name="ugrave" unicode="&#xf9;" horiz-adv-x="565" 
d="M75 189v223q0 13 8.5 21.5t21.5 8.5t21.5 -8.5t8.5 -21.5v-222q0 -69 36 -108t104 -39q65 0 107.5 44t42.5 116v209q0 13 8.5 21.5t21.5 8.5t21.5 -8.5t8.5 -21.5v-390q0 -13 -8.5 -21.5t-21.5 -8.5t-21.5 8.5t-8.5 21.5v52q-50 -86 -163 -86q-86 0 -136.5 56t-50.5 145z
M327 536q0 -10 -7 -17t-17 -7q-14 0 -25 16l-69 97q-6 8 -6 17q0 10 7.5 16.5t17.5 6.5q14 0 21 -11l72 -102q6 -9 6 -16z" />
    <glyph glyph-name="uacute" unicode="&#xfa;" horiz-adv-x="565" 
d="M75 189v223q0 13 8.5 21.5t21.5 8.5t21.5 -8.5t8.5 -21.5v-222q0 -69 36 -108t104 -39q65 0 107.5 44t42.5 116v209q0 13 8.5 21.5t21.5 8.5t21.5 -8.5t8.5 -21.5v-390q0 -13 -8.5 -21.5t-21.5 -8.5t-21.5 8.5t-8.5 21.5v52q-50 -86 -163 -86q-86 0 -136.5 56t-50.5 145z
M242 536q0 7 6 16l72 102q7 11 21 11q10 0 17.5 -6t7.5 -17q0 -9 -6 -17l-69 -97q-12 -16 -25 -16q-10 0 -17 7t-7 17z" />
    <glyph glyph-name="ucircumflex" unicode="&#xfb;" horiz-adv-x="565" 
d="M75 189v223q0 13 8.5 21.5t21.5 8.5t21.5 -8.5t8.5 -21.5v-222q0 -69 36 -108t104 -39q65 0 107.5 44t42.5 116v209q0 13 8.5 21.5t21.5 8.5t21.5 -8.5t8.5 -21.5v-390q0 -13 -8.5 -21.5t-21.5 -8.5t-21.5 8.5t-8.5 21.5v52q-50 -86 -163 -86q-86 0 -136.5 56t-50.5 145z
M304 638l95 -88q9 -9 9 -19q0 -8 -7 -14t-16 -6t-16 6l-84 74l-84 -74q-8 -6 -16 -6q-9 0 -16 6t-7 14q0 10 9 19l95 88q8 8 19 8t19 -8z" />
    <glyph glyph-name="udieresis" unicode="&#xfc;" horiz-adv-x="565" 
d="M75 189v223q0 13 8.5 21.5t21.5 8.5t21.5 -8.5t8.5 -21.5v-222q0 -69 36 -108t104 -39q65 0 107.5 44t42.5 116v209q0 13 8.5 21.5t21.5 8.5t21.5 -8.5t8.5 -21.5v-390q0 -13 -8.5 -21.5t-21.5 -8.5t-21.5 8.5t-8.5 21.5v52q-50 -86 -163 -86q-86 0 -136.5 56t-50.5 145z
M160 565q0 17 12 28.5t28 11.5t28 -11.5t12 -28.5t-12 -28.5t-28 -11.5t-28 11.5t-12 28.5zM326 565q0 17 12 28.5t28 11.5t28 -11.5t12 -28.5t-12 -28.5t-28 -11.5t-28 11.5t-12 28.5z" />
    <glyph glyph-name="yacute" unicode="&#xfd;" horiz-adv-x="433" 
d="M418 415q0 -5 -3 -13l-147 -356q-68 -163 -191 -236q-8 -5 -18 -5q-12 0 -19 7t-7 18q0 15 18 25q84 58 136 148l-170 397q-4 10 -4 15q0 11 7.5 19t20.5 8q18 0 26 -19l151 -356l148 358q7 17 25 17q12 0 19.5 -7.5t7.5 -19.5zM180 536q0 7 6 16l72 102q7 11 21 11
q10 0 17.5 -6t7.5 -17q0 -9 -6 -17l-69 -97q-12 -16 -25 -16q-10 0 -17 7t-7 17z" />
    <glyph glyph-name="thorn" unicode="&#xfe;" horiz-adv-x="590" 
d="M140 644v-290q61 92 179 92q92 0 155.5 -65t63.5 -164t-63.5 -164t-155.5 -65q-118 0 -179 92v-245q0 -13 -8.5 -21.5t-21.5 -8.5t-21.5 8.5t-8.5 21.5v809q0 13 8.5 21.5t21.5 8.5t21.5 -8.5t8.5 -21.5zM478 217q0 78 -46.5 128t-121.5 50t-122.5 -51.5t-47.5 -126.5
t47.5 -126.5t122.5 -51.5t121.5 50t46.5 128z" />
    <glyph glyph-name="ydieresis" unicode="&#xff;" horiz-adv-x="433" 
d="M418 415q0 -5 -3 -13l-147 -356q-68 -163 -191 -236q-8 -5 -18 -5q-12 0 -19 7t-7 18q0 15 18 25q84 58 136 148l-170 397q-4 10 -4 15q0 11 7.5 19t20.5 8q18 0 26 -19l151 -356l148 358q7 17 25 17q12 0 19.5 -7.5t7.5 -19.5zM95 565q0 17 11.5 28.5t28.5 11.5
t28.5 -11.5t11.5 -28.5t-11.5 -28.5t-28.5 -11.5t-28.5 11.5t-11.5 28.5zM261 565q0 17 11.5 28.5t28.5 11.5t28.5 -11.5t11.5 -28.5t-11.5 -28.5t-28.5 -11.5t-28.5 11.5t-11.5 28.5z" />
    <glyph glyph-name="Amacron" unicode="&#x100;" horiz-adv-x="716" 
d="M386 654l278 -621q4 -8 4 -14q0 -12 -8 -19.5t-21 -7.5q-19 0 -27 19l-82 183h-344l-82 -183q-8 -19 -27 -19q-13 0 -21 7.5t-8 19.5q0 6 4 14l278 621q9 20 28 20t28 -20zM209 247h298l-149 343zM481 792q9 0 15.5 -6.5t6.5 -15.5t-6.5 -15.5t-15.5 -6.5h-245
q-9 0 -15.5 6.5t-6.5 15.5t6.5 15.5t15.5 6.5h245z" />
    <glyph glyph-name="amacron" unicode="&#x101;" horiz-adv-x="516" 
d="M441 22q0 -13 -8 -21.5t-22 -8.5t-22 8.5t-8 21.5v22q-50 -56 -149 -56q-79 0 -127 37t-48 94q0 60 50.5 96.5t133.5 36.5q46 0 83.5 -16t56.5 -38v59q0 71 -35.5 104.5t-109.5 33.5q-60 0 -123 -26q-9 -3 -14 -3q-26 0 -26 25q0 15 15 22q64 33 153 33q95 0 147.5 -49
t52.5 -139v-236zM381 119q0 39 -41 63.5t-95 24.5q-58 0 -93 -24t-35 -64t34 -63.5t90 -23.5q57 0 98.5 24.5t41.5 62.5zM370 582q9 0 15.5 -6.5t6.5 -15.5t-6.5 -15.5t-15.5 -6.5h-225q-9 0 -15.5 6.5t-6.5 15.5t6.5 15.5t15.5 6.5h225z" />
    <glyph glyph-name="Abreve" unicode="&#x102;" horiz-adv-x="716" 
d="M386 654l278 -621q4 -8 4 -14q0 -12 -8 -19.5t-21 -7.5q-19 0 -27 19l-82 183h-344l-82 -183q-8 -19 -27 -19q-13 0 -21 7.5t-8 19.5q0 6 4 14l278 621q9 20 28 20t28 -20zM209 247h298l-149 343zM454 816q0 10 7 16.5t17 6.5q9 0 16 -6.5t7 -15.5q0 -96 -134 -96
t-134 96q0 9 7 15.5t16 6.5q10 0 17 -6.5t7 -16.5q0 -54 87 -54t87 54z" />
    <glyph glyph-name="abreve" unicode="&#x103;" horiz-adv-x="516" 
d="M441 22q0 -13 -8 -21.5t-22 -8.5t-22 8.5t-8 21.5v22q-50 -56 -149 -56q-79 0 -127 37t-48 94q0 60 50.5 96.5t133.5 36.5q46 0 83.5 -16t56.5 -38v59q0 71 -35.5 104.5t-109.5 33.5q-60 0 -123 -26q-9 -3 -14 -3q-26 0 -26 25q0 15 15 22q64 33 153 33q95 0 147.5 -49
t52.5 -139v-236zM381 119q0 39 -41 63.5t-95 24.5q-58 0 -93 -24t-35 -64t34 -63.5t90 -23.5q57 0 98.5 24.5t41.5 62.5zM335 615q0 10 7 16.5t17 6.5q9 0 16 -6.5t7 -15.5q0 -52 -32.5 -79t-91.5 -27t-91.5 27t-32.5 79q0 9 7 15.5t16 6.5q10 0 17 -6.5t7 -16.5
q0 -33 17.5 -48.5t59.5 -15.5t59.5 15.5t17.5 48.5z" />
    <glyph glyph-name="Aogonek" unicode="&#x104;" horiz-adv-x="716" 
d="M386 654l278 -621q4 -8 4 -14q0 -13 -13 -23q-50 -31 -74.5 -55t-24.5 -52q0 -32 41 -32q14 0 36 6q13 4 20.5 -1.5t7.5 -15.5q0 -14 -14 -20q-24 -11 -58 -11q-39 0 -61 18.5t-22 50.5q0 67 112 117q-6 8 -7 12l-81 181h-344l-82 -183q-8 -19 -27 -19q-13 0 -21 7.5
t-8 19.5q0 6 4 14l278 621q9 20 28 20t28 -20zM209 247h298l-149 343z" />
    <glyph glyph-name="aogonek" unicode="&#x105;" horiz-adv-x="516" 
d="M405 -137q13 4 20.5 -1.5t7.5 -15.5q0 -14 -14 -20q-24 -11 -61 -11q-80 0 -80 66q0 40 32 70t78 49q-7 7 -7 22v22q-50 -56 -149 -56q-79 0 -127 37t-48 94q0 60 50.5 96.5t133.5 36.5q46 0 83.5 -16t56.5 -38v59q0 71 -35.5 104.5t-109.5 33.5q-60 0 -123 -26
q-9 -3 -14 -3q-26 0 -26 25q0 15 15 22q64 33 153 33q95 0 147.5 -49t52.5 -139v-236q0 -17 -13 -25l-18 -12t-22.5 -15.5t-21 -16.5t-20.5 -20t-12.5 -21t-5.5 -24q0 -31 41 -31q14 0 36 6zM381 119q0 39 -41 63.5t-95 24.5q-58 0 -93 -24t-35 -64t34 -63.5t90 -23.5
q57 0 98.5 24.5t41.5 62.5z" />
    <glyph glyph-name="Cacute" unicode="&#x106;" horiz-adv-x="705" 
d="M391 678q160 0 256 -126q8 -12 8 -20q0 -12 -8 -19.5t-20 -7.5q-13 0 -21 11q-41 52 -91 79.5t-124 27.5q-125 0 -199 -85t-74 -205t74 -205t199 -85q74 0 124 27.5t91 79.5q8 11 21 11q12 0 20 -7.5t8 -19.5q0 -8 -8 -20q-96 -126 -256 -126q-148 0 -240.5 99.5
t-92.5 245.5t92.5 245.5t240.5 99.5zM348 765l55 62q10 12 24 12q11 0 18 -7t7 -16q0 -11 -8 -20l-55 -59q-13 -14 -24 -14q-10 0 -17.5 7t-7.5 16t8 19z" />
    <glyph glyph-name="cacute" unicode="&#x107;" horiz-adv-x="507" 
d="M282 446q58 0 105 -24t71 -60q6 -9 6 -18q0 -11 -8.5 -18t-20.5 -7q-11 0 -21 12q-53 63 -132 63q-73 0 -121 -51.5t-48 -125.5t48 -125.5t121 -51.5q79 0 132 63q10 12 21 12q12 0 20.5 -7t8.5 -18q0 -9 -6 -18q-24 -36 -71 -60t-105 -24q-98 0 -163.5 65.5t-65.5 163.5
t65.5 163.5t163.5 65.5zM229 536q0 7 6 16l72 102q7 11 21 11q10 0 17.5 -6t7.5 -17q0 -9 -6 -17l-69 -97q-12 -16 -25 -16q-10 0 -17 7t-7 17z" />
    <glyph glyph-name="Ccircumflex" unicode="&#x108;" horiz-adv-x="705" 
d="M391 678q160 0 256 -126q8 -12 8 -20q0 -12 -8 -19.5t-20 -7.5q-13 0 -21 11q-41 52 -91 79.5t-124 27.5q-125 0 -199 -85t-74 -205t74 -205t199 -85q74 0 124 27.5t91 79.5q8 11 21 11q12 0 20 -7.5t8 -19.5q0 -8 -8 -20q-96 -126 -256 -126q-148 0 -240.5 99.5
t-92.5 245.5t92.5 245.5t240.5 99.5zM406 831l91 -69q9 -9 9 -19q0 -8 -7 -14t-16 -6t-16 6l-80 57l-80 -57q-7 -6 -16 -6t-16 6t-7 14q0 10 9 19l91 69q11 8 19 8t19 -8z" />
    <glyph glyph-name="ccircumflex" unicode="&#x109;" horiz-adv-x="507" 
d="M282 446q58 0 105 -24t71 -60q6 -9 6 -18q0 -11 -8.5 -18t-20.5 -7q-11 0 -21 12q-53 63 -132 63q-73 0 -121 -51.5t-48 -125.5t48 -125.5t121 -51.5q79 0 132 63q10 12 21 12q12 0 20.5 -7t8.5 -18q0 -9 -6 -18q-24 -36 -71 -60t-105 -24q-98 0 -163.5 65.5t-65.5 163.5
t65.5 163.5t163.5 65.5zM307 638l95 -88q9 -9 9 -19q0 -8 -7 -14t-16 -6q-8 0 -16 6l-84 74l-84 -74q-7 -6 -16 -6t-16 6t-7 14q0 10 9 19l95 88q8 8 19 8t19 -8z" />
    <glyph glyph-name="Cdotaccent" unicode="&#x10a;" horiz-adv-x="705" 
d="M391 678q160 0 256 -126q8 -12 8 -20q0 -12 -8 -19.5t-20 -7.5q-13 0 -21 11q-41 52 -91 79.5t-124 27.5q-125 0 -199 -85t-74 -205t74 -205t199 -85q74 0 124 27.5t91 79.5q8 11 21 11q12 0 20 -7.5t8 -19.5q0 -8 -8 -20q-96 -126 -256 -126q-148 0 -240.5 99.5
t-92.5 245.5t92.5 245.5t240.5 99.5zM354 779q0 16 11 27t27 11t27 -11t11 -27t-11 -27t-27 -11t-27 11t-11 27z" />
    <glyph glyph-name="cdotaccent" unicode="&#x10b;" horiz-adv-x="507" 
d="M282 446q58 0 105 -24t71 -60q6 -9 6 -18q0 -11 -8.5 -18t-20.5 -7q-11 0 -21 12q-53 63 -132 63q-73 0 -121 -51.5t-48 -125.5t48 -125.5t121 -51.5q79 0 132 63q10 12 21 12q12 0 20.5 -7t8.5 -18q0 -9 -6 -18q-24 -36 -71 -60t-105 -24q-98 0 -163.5 65.5t-65.5 163.5
t65.5 163.5t163.5 65.5zM246 566q0 16 11 27t27 11t27 -11t11 -27t-11 -27t-27 -11t-27 11t-11 27z" />
    <glyph glyph-name="Ccaron" unicode="&#x10c;" horiz-adv-x="705" 
d="M391 678q160 0 256 -126q8 -12 8 -20q0 -12 -8 -19.5t-20 -7.5q-13 0 -21 11q-41 52 -91 79.5t-124 27.5q-125 0 -199 -85t-74 -205t74 -205t199 -85q74 0 124 27.5t91 79.5q8 11 21 11q12 0 20 -7.5t8 -19.5q0 -8 -8 -20q-96 -126 -256 -126q-148 0 -240.5 99.5
t-92.5 245.5t92.5 245.5t240.5 99.5zM501 798l-91 -69q-11 -8 -19 -8t-19 8l-91 69q-9 9 -9 19q0 8 7 14t16 6t16 -6l80 -57l80 57q8 6 16 6q9 0 16 -6t7 -14q0 -10 -9 -19z" />
    <glyph glyph-name="ccaron" unicode="&#x10d;" horiz-adv-x="507" 
d="M282 446q58 0 105 -24t71 -60q6 -9 6 -18q0 -11 -8.5 -18t-20.5 -7q-11 0 -21 12q-53 63 -132 63q-73 0 -121 -51.5t-48 -125.5t48 -125.5t121 -51.5q79 0 132 63q10 12 21 12q12 0 20.5 -7t8.5 -18q0 -9 -6 -18q-24 -36 -71 -60t-105 -24q-98 0 -163.5 65.5t-65.5 163.5
t65.5 163.5t163.5 65.5zM398 604l-95 -88q-8 -8 -19 -8t-19 8l-95 88q-9 9 -9 19q0 8 7 14t16 6q8 0 16 -6l84 -74l84 74q8 6 16 6q9 0 16 -6t7 -14q0 -10 -9 -19z" />
    <glyph glyph-name="Dcaron" unicode="&#x10e;" horiz-adv-x="699" 
d="M647 333q0 -142 -91.5 -237.5t-240.5 -95.5h-190q-13 0 -21.5 9t-8.5 21v606q0 13 8.5 21.5t21.5 8.5h190q149 0 240.5 -95.5t91.5 -237.5zM587 333q0 121 -74.5 200t-201.5 79h-156v-558h156q127 0 201.5 79t74.5 200zM439 798l-91 -69q-11 -8 -19 -8t-19 8l-91 69
q-9 9 -9 19q0 8 7 14t16 6t16 -6l80 -57l80 57q7 6 16 6t16 -6t7 -14q0 -10 -9 -19z" />
    <glyph glyph-name="dcaron" unicode="&#x10f;" horiz-adv-x="735" 
d="M450 22v58q-61 -92 -179 -92q-92 0 -155.5 65t-63.5 164t63.5 164t155.5 65q118 0 179 -92v290q0 13 8.5 21.5t21.5 8.5t21.5 -8.5t8.5 -21.5v-622q0 -13 -8.5 -21.5t-21.5 -8.5t-21.5 8.5t-8.5 21.5zM112 217q0 -78 46.5 -128t121.5 -50t122.5 51.5t47.5 126.5
t-47.5 126.5t-122.5 51.5t-121.5 -50t-46.5 -128zM700 614q0 -65 -17 -119q-8 -27 -30 -27q-25 0 -25 24q0 5 5 20q15 46 15 98v36q0 28 26 28t26 -28v-32z" />
    <glyph glyph-name="Dcroat" unicode="&#x110;" horiz-adv-x="811" 
d="M695 333q0 -142 -91.5 -237.5t-240.5 -95.5h-190q-13 0 -21.5 9t-8.5 21v277h-77q-11 0 -19.5 7.5t-8.5 18.5t8.5 18.5t19.5 7.5h77v277q0 13 8.5 21.5t21.5 8.5h190q149 0 240.5 -95.5t91.5 -237.5zM363 359q11 0 19.5 -7.5t8.5 -18.5t-8.5 -18.5t-19.5 -7.5h-160v-253
h156q127 0 201.5 79t74.5 200t-74.5 200t-201.5 79h-156v-253h160z" />
    <glyph glyph-name="dcroat" unicode="&#x111;" horiz-adv-x="651" 
d="M318 525q-26 0 -26 23q0 22 26 22h132v74q0 13 8.5 21.5t21.5 8.5t21.5 -8.5t8.5 -21.5v-74h83q26 0 26 -22q0 -23 -26 -23h-83v-503q0 -13 -8.5 -21.5t-21.5 -8.5t-21.5 8.5t-8.5 21.5v58q-61 -92 -179 -92q-92 0 -155.5 65t-63.5 164t63.5 164t155.5 65q118 0 179 -92
v171h-132zM112 217q0 -78 46.5 -128t121.5 -50t122.5 51.5t47.5 126.5t-47.5 126.5t-122.5 51.5t-121.5 -50t-46.5 -128z" />
    <glyph glyph-name="Emacron" unicode="&#x112;" horiz-adv-x="583" 
d="M155 317v-263h356q11 0 19 -8t8 -19t-8 -19t-19 -8h-386q-13 0 -21.5 8.5t-8.5 21.5v606q0 13 8.5 21.5t21.5 8.5h385q11 0 19 -8t8 -19t-8 -19t-19 -8h-355v-241h206q11 0 19 -8t8 -19t-8 -19t-19 -8h-206zM443 792q9 0 15.5 -6.5t6.5 -15.5t-6.5 -15.5t-15.5 -6.5h-245
q-9 0 -15.5 6.5t-6.5 15.5t6.5 15.5t15.5 6.5h245z" />
    <glyph glyph-name="emacron" unicode="&#x113;" horiz-adv-x="538" 
d="M275 446q92 0 151 -63.5t59 -160.5q0 -10 -7.5 -17.5t-17.5 -7.5h-347q2 -64 47.5 -111t120.5 -47q83 0 136 63q11 13 23 13q11 0 18 -7.5t7 -17.5q0 -9 -6 -18q-27 -37 -74 -60.5t-104 -23.5q-104 0 -166.5 67t-62.5 162q0 94 63 161.5t160 67.5zM430 247
q-6 64 -49 106.5t-106 42.5q-65 0 -109.5 -43t-50.5 -106h315zM393 582q9 0 15.5 -6.5t6.5 -15.5t-6.5 -15.5t-15.5 -6.5h-225q-9 0 -15.5 6.5t-6.5 15.5t6.5 15.5t15.5 6.5h225z" />
    <glyph glyph-name="Ebreve" unicode="&#x114;" horiz-adv-x="583" 
d="M155 317v-263h356q11 0 19 -8t8 -19t-8 -19t-19 -8h-386q-13 0 -21.5 8.5t-8.5 21.5v606q0 13 8.5 21.5t21.5 8.5h385q11 0 19 -8t8 -19t-8 -19t-19 -8h-355v-241h206q11 0 19 -8t8 -19t-8 -19t-19 -8h-206zM403 816q0 10 7 16.5t17 6.5q9 0 16 -6.5t7 -15.5
q0 -96 -134 -96t-134 96q0 9 7 15.5t16 6.5q10 0 17 -6.5t7 -16.5q0 -54 87 -54t87 54z" />
    <glyph glyph-name="ebreve" unicode="&#x115;" horiz-adv-x="538" 
d="M275 446q92 0 151 -63.5t59 -160.5q0 -10 -7.5 -17.5t-17.5 -7.5h-347q2 -64 47.5 -111t120.5 -47q83 0 136 63q11 13 23 13q11 0 18 -7.5t7 -17.5q0 -9 -6 -18q-27 -37 -74 -60.5t-104 -23.5q-104 0 -166.5 67t-62.5 162q0 94 63 161.5t160 67.5zM430 247
q-6 64 -49 106.5t-106 42.5q-65 0 -109.5 -43t-50.5 -106h315zM355 615q0 10 7 16.5t17 6.5q9 0 16 -6.5t7 -15.5q0 -52 -32.5 -79t-91.5 -27t-91.5 27t-32.5 79q0 9 7 15.5t16 6.5q10 0 17 -6.5t7 -16.5q0 -33 17.5 -48.5t59.5 -15.5t59.5 15.5t17.5 48.5z" />
    <glyph glyph-name="Edotaccent" unicode="&#x116;" horiz-adv-x="583" 
d="M155 317v-263h356q11 0 19 -8t8 -19t-8 -19t-19 -8h-386q-13 0 -21.5 8.5t-8.5 21.5v606q0 13 8.5 21.5t21.5 8.5h385q11 0 19 -8t8 -19t-8 -19t-19 -8h-355v-241h206q11 0 19 -8t8 -19t-8 -19t-19 -8h-206zM277 779q0 16 11 27t27 11t27 -11t11 -27t-11 -27t-27 -11
t-27 11t-11 27z" />
    <glyph glyph-name="edotaccent" unicode="&#x117;" horiz-adv-x="538" 
d="M275 446q92 0 151 -63.5t59 -160.5q0 -10 -7.5 -17.5t-17.5 -7.5h-347q2 -64 47.5 -111t120.5 -47q83 0 136 63q11 13 23 13q11 0 18 -7.5t7 -17.5q0 -9 -6 -18q-27 -37 -74 -60.5t-104 -23.5q-104 0 -166.5 67t-62.5 162q0 94 63 161.5t160 67.5zM430 247
q-6 64 -49 106.5t-106 42.5q-65 0 -109.5 -43t-50.5 -106h315zM237 566q0 16 11 27t27 11t27 -11t11 -27t-11 -27t-27 -11t-27 11t-11 27z" />
    <glyph glyph-name="Eogonek" unicode="&#x118;" horiz-adv-x="583" 
d="M490 -137q13 4 20.5 -1.5t7.5 -15.5q0 -14 -14 -20q-24 -11 -58 -11q-39 0 -61 18.5t-22 50.5q0 70 104 116h-342q-13 0 -21.5 8.5t-8.5 21.5v606q0 13 8.5 21.5t21.5 8.5h385q11 0 19 -8t8 -19t-8 -19t-19 -8h-355v-241h206q11 0 19 -8t8 -19t-8 -19t-19 -8h-206v-263
h356q11 0 19 -8t8 -19q0 -16 -16 -25q-26 -15 -41 -24.5t-33 -24.5t-26.5 -31t-8.5 -34q0 -31 41 -31q14 0 36 6z" />
    <glyph glyph-name="eogonek" unicode="&#x119;" horiz-adv-x="538" 
d="M347 -137q13 4 20.5 -1.5t7.5 -15.5q0 -14 -14 -20q-24 -11 -58 -11q-39 0 -61 18t-22 50q0 63 100 108q-20 -3 -39 -3q-104 0 -166.5 67t-62.5 162q0 94 63 161.5t160 67.5q92 0 151 -63.5t59 -160.5q0 -10 -7.5 -17.5t-17.5 -7.5h-347q2 -64 47.5 -111t120.5 -47
q83 0 136 63q11 13 23 13t19 -7t7 -18q0 -8 -7 -18q-20 -26 -56 -50q-38 -24 -61.5 -41t-47.5 -44t-24 -49q0 -31 41 -31q14 0 36 6zM430 247q-6 64 -49 106.5t-106 42.5q-65 0 -109.5 -43t-50.5 -106h315z" />
    <glyph glyph-name="Ecaron" unicode="&#x11a;" horiz-adv-x="583" 
d="M155 317v-263h356q11 0 19 -8t8 -19t-8 -19t-19 -8h-386q-13 0 -21.5 8.5t-8.5 21.5v606q0 13 8.5 21.5t21.5 8.5h385q11 0 19 -8t8 -19t-8 -19t-19 -8h-355v-241h206q11 0 19 -8t8 -19t-8 -19t-19 -8h-206zM425 798l-91 -69q-11 -8 -19 -8t-19 8l-91 69q-9 9 -9 19
q0 8 7 14t16 6t16 -6l80 -57l80 57q7 6 16 6t16 -6t7 -14q0 -10 -9 -19z" />
    <glyph glyph-name="ecaron" unicode="&#x11b;" horiz-adv-x="538" 
d="M275 446q92 0 151 -63.5t59 -160.5q0 -10 -7.5 -17.5t-17.5 -7.5h-347q2 -64 47.5 -111t120.5 -47q83 0 136 63q11 13 23 13q11 0 18 -7.5t7 -17.5q0 -9 -6 -18q-27 -37 -74 -60.5t-104 -23.5q-104 0 -166.5 67t-62.5 162q0 94 63 161.5t160 67.5zM430 247
q-6 64 -49 106.5t-106 42.5q-65 0 -109.5 -43t-50.5 -106h315zM391 604l-95 -88q-8 -8 -19 -8t-19 8l-95 88q-9 9 -9 19q0 8 7 14t16 6t16 -6l84 -74l84 74q8 6 16 6q9 0 16 -6t7 -14q0 -10 -9 -19z" />
    <glyph glyph-name="Gcircumflex" unicode="&#x11c;" horiz-adv-x="731" 
d="M669 123q0 -13 -8 -23q-44 -49 -114.5 -80.5t-155.5 -31.5q-81 0 -146 29.5t-105 79t-61 110t-21 126.5q0 147 94 246t239 99q142 0 230 -93q8 -10 8 -21t-7.5 -18.5t-19.5 -7.5q-13 0 -21 8q-80 77 -190 77q-121 0 -197 -84.5t-76 -205.5q0 -124 72.5 -209t202.5 -85
q133 0 218 85v148h-191q-11 0 -18.5 7.5t-7.5 18.5t7.5 18.5t18.5 7.5h220q12 0 20.5 -8t8.5 -20v-173zM406 831l91 -69q9 -9 9 -19q0 -8 -7 -14t-16 -6t-16 6l-80 57l-80 -57q-7 -6 -16 -6t-16 6t-7 14q0 10 9 19l91 69q11 8 19 8t19 -8z" />
    <glyph glyph-name="gcircumflex" unicode="&#x11d;" horiz-adv-x="590" 
d="M450 94q-26 -42 -74 -67t-102 -25q-94 0 -158 61.5t-64 160.5t64 160.5t158 61.5q61 0 107 -27.5t69 -64.5v58q0 13 8.5 21.5t21.5 8.5t21.5 -8.5t8.5 -21.5v-377q0 -106 -57 -168t-173 -62q-105 0 -178 45q-18 10 -18 26q0 22 23 22q10 0 26 -8q67 -36 147 -36
q88 0 129 47.5t41 129.5v63zM111 224q0 -78 47 -125.5t122 -47.5q71 0 120.5 51t49.5 122t-49.5 122t-120.5 51q-75 0 -122 -47.5t-47 -125.5zM318 638l95 -88q9 -9 9 -19q0 -8 -7 -14t-16 -6t-16 6l-84 74l-84 -74q-7 -6 -16 -6t-16 6t-7 14q0 10 9 19l95 88q8 8 19 8
t19 -8z" />
    <glyph glyph-name="Gbreve" unicode="&#x11e;" horiz-adv-x="731" 
d="M669 123q0 -13 -8 -23q-44 -49 -114.5 -80.5t-155.5 -31.5q-81 0 -146 29.5t-105 79t-61 110t-21 126.5q0 147 94 246t239 99q142 0 230 -93q8 -10 8 -21t-7.5 -18.5t-19.5 -7.5q-13 0 -21 8q-80 77 -190 77q-121 0 -197 -84.5t-76 -205.5q0 -124 72.5 -209t202.5 -85
q133 0 218 85v148h-191q-11 0 -18.5 7.5t-7.5 18.5t7.5 18.5t18.5 7.5h220q12 0 20.5 -8t8.5 -20v-173zM470 816q0 10 7 16.5t17 6.5q9 0 16 -6.5t7 -15.5q0 -96 -134 -96t-134 96q0 9 7 15.5t16 6.5q10 0 17 -6.5t7 -16.5q0 -54 87 -54t87 54z" />
    <glyph glyph-name="gbreve" unicode="&#x11f;" horiz-adv-x="590" 
d="M450 94q-26 -42 -74 -67t-102 -25q-94 0 -158 61.5t-64 160.5t64 160.5t158 61.5q61 0 107 -27.5t69 -64.5v58q0 13 8.5 21.5t21.5 8.5t21.5 -8.5t8.5 -21.5v-377q0 -106 -57 -168t-173 -62q-105 0 -178 45q-18 10 -18 26q0 22 23 22q10 0 26 -8q67 -36 147 -36
q88 0 129 47.5t41 129.5v63zM111 224q0 -78 47 -125.5t122 -47.5q71 0 120.5 51t49.5 122t-49.5 122t-120.5 51q-75 0 -122 -47.5t-47 -125.5zM376 615q0 10 7 16.5t17 6.5q9 0 16 -6.5t7 -15.5q0 -52 -32.5 -79t-91.5 -27t-91.5 27t-32.5 79q0 9 7 15.5t16 6.5
q10 0 17 -6.5t7 -16.5q0 -33 17.5 -48.5t59.5 -15.5t59.5 15.5t17.5 48.5z" />
    <glyph glyph-name="Gdotaccent" unicode="&#x120;" horiz-adv-x="731" 
d="M669 123q0 -13 -8 -23q-44 -49 -114.5 -80.5t-155.5 -31.5q-81 0 -146 29.5t-105 79t-61 110t-21 126.5q0 147 94 246t239 99q142 0 230 -93q8 -10 8 -21t-7.5 -18.5t-19.5 -7.5q-13 0 -21 8q-80 77 -190 77q-121 0 -197 -84.5t-76 -205.5q0 -124 72.5 -209t202.5 -85
q133 0 218 85v148h-191q-11 0 -18.5 7.5t-7.5 18.5t7.5 18.5t18.5 7.5h220q12 0 20.5 -8t8.5 -20v-173zM346 779q0 16 11 27t27 11t27 -11t11 -27t-11 -27t-27 -11t-27 11t-11 27z" />
    <glyph glyph-name="gdotaccent" unicode="&#x121;" horiz-adv-x="590" 
d="M450 94q-26 -42 -74 -67t-102 -25q-94 0 -158 61.5t-64 160.5t64 160.5t158 61.5q61 0 107 -27.5t69 -64.5v58q0 13 8.5 21.5t21.5 8.5t21.5 -8.5t8.5 -21.5v-377q0 -106 -57 -168t-173 -62q-105 0 -178 45q-18 10 -18 26q0 22 23 22q10 0 26 -8q67 -36 147 -36
q88 0 129 47.5t41 129.5v63zM111 224q0 -78 47 -125.5t122 -47.5q71 0 120.5 51t49.5 122t-49.5 122t-120.5 51q-75 0 -122 -47.5t-47 -125.5zM254 566q0 16 11 27t27 11t27 -11t11 -27t-11 -27t-27 -11t-27 11t-11 27z" />
    <glyph glyph-name="Gcommaaccent" unicode="&#x122;" horiz-adv-x="731" 
d="M669 123q0 -13 -8 -23q-44 -49 -114.5 -80.5t-155.5 -31.5q-81 0 -146 29.5t-105 79t-61 110t-21 126.5q0 147 94 246t239 99q142 0 230 -93q8 -10 8 -21t-7.5 -18.5t-19.5 -7.5q-13 0 -21 8q-80 77 -190 77q-121 0 -197 -84.5t-76 -205.5q0 -124 72.5 -209t202.5 -85
q133 0 218 85v148h-191q-11 0 -18.5 7.5t-7.5 18.5t7.5 18.5t18.5 7.5h220q12 0 20.5 -8t8.5 -20v-173zM437 -135q0 -65 -17 -119q-8 -27 -30 -27q-25 0 -25 24q0 5 5 20q15 46 15 98v36q0 28 26 28t26 -28v-32z" />
    <glyph glyph-name="gcommaaccent" unicode="&#x123;" horiz-adv-x="590" 
d="M259 578q0 60 17 114q8 27 30 27q25 0 25 -24q0 -5 -5 -20q-15 -46 -15 -93v-29q0 -28 -26 -28t-26 28v25zM450 94q-26 -42 -74 -67t-102 -25q-94 0 -158 61.5t-64 160.5t64 160.5t158 61.5q61 0 107 -27.5t69 -64.5v58q0 13 8.5 21.5t21.5 8.5t21.5 -8.5t8.5 -21.5v-377
q0 -106 -57 -168t-173 -62q-105 0 -178 45q-18 10 -18 26q0 22 23 22q10 0 26 -8q67 -36 147 -36q88 0 129 47.5t41 129.5v63zM111 224q0 -78 47 -125.5t122 -47.5q71 0 120.5 51t49.5 122t-49.5 122t-120.5 51q-75 0 -122 -47.5t-47 -125.5z" />
    <glyph glyph-name="Hcircumflex" unicode="&#x124;" horiz-adv-x="715" 
d="M95 22v622q0 13 8.5 21.5t21.5 8.5t21.5 -8.5t8.5 -21.5v-277h405v277q0 13 8.5 21.5t21.5 8.5t21.5 -8.5t8.5 -21.5v-622q0 -13 -8.5 -21.5t-21.5 -8.5t-21.5 8.5t-8.5 21.5v290h-405v-290q0 -13 -8.5 -21.5t-21.5 -8.5t-21.5 8.5t-8.5 21.5zM376 831l91 -69q9 -9 9 -19
q0 -8 -7 -14t-16 -6t-16 6l-80 57l-80 -57q-7 -6 -16 -6t-16 6t-7 14q0 10 9 19l91 69q11 8 19 8t19 -8z" />
    <glyph glyph-name="hcircumflex" unicode="&#x125;" horiz-adv-x="565" 
d="M490 245v-223q0 -13 -8.5 -21.5t-21.5 -8.5t-21.5 8.5t-8.5 21.5v222q0 69 -36 108t-104 39q-65 0 -107.5 -44t-42.5 -116v-209q0 -13 -8.5 -21.5t-21.5 -8.5t-21.5 8.5t-8.5 21.5v622q0 13 8.5 21.5t21.5 8.5t21.5 -8.5t8.5 -21.5v-284q50 86 163 86q86 0 136.5 -56
t50.5 -145zM130 831l91 -69q9 -9 9 -19q0 -8 -7 -14t-16 -6t-16 6l-80 57l-80 -57q-8 -6 -16 -6q-9 0 -16 6t-7 14q0 10 9 19l91 69q11 8 19 8t19 -8z" />
    <glyph glyph-name="Hbar" unicode="&#x126;" horiz-adv-x="791" 
d="M61 498q-26 0 -26 22t26 22h72v102q0 13 8.5 21.5t21.5 8.5t21.5 -8.5t8.5 -21.5v-102h405v102q0 13 8.5 21.5t21.5 8.5t21.5 -8.5t8.5 -21.5v-102h72q26 0 26 -22t-26 -22h-72v-476q0 -13 -8.5 -21.5t-21.5 -8.5t-21.5 8.5t-8.5 21.5v290h-405v-290q0 -13 -8.5 -21.5
t-21.5 -8.5t-21.5 8.5t-8.5 21.5v476h-72zM193 367h405v131h-405v-131z" />
    <glyph glyph-name="hbar" unicode="&#x127;" horiz-adv-x="599" 
d="M41 525q-26 0 -26 23q0 21 26 21h73v75q0 13 8.5 21.5t21.5 8.5t21.5 -8.5t8.5 -21.5v-75h142q26 0 26 -21q0 -23 -26 -23h-142v-165q50 86 163 86q86 0 136.5 -56t50.5 -145v-223q0 -13 -8.5 -21.5t-21.5 -8.5t-21.5 8.5t-8.5 21.5v222q0 69 -36 108t-104 39
q-65 0 -107.5 -44t-42.5 -116v-209q0 -13 -8.5 -21.5t-21.5 -8.5t-21.5 8.5t-8.5 21.5v503h-73z" />
    <glyph glyph-name="Itilde" unicode="&#x128;" horiz-adv-x="260" 
d="M160 22q0 -13 -8.5 -21.5t-21.5 -8.5t-21.5 8.5t-8.5 21.5v622q0 13 8.5 21.5t21.5 8.5t21.5 -8.5t8.5 -21.5v-622zM187 727q-22 0 -59 21q-33 18 -47 18q-21 0 -37 -19l-11 -12q-9 -9 -19 -9q-9 0 -16 6t-7 15t6 16l10 13q30 37 74 37q26 0 51 -14q6 -3 16 -9t15 -8.5
t11.5 -5t11.5 -2.5q14 0 35 21l10 10q9 9 19 9q9 0 16 -5.5t7 -14.5t-6 -17q-1 -2 -3 -4.5t-5 -5.5t-4 -5q-31 -35 -68 -35z" />
    <glyph glyph-name="itilde" unicode="&#x129;" horiz-adv-x="220" 
d="M140 22q0 -13 -8.5 -21.5t-21.5 -8.5t-21.5 8.5t-8.5 21.5v390q0 13 8.5 21.5t21.5 8.5t21.5 -8.5t8.5 -21.5v-390zM165 519q-22 0 -59 21q-33 18 -47 18q-21 0 -37 -19l-11 -12q-9 -9 -19 -9q-9 0 -16 6t-7 15t6 16l10 13q30 37 74 37q26 0 51 -14q6 -3 16 -9t15 -8.5
t11.5 -5t11.5 -2.5q14 0 35 21l10 10q9 9 19 9q9 0 16 -5.5t7 -14.5q0 -10 -6 -17q-1 -2 -3 -4.5t-5 -5.5t-4 -5q-31 -35 -68 -35z" />
    <glyph glyph-name="Imacron" unicode="&#x12a;" horiz-adv-x="260" 
d="M160 22q0 -13 -8.5 -21.5t-21.5 -8.5t-21.5 8.5t-8.5 21.5v622q0 13 8.5 21.5t21.5 8.5t21.5 -8.5t8.5 -21.5v-622zM252 792q9 0 15.5 -6.5t6.5 -15.5t-6.5 -15.5t-15.5 -6.5h-245q-9 0 -15.5 6.5t-6.5 15.5t6.5 15.5t15.5 6.5h245z" />
    <glyph glyph-name="imacron" unicode="&#x12b;" horiz-adv-x="220" 
d="M140 22q0 -13 -8.5 -21.5t-21.5 -8.5t-21.5 8.5t-8.5 21.5v390q0 13 8.5 21.5t21.5 8.5t21.5 -8.5t8.5 -21.5v-390zM223 582q9 0 15.5 -6.5t6.5 -15.5t-6.5 -15.5t-15.5 -6.5h-225q-9 0 -15.5 6.5t-6.5 15.5t6.5 15.5t15.5 6.5h225z" />
    <glyph glyph-name="Ibreve" unicode="&#x12c;" horiz-adv-x="260" 
d="M160 22q0 -13 -8.5 -21.5t-21.5 -8.5t-21.5 8.5t-8.5 21.5v622q0 13 8.5 21.5t21.5 8.5t21.5 -8.5t8.5 -21.5v-622zM217 816q0 10 7 16.5t17 6.5q9 0 16 -6.5t7 -15.5q0 -96 -134 -96t-134 96q0 9 7 15.5t16 6.5q10 0 17 -6.5t7 -16.5q0 -54 87 -54t87 54z" />
    <glyph glyph-name="ibreve" unicode="&#x12d;" horiz-adv-x="220" 
d="M140 22q0 -13 -8.5 -21.5t-21.5 -8.5t-21.5 8.5t-8.5 21.5v390q0 13 8.5 21.5t21.5 8.5t21.5 -8.5t8.5 -21.5v-390zM187 615q0 10 7 16.5t17 6.5q9 0 16 -6.5t7 -15.5q0 -52 -32.5 -79t-91.5 -27t-91.5 27t-32.5 79q0 9 7 15.5t16 6.5q10 0 17 -6.5t7 -16.5
q0 -33 17.5 -48.5t59.5 -15.5t59.5 15.5t17.5 48.5z" />
    <glyph glyph-name="Iogonek" unicode="&#x12e;" horiz-adv-x="260" 
d="M150 -142q20 0 20 -19q0 -17 -18 -21q-14 -3 -28 -3q-75 0 -75 70q0 24 11 46t22.5 35t31.5 31q-14 6 -14 25v622q0 13 8.5 21.5t21.5 8.5t21.5 -8.5t8.5 -21.5v-622q0 -13 -9 -22q-52 -60 -52 -109q0 -34 34 -34q4 0 9.5 0.5t7.5 0.5z" />
    <glyph glyph-name="iogonek" unicode="&#x12f;" horiz-adv-x="220" 
d="M130 -142q20 0 20 -19q0 -17 -18 -21q-14 -3 -28 -3q-75 0 -75 70q0 24 11 46t22.5 35t31.5 31q-14 6 -14 25v390q0 13 8.5 21.5t21.5 8.5t21.5 -8.5t8.5 -21.5v-390q0 -13 -9 -22q-52 -60 -52 -109q0 -34 34 -34q4 0 9.5 0.5t7.5 0.5zM72 566q0 16 11 27t27 11t27 -11
t11 -27t-11 -27t-27 -11t-27 11t-11 27z" />
    <glyph glyph-name="Idotaccent" unicode="&#x130;" horiz-adv-x="260" 
d="M160 22q0 -13 -8.5 -21.5t-21.5 -8.5t-21.5 8.5t-8.5 21.5v622q0 13 8.5 21.5t21.5 8.5t21.5 -8.5t8.5 -21.5v-622zM92 779q0 16 11 27t27 11t27 -11t11 -27t-11 -27t-27 -11t-27 11t-11 27z" />
    <glyph glyph-name="dotlessi" unicode="&#x131;" horiz-adv-x="220" 
d="M140 22q0 -13 -8.5 -21.5t-21.5 -8.5t-21.5 8.5t-8.5 21.5v390q0 13 8.5 21.5t21.5 8.5t21.5 -8.5t8.5 -21.5v-390z" />
    <glyph glyph-name="IJ" unicode="&#x132;" horiz-adv-x="851" 
d="M160 22q0 -13 -8.5 -21.5t-21.5 -8.5t-21.5 8.5t-8.5 21.5v622q0 13 8.5 21.5t21.5 8.5t21.5 -8.5t8.5 -21.5v-622zM523 41q88 0 133 54.5t45 152.5v396q0 13 8.5 21.5t21.5 8.5t21.5 -8.5t8.5 -21.5v-394q0 -118 -60 -190t-177 -72q-92 0 -149.5 48.5t-77.5 132.5
q-2 8 -2 14q0 29 29 29q22 0 27 -24q34 -147 172 -147z" />
    <glyph glyph-name="ij" unicode="&#x133;" horiz-adv-x="440" 
d="M140 22q0 -13 -8.5 -21.5t-21.5 -8.5t-21.5 8.5t-8.5 21.5v390q0 13 8.5 21.5t21.5 8.5t21.5 -8.5t8.5 -21.5v-390zM72 566q0 16 11 27t27 11t27 -11t11 -27t-11 -27t-27 -11t-27 11t-11 27zM214 -145q53 0 69.5 22.5t16.5 79.5v455q0 13 8.5 21.5t21.5 8.5t21.5 -8.5
t8.5 -21.5v-459q0 -77 -31.5 -112.5t-109.5 -35.5h-17q-10 0 -17.5 7.5t-7.5 17.5t7.5 17.5t17.5 7.5h12zM292 566q0 16 11 27t27 11t27 -11t11 -27t-11 -27t-27 -11t-27 11t-11 27z" />
    <glyph glyph-name="Jcircumflex" unicode="&#x134;" horiz-adv-x="591" 
d="M263 41q88 0 133 54.5t45 152.5v396q0 13 8.5 21.5t21.5 8.5t21.5 -8.5t8.5 -21.5v-394q0 -118 -60 -190t-177 -72q-92 0 -149.5 48.5t-77.5 132.5q-2 8 -2 14q0 29 29 29q22 0 27 -24q34 -147 172 -147zM492 831l91 -69q9 -9 9 -19q0 -8 -7 -14t-16 -6t-16 6l-80 57
l-80 -57q-7 -6 -16 -6t-16 6t-7 14q0 10 9 19l91 69q11 8 19 8t19 -8z" />
    <glyph glyph-name="jcircumflex" unicode="&#x135;" horiz-adv-x="220" 
d="M-8 -145q53 0 69.5 22.5t16.5 79.5v455q0 13 8.5 21.5t21.5 8.5t21.5 -8.5t8.5 -21.5v-459q0 -77 -31.5 -112.5t-109.5 -35.5h-17q-10 0 -17.5 7.5t-7.5 17.5t7.5 17.5t17.5 7.5h12zM126 638l95 -88q9 -9 9 -19q0 -8 -7 -14t-16 -6t-16 6l-84 74l-84 -74q-8 -6 -16 -6
q-9 0 -16 6t-7 14q0 10 9 19l95 88q8 8 19 8t19 -8z" />
    <glyph glyph-name="Kcommaaccent" unicode="&#x136;" horiz-adv-x="661" 
d="M155 285l387 381q8 8 20 8q13 0 21 -8t8 -18q0 -13 -9 -22l-220 -216l238 -373q6 -10 6 -18q0 -11 -8 -19t-21 -8q-16 0 -25 14l-232 364l-165 -162v-186q0 -13 -8.5 -21.5t-21.5 -8.5t-21.5 8.5t-8.5 21.5v622q0 13 8.5 21.5t21.5 8.5t21.5 -8.5t8.5 -21.5v-359z
M357 -135q0 -65 -17 -119q-8 -27 -30 -27q-25 0 -25 24q0 5 5 20q15 46 15 98v36q0 28 26 28t26 -28v-32z" />
    <glyph glyph-name="kcommaaccent" unicode="&#x137;" horiz-adv-x="480" 
d="M140 172v-150q0 -13 -8.5 -21.5t-21.5 -8.5t-21.5 8.5t-8.5 21.5v622q0 13 8.5 21.5t21.5 8.5t21.5 -8.5t8.5 -21.5v-404l244 194q10 8 20 8q12 0 19.5 -8.5t7.5 -18.5q0 -12 -14 -23l-167 -132l182 -222q8 -11 8 -19q0 -11 -8.5 -19t-21.5 -8q-11 0 -21 12l-182 222z
M272 -135q0 -65 -17 -119q-8 -27 -30 -27q-25 0 -25 24q0 5 5 20q15 46 15 98v36q0 28 26 28t26 -28v-32z" />
    <glyph glyph-name="kgreenlandic" unicode="&#x138;" horiz-adv-x="480" 
d="M140 172v-150q0 -13 -8.5 -21.5t-21.5 -8.5t-21.5 8.5t-8.5 21.5v390q0 13 8.5 21.5t21.5 8.5t21.5 -8.5t8.5 -21.5v-172l244 194q10 8 20 8q12 0 19.5 -8.5t7.5 -18.5q0 -12 -14 -23l-167 -132l182 -222q8 -11 8 -19q0 -11 -8.5 -19t-21.5 -8q-11 0 -21 12l-182 222z
" />
    <glyph glyph-name="Lacute" unicode="&#x139;" horiz-adv-x="575" 
d="M155 54h358q11 0 19 -8t8 -19t-8 -19t-19 -8h-388q-13 0 -21.5 8.5t-8.5 21.5v614q0 13 8.5 21.5t21.5 8.5t21.5 -8.5t8.5 -21.5v-590zM103 765l55 62q10 12 24 12q11 0 18 -7t7 -16q0 -11 -8 -20l-55 -59q-13 -14 -24 -14q-10 0 -17.5 7t-7.5 16t8 19z" />
    <glyph glyph-name="lacute" unicode="&#x13a;" horiz-adv-x="220" 
d="M140 22q0 -13 -8.5 -21.5t-21.5 -8.5t-21.5 8.5t-8.5 21.5v622q0 13 8.5 21.5t21.5 8.5t21.5 -8.5t8.5 -21.5v-622zM89 765l55 62q10 12 24 12q11 0 18 -7t7 -16q0 -11 -8 -20l-55 -59q-13 -14 -24 -14q-10 0 -17.5 7t-7.5 16t8 19z" />
    <glyph glyph-name="Lcommaaccent" unicode="&#x13b;" horiz-adv-x="575" 
d="M155 54h358q11 0 19 -8t8 -19t-8 -19t-19 -8h-388q-13 0 -21.5 8.5t-8.5 21.5v614q0 13 8.5 21.5t21.5 8.5t21.5 -8.5t8.5 -21.5v-590zM337 -135q0 -65 -17 -119q-8 -27 -30 -27q-25 0 -25 24q0 5 5 20q15 46 15 98v36q0 28 26 28t26 -28v-32z" />
    <glyph glyph-name="lcommaaccent" unicode="&#x13c;" horiz-adv-x="220" 
d="M140 22q0 -13 -8.5 -21.5t-21.5 -8.5t-21.5 8.5t-8.5 21.5v622q0 13 8.5 21.5t21.5 8.5t21.5 -8.5t8.5 -21.5v-622zM134 -135q0 -65 -17 -119q-8 -27 -30 -27q-25 0 -25 24q0 5 5 20q15 46 15 98v36q0 28 26 28t26 -28v-32z" />
    <glyph glyph-name="Lcaron" unicode="&#x13d;" horiz-adv-x="575" 
d="M155 54h358q11 0 19 -8t8 -19t-8 -19t-19 -8h-388q-13 0 -21.5 8.5t-8.5 21.5v614q0 13 8.5 21.5t21.5 8.5t21.5 -8.5t8.5 -21.5v-590zM403 614q0 -65 -17 -119q-8 -27 -30 -27q-25 0 -25 24q0 5 5 20q15 46 15 98v36q0 28 26 28t26 -28v-32z" />
    <glyph glyph-name="lcaron" unicode="&#x13e;" horiz-adv-x="352" 
d="M140 22q0 -13 -8.5 -21.5t-21.5 -8.5t-21.5 8.5t-8.5 21.5v622q0 13 8.5 21.5t21.5 8.5t21.5 -8.5t8.5 -21.5v-622zM326 614q0 -65 -17 -119q-8 -27 -30 -27q-25 0 -25 24q0 5 5 20q15 46 15 98v36q0 28 26 28t26 -28v-32z" />
    <glyph glyph-name="Ldot" unicode="&#x13f;" horiz-adv-x="575" 
d="M155 54h358q11 0 19 -8t8 -19t-8 -19t-19 -8h-388q-13 0 -21.5 8.5t-8.5 21.5v614q0 13 8.5 21.5t21.5 8.5t21.5 -8.5t8.5 -21.5v-590zM312 317q0 17 12.5 29.5t29.5 12.5t29.5 -12.5t12.5 -29.5t-12.5 -29.5t-29.5 -12.5t-29.5 12.5t-12.5 29.5z" />
    <glyph glyph-name="ldot" unicode="&#x140;" horiz-adv-x="352" 
d="M140 22q0 -13 -8.5 -21.5t-21.5 -8.5t-21.5 8.5t-8.5 21.5v622q0 13 8.5 21.5t21.5 8.5t21.5 -8.5t8.5 -21.5v-622zM231 251q0 17 12.5 29.5t29.5 12.5t29.5 -12.5t12.5 -29.5t-12.5 -29.5t-29.5 -12.5t-29.5 12.5t-12.5 29.5z" />
    <glyph glyph-name="Lslash" unicode="&#x141;" horiz-adv-x="605" 
d="M40 334l85 25v285q0 13 8.5 21.5t21.5 8.5t21.5 -8.5t8.5 -21.5v-268l191 56q6 2 12 2q11 0 19 -7t8 -18q0 -20 -20 -26l-210 -61v-268h358q11 0 19 -8t8 -19t-8 -19t-19 -8h-388q-13 0 -21.5 8.5t-8.5 21.5v275l-66 -19q-6 -2 -12 -2q-11 0 -19 6.5t-8 17.5q0 20 20 26z
" />
    <glyph glyph-name="lslash" unicode="&#x142;" horiz-adv-x="323" 
d="M60 374l68 20v250q0 13 8.5 21.5t21.5 8.5t21.5 -8.5t8.5 -21.5v-233l73 21q6 2 12 2q11 0 19 -7t8 -18q0 -20 -20 -26l-92 -26v-335q0 -13 -8.5 -21.5t-21.5 -8.5t-21.5 8.5t-8.5 21.5v318l-49 -14q-6 -2 -12 -2q-11 0 -19 6.5t-8 17.5q0 20 20 26z" />
    <glyph glyph-name="Nacute" unicode="&#x143;" horiz-adv-x="723" 
d="M628 20q0 -12 -7.5 -20t-21.5 -8q-13 0 -23 13l-424 559v-544q0 -11 -8 -19.5t-20 -8.5t-20.5 8t-8.5 20v625q0 13 8.5 21t21.5 8q14 0 23 -13l423 -560v544q0 13 8 21t21 8q12 0 20 -8.5t8 -20.5v-625zM332 765l55 62q10 12 24 12q11 0 18 -7t7 -16q0 -11 -8 -20
l-55 -59q-13 -14 -24 -14q-10 0 -17.5 7t-7.5 16t8 19z" />
    <glyph glyph-name="nacute" unicode="&#x144;" horiz-adv-x="565" 
d="M490 245v-223q0 -13 -8.5 -21.5t-21.5 -8.5t-21.5 8.5t-8.5 21.5v222q0 69 -36 108t-104 39q-65 0 -107.5 -44t-42.5 -116v-209q0 -13 -8.5 -21.5t-21.5 -8.5t-21.5 8.5t-8.5 21.5v390q0 13 8.5 21.5t21.5 8.5t21.5 -8.5t8.5 -21.5v-52q50 86 163 86q86 0 136.5 -56
t50.5 -145zM229 536q0 7 6 16l72 102q7 11 21 11q10 0 17.5 -6t7.5 -17q0 -9 -6 -17l-69 -97q-12 -16 -25 -16q-10 0 -17 7t-7 17z" />
    <glyph glyph-name="Ncommaaccent" unicode="&#x145;" horiz-adv-x="723" 
d="M628 20q0 -12 -7.5 -20t-21.5 -8q-13 0 -23 13l-424 559v-544q0 -11 -8 -19.5t-20 -8.5t-20.5 8t-8.5 20v625q0 13 8.5 21t21.5 8q14 0 23 -13l423 -560v544q0 13 8 21t21 8q12 0 20 -8.5t8 -20.5v-625zM377 -135q0 -65 -17 -119q-8 -27 -30 -27q-25 0 -25 24q0 5 5 20
q15 46 15 98v36q0 28 26 28t26 -28v-32z" />
    <glyph glyph-name="ncommaaccent" unicode="&#x146;" horiz-adv-x="565" 
d="M490 245v-223q0 -13 -8.5 -21.5t-21.5 -8.5t-21.5 8.5t-8.5 21.5v222q0 69 -36 108t-104 39q-65 0 -107.5 -44t-42.5 -116v-209q0 -13 -8.5 -21.5t-21.5 -8.5t-21.5 8.5t-8.5 21.5v390q0 13 8.5 21.5t21.5 8.5t21.5 -8.5t8.5 -21.5v-52q50 86 163 86q86 0 136.5 -56
t50.5 -145zM311 -135q0 -65 -17 -119q-8 -27 -30 -27q-25 0 -25 24q0 5 5 20q15 46 15 98v36q0 28 26 28t26 -28v-32z" />
    <glyph glyph-name="Ncaron" unicode="&#x147;" horiz-adv-x="723" 
d="M628 20q0 -12 -7.5 -20t-21.5 -8q-13 0 -23 13l-424 559v-544q0 -11 -8 -19.5t-20 -8.5t-20.5 8t-8.5 20v625q0 13 8.5 21t21.5 8q14 0 23 -13l423 -560v544q0 13 8 21t21 8q12 0 20 -8.5t8 -20.5v-625zM474 798l-91 -69q-11 -8 -19 -8t-19 8l-91 69q-9 9 -9 19q0 8 7 14
t16 6q8 0 16 -6l80 -57l80 57q8 6 16 6q9 0 16 -6t7 -14q0 -10 -9 -19z" />
    <glyph glyph-name="ncaron" unicode="&#x148;" horiz-adv-x="565" 
d="M490 245v-223q0 -13 -8.5 -21.5t-21.5 -8.5t-21.5 8.5t-8.5 21.5v222q0 69 -36 108t-104 39q-65 0 -107.5 -44t-42.5 -116v-209q0 -13 -8.5 -21.5t-21.5 -8.5t-21.5 8.5t-8.5 21.5v390q0 13 8.5 21.5t21.5 8.5t21.5 -8.5t8.5 -21.5v-52q50 86 163 86q86 0 136.5 -56
t50.5 -145zM397 604l-95 -88q-8 -8 -19 -8t-19 8l-95 88q-9 9 -9 19q0 8 7 14t16 6t16 -6l84 -74l84 74q7 6 16 6t16 -6t7 -14q0 -10 -9 -19z" />
    <glyph glyph-name="napostrophe" unicode="&#x149;" horiz-adv-x="631" 
d="M84 646v-48q0 -96 -27 -157q-8 -20 -28 -20q-10 0 -17 6.5t-7 15.5q0 4 4 16q23 57 23 136v51q0 12 7 20t19 8t19 -8t7 -20zM556 245v-223q0 -13 -8.5 -21.5t-21.5 -8.5t-21.5 8.5t-8.5 21.5v222q0 69 -36 108t-104 39q-65 0 -107.5 -44t-42.5 -116v-209
q0 -13 -8.5 -21.5t-21.5 -8.5t-21.5 8.5t-8.5 21.5v390q0 13 8.5 21.5t21.5 8.5t21.5 -8.5t8.5 -21.5v-52q50 86 163 86q86 0 136.5 -56t50.5 -145z" />
    <glyph glyph-name="Eng" unicode="&#x14a;" horiz-adv-x="723" 
d="M628 -47q0 -77 -31.5 -112.5t-109.5 -35.5h-17q-10 0 -17.5 7.5t-7.5 17.5t7.5 17.5t17.5 7.5h12q54 0 71.5 22t17.5 77v57l-419 553v-544q0 -11 -8 -19.5t-20 -8.5t-20.5 8t-8.5 20v625q0 13 8.5 21t21.5 8q14 0 23 -13l423 -560v544q0 13 8 21t21 8q12 0 20 -8.5
t8 -20.5v-692z" />
    <glyph glyph-name="eng" unicode="&#x14b;" horiz-adv-x="565" 
d="M430 244q0 69 -36 108t-104 39q-65 0 -107.5 -44t-42.5 -116v-209q0 -13 -8.5 -21.5t-21.5 -8.5t-21.5 8.5t-8.5 21.5v390q0 13 8.5 21.5t21.5 8.5t21.5 -8.5t8.5 -21.5v-52q50 86 163 86q86 0 136.5 -56t50.5 -145v-167q0 -154 -128 -267q-6 -6 -15 -6q-13 0 -22.5 8
t-9.5 19q0 13 8 19q107 91 107 226v167z" />
    <glyph glyph-name="Omacron" unicode="&#x14c;" horiz-adv-x="774" 
d="M722 333q0 -143 -93.5 -244t-240.5 -101t-241.5 101t-94.5 244t94.5 244t241.5 101t240.5 -101t93.5 -244zM662 333q0 120 -75 206t-199 86t-200 -86t-76 -206t76 -206t200 -86t199 86t75 206zM510 792q9 0 15.5 -6.5t6.5 -15.5t-6.5 -15.5t-15.5 -6.5h-245
q-9 0 -15.5 6.5t-6.5 15.5t6.5 15.5t15.5 6.5h245z" />
    <glyph glyph-name="omacron" unicode="&#x14d;" horiz-adv-x="560" 
d="M508 217q0 -97 -64.5 -163t-163.5 -66t-163.5 66t-64.5 163t64.5 163t163.5 66t163.5 -66t64.5 -163zM448 217q0 76 -48.5 126.5t-119.5 50.5t-119.5 -50.5t-48.5 -126.5t48.5 -126.5t119.5 -50.5t119.5 50.5t48.5 126.5zM393 582q9 0 15.5 -6.5t6.5 -15.5t-6.5 -15.5
t-15.5 -6.5h-225q-9 0 -15.5 6.5t-6.5 15.5t6.5 15.5t15.5 6.5h225z" />
    <glyph glyph-name="Obreve" unicode="&#x14e;" horiz-adv-x="774" 
d="M722 333q0 -143 -93.5 -244t-240.5 -101t-241.5 101t-94.5 244t94.5 244t241.5 101t240.5 -101t93.5 -244zM662 333q0 120 -75 206t-199 86t-200 -86t-76 -206t76 -206t200 -86t199 86t75 206zM474 816q0 10 7 16.5t17 6.5q9 0 16 -6.5t7 -15.5q0 -96 -134 -96t-134 96
q0 9 7 15.5t16 6.5q10 0 17 -6.5t7 -16.5q0 -54 87 -54t87 54z" />
    <glyph glyph-name="obreve" unicode="&#x14f;" horiz-adv-x="560" 
d="M508 217q0 -97 -64.5 -163t-163.5 -66t-163.5 66t-64.5 163t64.5 163t163.5 66t163.5 -66t64.5 -163zM448 217q0 76 -48.5 126.5t-119.5 50.5t-119.5 -50.5t-48.5 -126.5t48.5 -126.5t119.5 -50.5t119.5 50.5t48.5 126.5zM366 615q0 10 7 16.5t17 6.5q9 0 16 -6.5
t7 -15.5q0 -52 -32.5 -79t-91.5 -27t-91.5 27t-32.5 79q0 9 7 15.5t16 6.5q10 0 17 -6.5t7 -16.5q0 -33 17.5 -48.5t59.5 -15.5t59.5 15.5t17.5 48.5z" />
    <glyph glyph-name="Ohungarumlaut" unicode="&#x150;" horiz-adv-x="774" 
d="M722 333q0 -143 -93.5 -244t-240.5 -101t-241.5 101t-94.5 244t94.5 244t241.5 101t240.5 -101t93.5 -244zM662 333q0 120 -75 206t-199 86t-200 -86t-76 -206t76 -206t200 -86t199 86t75 206zM295 747q0 7 6 16l45 65q7 11 21 11q10 0 17.5 -6t7.5 -17q0 -9 -6 -17
l-42 -60q-12 -16 -25 -16q-10 0 -17 7t-7 17zM455 747q0 7 6 16l45 65q7 11 21 11q10 0 17.5 -6t7.5 -17q0 -9 -6 -17l-42 -60q-12 -16 -25 -16q-10 0 -17 7t-7 17z" />
    <glyph glyph-name="ohungarumlaut" unicode="&#x151;" horiz-adv-x="560" 
d="M508 217q0 -97 -64.5 -163t-163.5 -66t-163.5 66t-64.5 163t64.5 163t163.5 66t163.5 -66t64.5 -163zM448 217q0 76 -48.5 126.5t-119.5 50.5t-119.5 -50.5t-48.5 -126.5t48.5 -126.5t119.5 -50.5t119.5 50.5t48.5 126.5zM179 536q0 7 6 16l72 102q7 11 21 11
q10 0 17.5 -6t7.5 -17q0 -9 -6 -17l-69 -97q-12 -16 -25 -16q-10 0 -17 7t-7 17zM339 536q0 7 6 16l72 102q7 11 21 11q10 0 17.5 -6t7.5 -17q0 -9 -6 -17l-69 -97q-12 -16 -25 -16q-10 0 -17 7t-7 17z" />
    <glyph glyph-name="OE" unicode="&#x152;" horiz-adv-x="1150" 
d="M722 317v-263h356q11 0 19 -8t8 -19t-8 -19t-19 -8h-386q-13 0 -21.5 8.5t-8.5 21.5v111q-43 -71 -114.5 -112t-159.5 -41q-147 0 -241.5 101t-94.5 244t94.5 244t241.5 101q88 0 158.5 -41t115.5 -112v111q0 13 8.5 21.5t21.5 8.5h385q11 0 19 -8t8 -19t-8 -19t-19 -8
h-355v-241h206q11 0 19 -8t8 -19t-8 -19t-19 -8h-206zM662 333q0 120 -75 206t-199 86t-200 -86t-76 -206t76 -206t200 -86t199 86t75 206z" />
    <glyph glyph-name="oe" unicode="&#x153;" horiz-adv-x="934" 
d="M671 446q92 0 151 -63.5t59 -160.5q0 -10 -7.5 -17.5t-17.5 -7.5h-347q2 -64 47.5 -111t120.5 -47q83 0 136 63q11 13 23 13q11 0 18 -7.5t7 -17.5q0 -9 -6 -18q-27 -37 -74 -60.5t-104 -23.5q-68 0 -119.5 30t-79.5 81q-29 -51 -81 -81t-117 -30q-99 0 -163.5 66
t-64.5 163t64.5 163t163.5 66q65 0 117 -30t81 -82q29 51 79.5 81.5t113.5 30.5zM448 217q0 76 -48.5 126.5t-119.5 50.5t-119.5 -50.5t-48.5 -126.5t48.5 -126.5t119.5 -50.5t119.5 50.5t48.5 126.5zM826 247q-6 64 -49 106.5t-106 42.5q-65 0 -109.5 -43t-50.5 -106h315z
" />
    <glyph glyph-name="Racute" unicode="&#x154;" horiz-adv-x="685" 
d="M617 481q0 -70 -39.5 -118.5t-111.5 -61.5l130 -266q4 -8 4 -14q0 -12 -8.5 -20.5t-20.5 -8.5q-19 0 -28 17l-141 287h-247v-274q0 -13 -8.5 -21.5t-21.5 -8.5t-21.5 8.5t-8.5 21.5v614q0 13 9 21.5t21 8.5h287q96 0 150.5 -51.5t54.5 -133.5zM557 481q0 58 -36 94.5
t-97 36.5h-269v-262h269q61 0 97 36.5t36 94.5zM298 765l55 62q10 12 24 12q11 0 18 -7t7 -16q0 -11 -8 -20l-55 -59q-13 -14 -24 -14q-10 0 -17.5 7t-7.5 16t8 19z" />
    <glyph glyph-name="racute" unicode="&#x155;" horiz-adv-x="329" 
d="M314 416q0 -27 -30 -27q-64 0 -104 -54.5t-40 -139.5v-173q0 -12 -8.5 -21t-21.5 -9q-12 0 -21 9t-9 21v390q0 13 8.5 21.5t21.5 8.5t21.5 -8.5t8.5 -21.5v-70q15 44 53.5 72t90.5 28q13 0 21.5 -7t8.5 -19zM141 536q0 7 6 16l72 102q7 11 21 11q10 0 17.5 -6t7.5 -17
q0 -9 -6 -17l-69 -97q-12 -16 -25 -16q-10 0 -17 7t-7 17z" />
    <glyph glyph-name="Rcommaaccent" unicode="&#x156;" horiz-adv-x="685" 
d="M617 481q0 -70 -39.5 -118.5t-111.5 -61.5l130 -266q4 -8 4 -14q0 -12 -8.5 -20.5t-20.5 -8.5q-19 0 -28 17l-141 287h-247v-274q0 -13 -8.5 -21.5t-21.5 -8.5t-21.5 8.5t-8.5 21.5v614q0 13 9 21.5t21 8.5h287q96 0 150.5 -51.5t54.5 -133.5zM557 481q0 58 -36 94.5
t-97 36.5h-269v-262h269q61 0 97 36.5t36 94.5zM363 -135q0 -65 -17 -119q-8 -27 -30 -27q-25 0 -25 24q0 5 5 20q15 46 15 98v36q0 28 26 28t26 -28v-32z" />
    <glyph glyph-name="rcommaaccent" unicode="&#x157;" horiz-adv-x="329" 
d="M314 416q0 -27 -30 -27q-64 0 -104 -54.5t-40 -139.5v-173q0 -12 -8.5 -21t-21.5 -9q-12 0 -21 9t-9 21v390q0 13 8.5 21.5t21.5 8.5t21.5 -8.5t8.5 -21.5v-70q15 44 53.5 72t90.5 28q13 0 21.5 -7t8.5 -19zM135 -135q0 -65 -17 -119q-8 -27 -30 -27q-25 0 -25 24
q0 5 5 20q15 46 15 98v36q0 28 26 28t26 -28v-32z" />
    <glyph glyph-name="Rcaron" unicode="&#x158;" horiz-adv-x="685" 
d="M617 481q0 -70 -39.5 -118.5t-111.5 -61.5l130 -266q4 -8 4 -14q0 -12 -8.5 -20.5t-20.5 -8.5q-19 0 -28 17l-141 287h-247v-274q0 -13 -8.5 -21.5t-21.5 -8.5t-21.5 8.5t-8.5 21.5v614q0 13 9 21.5t21 8.5h287q96 0 150.5 -51.5t54.5 -133.5zM557 481q0 58 -36 94.5
t-97 36.5h-269v-262h269q61 0 97 36.5t36 94.5zM440 798l-91 -69q-11 -8 -19 -8t-19 8l-91 69q-9 9 -9 19q0 8 7 14t16 6q8 0 16 -6l80 -57l80 57q8 6 16 6q9 0 16 -6t7 -14q0 -10 -9 -19z" />
    <glyph glyph-name="rcaron" unicode="&#x159;" horiz-adv-x="329" 
d="M314 416q0 -27 -30 -27q-64 0 -104 -54.5t-40 -139.5v-173q0 -12 -8.5 -21t-21.5 -9q-12 0 -21 9t-9 21v390q0 13 8.5 21.5t21.5 8.5t21.5 -8.5t8.5 -21.5v-70q15 44 53.5 72t90.5 28q13 0 21.5 -7t8.5 -19zM297 604l-95 -88q-8 -8 -19 -8t-19 8l-95 88q-9 9 -9 19
q0 8 7 14t16 6t16 -6l84 -74l84 74q7 6 16 6t16 -6t7 -14q0 -10 -9 -19z" />
    <glyph glyph-name="Sacute" unicode="&#x15a;" horiz-adv-x="634" 
d="M579 165q0 -81 -66.5 -129t-181.5 -48q-145 0 -252 83q-14 12 -14 25q0 10 7 17t18 7t24 -9q101 -71 216 -71q89 0 139 33.5t50 89.5q0 53 -46.5 84t-145.5 61q-141 43 -194.5 90t-53.5 110q0 83 70.5 126.5t177.5 43.5q121 0 215 -64q14 -9 14 -21q0 -10 -7 -18t-20 -8
q-8 0 -16 5q-88 54 -187 54q-83 0 -135 -29.5t-52 -88.5q0 -49 42 -80.5t147 -65.5q48 -16 74 -25.5t60 -24t51.5 -27.5t34.5 -31t24 -40t7 -49zM292 765l55 62q10 12 24 12q11 0 18 -7t7 -16q0 -11 -8 -20l-55 -59q-13 -14 -24 -14q-10 0 -17.5 7t-7.5 16t8 19z" />
    <glyph glyph-name="sacute" unicode="&#x15b;" horiz-adv-x="468" 
d="M418 109q0 -54 -46 -87.5t-127 -33.5q-100 0 -168 57q-12 9 -12 23q0 10 6.5 16t16.5 6q12 0 23 -9q60 -47 137 -47q52 0 82 19.5t30 52.5q0 24 -17.5 40.5t-37 24t-60.5 18.5q-97 27 -136 59.5t-39 81.5q0 57 46 86.5t126 29.5q71 0 135 -35q27 -13 27 -30
q0 -23 -25 -23q-8 0 -24 9q-56 30 -114 30q-113 0 -113 -65q0 -31 26 -50t96 -39q88 -26 128 -53t40 -81zM188 536q0 7 6 16l72 102q7 11 21 11q10 0 17.5 -6t7.5 -17q0 -9 -6 -17l-69 -97q-12 -16 -25 -16q-10 0 -17 7t-7 17z" />
    <glyph glyph-name="Scircumflex" unicode="&#x15c;" horiz-adv-x="634" 
d="M579 165q0 -81 -66.5 -129t-181.5 -48q-145 0 -252 83q-14 12 -14 25q0 10 7 17t18 7t24 -9q101 -71 216 -71q89 0 139 33.5t50 89.5q0 53 -46.5 84t-145.5 61q-141 43 -194.5 90t-53.5 110q0 83 70.5 126.5t177.5 43.5q121 0 215 -64q14 -9 14 -21q0 -10 -7 -18t-20 -8
q-8 0 -16 5q-88 54 -187 54q-83 0 -135 -29.5t-52 -88.5q0 -49 42 -80.5t147 -65.5q48 -16 74 -25.5t60 -24t51.5 -27.5t34.5 -31t24 -40t7 -49zM348 831l91 -69q9 -9 9 -19q0 -8 -7 -14t-16 -6t-16 6l-80 57l-80 -57q-7 -6 -16 -6t-16 6t-7 14q0 10 9 19l91 69q11 8 19 8
t19 -8z" />
    <glyph glyph-name="scircumflex" unicode="&#x15d;" horiz-adv-x="468" 
d="M418 109q0 -54 -46 -87.5t-127 -33.5q-100 0 -168 57q-12 9 -12 23q0 10 6.5 16t16.5 6q12 0 23 -9q60 -47 137 -47q52 0 82 19.5t30 52.5q0 24 -17.5 40.5t-37 24t-60.5 18.5q-97 27 -136 59.5t-39 81.5q0 57 46 86.5t126 29.5q71 0 135 -35q27 -13 27 -30
q0 -23 -25 -23q-8 0 -24 9q-56 30 -114 30q-113 0 -113 -65q0 -31 26 -50t96 -39q88 -26 128 -53t40 -81zM261 638l95 -88q9 -9 9 -19q0 -8 -7 -14t-16 -6q-8 0 -16 6l-84 74l-84 -74q-8 -6 -16 -6q-9 0 -16 6t-7 14q0 10 9 19l95 88q8 8 19 8t19 -8z" />
    <glyph glyph-name="Scedilla" unicode="&#x15e;" horiz-adv-x="634" 
d="M436 -121q0 -33 -25.5 -53.5t-73.5 -20.5q-39 0 -70 13q-14 6 -14 18q0 10 8 16t19 2q30 -11 56 -11q54 0 54 35q0 31 -44 31q-12 0 -28 -3.5t-24 -3.5t-13.5 5t-5.5 12q0 6 4 15l24 55q-131 9 -224 82q-14 12 -14 25q0 10 7 17t18 7t24 -9q101 -71 216 -71
q89 0 139 33.5t50 89.5q0 53 -46.5 84t-145.5 61q-141 43 -194.5 90t-53.5 110q0 83 70.5 126.5t177.5 43.5q121 0 215 -64q14 -9 14 -21q0 -10 -7 -18t-20 -8q-8 0 -16 5q-88 54 -187 54q-83 0 -135 -29.5t-52 -88.5q0 -49 42 -80.5t147 -65.5q48 -16 74 -25.5t60 -24
t51.5 -27.5t34.5 -31t24 -40t7 -49q0 -78 -63 -126t-173 -51l-20 -50q16 8 37 8q35 0 55.5 -18t20.5 -49z" />
    <glyph glyph-name="Scedilla" unicode="&#xf6c1;" horiz-adv-x="634" 
d="M436 -121q0 -33 -25.5 -53.5t-73.5 -20.5q-39 0 -70 13q-14 6 -14 18q0 10 8 16t19 2q30 -11 56 -11q54 0 54 35q0 31 -44 31q-12 0 -28 -3.5t-24 -3.5t-13.5 5t-5.5 12q0 6 4 15l24 55q-131 9 -224 82q-14 12 -14 25q0 10 7 17t18 7t24 -9q101 -71 216 -71
q89 0 139 33.5t50 89.5q0 53 -46.5 84t-145.5 61q-141 43 -194.5 90t-53.5 110q0 83 70.5 126.5t177.5 43.5q121 0 215 -64q14 -9 14 -21q0 -10 -7 -18t-20 -8q-8 0 -16 5q-88 54 -187 54q-83 0 -135 -29.5t-52 -88.5q0 -49 42 -80.5t147 -65.5q48 -16 74 -25.5t60 -24
t51.5 -27.5t34.5 -31t24 -40t7 -49q0 -78 -63 -126t-173 -51l-20 -50q16 8 37 8q35 0 55.5 -18t20.5 -49z" />
    <glyph glyph-name="scedilla" unicode="&#x15f;" horiz-adv-x="468" 
d="M418 109q0 -52 -42.5 -85t-119.5 -36l-20 -50q16 8 37 8q35 0 55.5 -18t20.5 -49q0 -33 -25.5 -53.5t-73.5 -20.5q-39 0 -70 13q-14 6 -14 18q0 10 8 16t19 2q30 -11 56 -11q54 0 54 35q0 31 -44 31q-12 0 -28 -3.5t-24 -3.5q-9 0 -14 5t-5 12q0 6 4 15l24 56
q-84 8 -139 55q-12 9 -12 23q0 10 6.5 16t16.5 6q12 0 23 -9q60 -47 137 -47q52 0 82 19.5t30 52.5q0 24 -17.5 40.5t-37 24t-60.5 18.5q-97 27 -136 59.5t-39 81.5q0 57 46 86.5t126 29.5q71 0 135 -35q27 -13 27 -30q0 -23 -25 -23q-8 0 -24 9q-56 30 -114 30
q-113 0 -113 -65q0 -31 26 -50t96 -39q88 -26 128 -53t40 -81z" />
    <glyph glyph-name="scedilla" unicode="&#xf6c2;" horiz-adv-x="468" 
d="M418 109q0 -52 -42.5 -85t-119.5 -36l-20 -50q16 8 37 8q35 0 55.5 -18t20.5 -49q0 -33 -25.5 -53.5t-73.5 -20.5q-39 0 -70 13q-14 6 -14 18q0 10 8 16t19 2q30 -11 56 -11q54 0 54 35q0 31 -44 31q-12 0 -28 -3.5t-24 -3.5q-9 0 -14 5t-5 12q0 6 4 15l24 56
q-84 8 -139 55q-12 9 -12 23q0 10 6.5 16t16.5 6q12 0 23 -9q60 -47 137 -47q52 0 82 19.5t30 52.5q0 24 -17.5 40.5t-37 24t-60.5 18.5q-97 27 -136 59.5t-39 81.5q0 57 46 86.5t126 29.5q71 0 135 -35q27 -13 27 -30q0 -23 -25 -23q-8 0 -24 9q-56 30 -114 30
q-113 0 -113 -65q0 -31 26 -50t96 -39q88 -26 128 -53t40 -81z" />
    <glyph glyph-name="Scaron" unicode="&#x160;" horiz-adv-x="634" 
d="M579 165q0 -81 -66.5 -129t-181.5 -48q-145 0 -252 83q-14 12 -14 25q0 10 7 17t18 7t24 -9q101 -71 216 -71q89 0 139 33.5t50 89.5q0 53 -46.5 84t-145.5 61q-141 43 -194.5 90t-53.5 110q0 83 70.5 126.5t177.5 43.5q121 0 215 -64q14 -9 14 -21q0 -10 -7 -18t-20 -8
q-8 0 -16 5q-88 54 -187 54q-83 0 -135 -29.5t-52 -88.5q0 -49 42 -80.5t147 -65.5q48 -16 74 -25.5t60 -24t51.5 -27.5t34.5 -31t24 -40t7 -49zM441 798l-91 -69q-11 -8 -19 -8t-19 8l-91 69q-9 9 -9 19q0 8 7 14t16 6t16 -6l80 -57l80 57q8 6 16 6q9 0 16 -6t7 -14
q0 -10 -9 -19z" />
    <glyph glyph-name="scaron" unicode="&#x161;" horiz-adv-x="468" 
d="M418 109q0 -54 -46 -87.5t-127 -33.5q-100 0 -168 57q-12 9 -12 23q0 10 6.5 16t16.5 6q12 0 23 -9q60 -47 137 -47q52 0 82 19.5t30 52.5q0 24 -17.5 40.5t-37 24t-60.5 18.5q-97 27 -136 59.5t-39 81.5q0 57 46 86.5t126 29.5q71 0 135 -35q27 -13 27 -30
q0 -23 -25 -23q-8 0 -24 9q-56 30 -114 30q-113 0 -113 -65q0 -31 26 -50t96 -39q88 -26 128 -53t40 -81zM355 604l-95 -88q-8 -8 -19 -8t-19 8l-95 88q-9 9 -9 19q0 8 7 14t16 6t16 -6l84 -74l84 74q7 6 16 6t16 -6t7 -14q0 -10 -9 -19z" />
    <glyph glyph-name="Tcommaaccent" unicode="&#x162;" horiz-adv-x="582" 
d="M321 22q0 -13 -8.5 -21.5t-21.5 -8.5t-21.5 8.5t-8.5 21.5v590h-216q-11 0 -19 8t-8 19t8 19t19 8h492q11 0 19 -8t8 -19t-8 -19t-19 -8h-216v-590zM317 -135q0 -65 -17 -119q-8 -27 -30 -27q-25 0 -25 24q0 5 5 20q15 46 15 98v36q0 28 26 28t26 -28v-32z" />
    <glyph glyph-name="Tcommaaccent" unicode="&#x21a;" horiz-adv-x="582" 
d="M321 22q0 -13 -8.5 -21.5t-21.5 -8.5t-21.5 8.5t-8.5 21.5v590h-216q-11 0 -19 8t-8 19t8 19t19 8h492q11 0 19 -8t8 -19t-8 -19t-19 -8h-216v-590zM317 -135q0 -65 -17 -119q-8 -27 -30 -27q-25 0 -25 24q0 5 5 20q15 46 15 98v36q0 28 26 28t26 -28v-32z" />
    <glyph glyph-name="tcommaaccent" unicode="&#x163;" horiz-adv-x="323" 
d="M192 434h101q10 0 17.5 -7.5t7.5 -17.5t-7.5 -17.5t-17.5 -7.5h-101v-362q0 -13 -8.5 -21.5t-21.5 -8.5t-21.5 8.5t-8.5 21.5v362h-89q-11 0 -18 7t-7 18t7 18t18 7h89v140q0 13 8.5 21.5t21.5 8.5t21.5 -8.5t8.5 -21.5v-140zM188 -135q0 -65 -17 -119q-8 -27 -30 -27
q-25 0 -25 24q0 5 5 20q15 46 15 98v36q0 28 26 28t26 -28v-32z" />
    <glyph glyph-name="tcommaaccent" unicode="&#x21b;" horiz-adv-x="323" 
d="M192 434h101q10 0 17.5 -7.5t7.5 -17.5t-7.5 -17.5t-17.5 -7.5h-101v-362q0 -13 -8.5 -21.5t-21.5 -8.5t-21.5 8.5t-8.5 21.5v362h-89q-11 0 -18 7t-7 18t7 18t18 7h89v140q0 13 8.5 21.5t21.5 8.5t21.5 -8.5t8.5 -21.5v-140zM188 -135q0 -65 -17 -119q-8 -27 -30 -27
q-25 0 -25 24q0 5 5 20q15 46 15 98v36q0 28 26 28t26 -28v-32z" />
    <glyph glyph-name="Tcaron" unicode="&#x164;" horiz-adv-x="582" 
d="M321 22q0 -13 -8.5 -21.5t-21.5 -8.5t-21.5 8.5t-8.5 21.5v590h-216q-11 0 -19 8t-8 19t8 19t19 8h492q11 0 19 -8t8 -19t-8 -19t-19 -8h-216v-590zM401 798l-91 -69q-11 -8 -19 -8t-19 8l-91 69q-9 9 -9 19q0 8 7 14t16 6t16 -6l80 -57l80 57q8 6 16 6q9 0 16 -6t7 -14
q0 -10 -9 -19z" />
    <glyph glyph-name="tcaron" unicode="&#x165;" horiz-adv-x="423" 
d="M192 434h101q10 0 17.5 -7.5t7.5 -17.5t-7.5 -17.5t-17.5 -7.5h-101v-362q0 -13 -8.5 -21.5t-21.5 -8.5t-21.5 8.5t-8.5 21.5v362h-89q-11 0 -18 7t-7 18t7 18t18 7h89v140q0 13 8.5 21.5t21.5 8.5t21.5 -8.5t8.5 -21.5v-140zM388 677q0 -62 -15 -111q-8 -27 -30 -27
q-25 0 -25 24q0 5 5 20q13 39 13 90v26q0 28 26 28t26 -28v-22z" />
    <glyph glyph-name="Tbar" unicode="&#x166;" horiz-adv-x="582" 
d="M102 330q-26 0 -26 24t26 24h159v234h-216q-11 0 -19 8t-8 19t8 19t19 8h492q11 0 19 -8t8 -19t-8 -19t-19 -8h-216v-234h159q26 0 26 -24t-26 -24h-159v-308q0 -13 -8.5 -21.5t-21.5 -8.5t-21.5 8.5t-8.5 21.5v308h-159z" />
    <glyph glyph-name="tbar" unicode="&#x167;" horiz-adv-x="323" 
d="M44 198q-11 0 -18.5 6.5t-7.5 18.5t7.5 18.5t18.5 6.5h88v136h-89q-11 0 -18 7t-7 18t7 18t18 7h89v140q0 13 8.5 21.5t21.5 8.5t21.5 -8.5t8.5 -21.5v-140h101q10 0 17.5 -7.5t7.5 -17.5t-7.5 -17.5t-17.5 -7.5h-101v-136h100q11 0 18.5 -6.5t7.5 -18.5t-7.5 -18.5
t-18.5 -6.5h-100v-176q0 -13 -8.5 -21.5t-21.5 -8.5t-21.5 8.5t-8.5 21.5v176h-88z" />
    <glyph glyph-name="Utilde" unicode="&#x168;" horiz-adv-x="744" 
d="M372 -12q-130 0 -205.5 74t-75.5 200v382q0 13 8.5 21.5t21.5 8.5t21.5 -8.5t8.5 -21.5v-386q0 -102 54.5 -159.5t166.5 -57.5t166.5 57.5t54.5 159.5v386q0 13 8.5 21.5t21.5 8.5t21.5 -8.5t8.5 -21.5v-382q0 -126 -75.5 -200t-205.5 -74zM432 727q-22 0 -59 21
q-33 18 -47 18q-21 0 -37 -19l-11 -12q-9 -9 -19 -9q-9 0 -16 6t-7 15t6 16l10 13q30 37 74 37q26 0 51 -14q6 -3 16 -9t15 -8.5t11.5 -5t11.5 -2.5q14 0 35 21l10 10q9 9 19 9q9 0 16 -5.5t7 -14.5t-6 -17q-1 -2 -3 -4.5t-5 -5.5t-4 -5q-31 -35 -68 -35z" />
    <glyph glyph-name="utilde" unicode="&#x169;" horiz-adv-x="565" 
d="M75 189v223q0 13 8.5 21.5t21.5 8.5t21.5 -8.5t8.5 -21.5v-222q0 -69 36 -108t104 -39q65 0 107.5 44t42.5 116v209q0 13 8.5 21.5t21.5 8.5t21.5 -8.5t8.5 -21.5v-390q0 -13 -8.5 -21.5t-21.5 -8.5t-21.5 8.5t-8.5 21.5v52q-50 -86 -163 -86q-86 0 -136.5 56t-50.5 145z
M345 519q-22 0 -59 21q-33 18 -47 18q-21 0 -37 -19l-11 -12q-9 -9 -19 -9q-9 0 -16 6t-7 15t6 16l10 13q30 37 74 37q26 0 51 -14q6 -3 16 -9t15 -8.5t11.5 -5t11.5 -2.5q14 0 35 21l10 10q9 9 19 9q9 0 16 -5.5t7 -14.5q0 -10 -6 -17q-1 -2 -3 -4.5t-5 -5.5t-4 -5
q-31 -35 -68 -35z" />
    <glyph glyph-name="Umacron" unicode="&#x16a;" horiz-adv-x="744" 
d="M372 -12q-130 0 -205.5 74t-75.5 200v382q0 13 8.5 21.5t21.5 8.5t21.5 -8.5t8.5 -21.5v-386q0 -102 54.5 -159.5t166.5 -57.5t166.5 57.5t54.5 159.5v386q0 13 8.5 21.5t21.5 8.5t21.5 -8.5t8.5 -21.5v-382q0 -126 -75.5 -200t-205.5 -74zM495 792q9 0 15.5 -6.5
t6.5 -15.5t-6.5 -15.5t-15.5 -6.5h-245q-9 0 -15.5 6.5t-6.5 15.5t6.5 15.5t15.5 6.5h245z" />
    <glyph glyph-name="umacron" unicode="&#x16b;" horiz-adv-x="565" 
d="M75 189v223q0 13 8.5 21.5t21.5 8.5t21.5 -8.5t8.5 -21.5v-222q0 -69 36 -108t104 -39q65 0 107.5 44t42.5 116v209q0 13 8.5 21.5t21.5 8.5t21.5 -8.5t8.5 -21.5v-390q0 -13 -8.5 -21.5t-21.5 -8.5t-21.5 8.5t-8.5 21.5v52q-50 -86 -163 -86q-86 0 -136.5 56t-50.5 145z
M397 582q9 0 15.5 -6.5t6.5 -15.5t-6.5 -15.5t-15.5 -6.5h-225q-9 0 -15.5 6.5t-6.5 15.5t6.5 15.5t15.5 6.5h225z" />
    <glyph glyph-name="Ubreve" unicode="&#x16c;" horiz-adv-x="744" 
d="M372 -12q-130 0 -205.5 74t-75.5 200v382q0 13 8.5 21.5t21.5 8.5t21.5 -8.5t8.5 -21.5v-386q0 -102 54.5 -159.5t166.5 -57.5t166.5 57.5t54.5 159.5v386q0 13 8.5 21.5t21.5 8.5t21.5 -8.5t8.5 -21.5v-382q0 -126 -75.5 -200t-205.5 -74zM460 816q0 10 7 16.5t17 6.5
q9 0 16 -6.5t7 -15.5q0 -96 -134 -96t-134 96q0 9 7 15.5t16 6.5q10 0 17 -6.5t7 -16.5q0 -54 87 -54t87 54z" />
    <glyph glyph-name="ubreve" unicode="&#x16d;" horiz-adv-x="565" 
d="M75 189v223q0 13 8.5 21.5t21.5 8.5t21.5 -8.5t8.5 -21.5v-222q0 -69 36 -108t104 -39q65 0 107.5 44t42.5 116v209q0 13 8.5 21.5t21.5 8.5t21.5 -8.5t8.5 -21.5v-390q0 -13 -8.5 -21.5t-21.5 -8.5t-21.5 8.5t-8.5 21.5v52q-50 -86 -163 -86q-86 0 -136.5 56t-50.5 145z
M362 615q0 10 7 16.5t17 6.5q9 0 16 -6.5t7 -15.5q0 -52 -32.5 -79t-91.5 -27t-91.5 27t-32.5 79q0 9 7 15.5t16 6.5q10 0 17 -6.5t7 -16.5q0 -33 17.5 -48.5t59.5 -15.5t59.5 15.5t17.5 48.5z" />
    <glyph glyph-name="Uring" unicode="&#x16e;" horiz-adv-x="744" 
d="M372 -12q-130 0 -205.5 74t-75.5 200v382q0 13 8.5 21.5t21.5 8.5t21.5 -8.5t8.5 -21.5v-386q0 -102 54.5 -159.5t166.5 -57.5t166.5 57.5t54.5 159.5v386q0 13 8.5 21.5t21.5 8.5t21.5 -8.5t8.5 -21.5v-382q0 -126 -75.5 -200t-205.5 -74zM445 780q0 -30 -20.5 -50.5
t-51.5 -20.5t-51.5 20.5t-20.5 50.5t20.5 50.5t51.5 20.5t51.5 -20.5t20.5 -50.5zM411 780q0 17 -10.5 29t-27.5 12t-27.5 -12t-10.5 -29t10.5 -29t27.5 -12t27.5 12t10.5 29z" />
    <glyph glyph-name="uring" unicode="&#x16f;" horiz-adv-x="565" 
d="M75 189v223q0 13 8.5 21.5t21.5 8.5t21.5 -8.5t8.5 -21.5v-222q0 -69 36 -108t104 -39q65 0 107.5 44t42.5 116v209q0 13 8.5 21.5t21.5 8.5t21.5 -8.5t8.5 -21.5v-390q0 -13 -8.5 -21.5t-21.5 -8.5t-21.5 8.5t-8.5 21.5v52q-50 -86 -163 -86q-86 0 -136.5 56t-50.5 145z
M356 570q0 -30 -20.5 -50.5t-51.5 -20.5t-51.5 20.5t-20.5 50.5t20.5 50.5t51.5 20.5t51.5 -20.5t20.5 -50.5zM322 570q0 17 -10.5 29t-27.5 12t-27.5 -12t-10.5 -29t10.5 -29t27.5 -12t27.5 12t10.5 29z" />
    <glyph glyph-name="Uhungarumlaut" unicode="&#x170;" horiz-adv-x="744" 
d="M372 -12q-130 0 -205.5 74t-75.5 200v382q0 13 8.5 21.5t21.5 8.5t21.5 -8.5t8.5 -21.5v-386q0 -102 54.5 -159.5t166.5 -57.5t166.5 57.5t54.5 159.5v386q0 13 8.5 21.5t21.5 8.5t21.5 -8.5t8.5 -21.5v-382q0 -126 -75.5 -200t-205.5 -74zM260 747q0 7 6 16l45 65
q7 11 21 11q10 0 17.5 -6t7.5 -17q0 -9 -6 -17l-42 -60q-12 -16 -25 -16q-10 0 -17 7t-7 17zM420 747q0 7 6 16l45 65q7 11 21 11q10 0 17.5 -6t7.5 -17q0 -9 -6 -17l-42 -60q-12 -16 -25 -16q-10 0 -17 7t-7 17z" />
    <glyph glyph-name="uhungarumlaut" unicode="&#x171;" horiz-adv-x="565" 
d="M75 189v223q0 13 8.5 21.5t21.5 8.5t21.5 -8.5t8.5 -21.5v-222q0 -69 36 -108t104 -39q65 0 107.5 44t42.5 116v209q0 13 8.5 21.5t21.5 8.5t21.5 -8.5t8.5 -21.5v-390q0 -13 -8.5 -21.5t-21.5 -8.5t-21.5 8.5t-8.5 21.5v52q-50 -86 -163 -86q-86 0 -136.5 56t-50.5 145z
M170 536q0 7 6 16l72 102q7 11 21 11q10 0 17.5 -6t7.5 -17q0 -9 -6 -17l-69 -97q-12 -16 -25 -16q-10 0 -17 7t-7 17zM330 536q0 7 6 16l72 102q7 11 21 11q10 0 17.5 -6t7.5 -17q0 -9 -6 -17l-69 -97q-12 -16 -25 -16q-10 0 -17 7t-7 17z" />
    <glyph glyph-name="Uogonek" unicode="&#x172;" horiz-adv-x="744" 
d="M462 -137q13 4 20.5 -1.5t7.5 -15.5q0 -14 -14 -20q-24 -11 -58 -11q-39 0 -61 18.5t-22 50.5q0 34 35 64t78 48q-38 -8 -76 -8q-130 0 -205.5 74t-75.5 200v382q0 13 8.5 21.5t21.5 8.5t21.5 -8.5t8.5 -21.5v-386q0 -102 54.5 -159.5t166.5 -57.5t166.5 57.5t54.5 159.5
v386q0 13 8.5 21.5t21.5 8.5t21.5 -8.5t8.5 -21.5v-382q0 -152 -112 -229q-5 -4 -34.5 -23t-44 -30l-36 -28.5t-31.5 -33.5t-10 -30q0 -31 41 -31q14 0 36 6z" />
    <glyph glyph-name="uogonek" unicode="&#x173;" horiz-adv-x="565" 
d="M431 0q-6 7 -6 22v52q-50 -86 -163 -86q-86 0 -136.5 56t-50.5 145v223q0 13 8.5 21.5t21.5 8.5t21.5 -8.5t8.5 -21.5v-222q0 -69 36 -108t104 -39q65 0 107.5 44t42.5 116v209q0 13 8.5 21.5t21.5 8.5t21.5 -8.5t8.5 -21.5v-390q0 -17 -13 -25l-18 -12t-22.5 -15.5
t-21 -16.5t-20.5 -20t-12.5 -21t-5.5 -24q0 -31 41 -31q14 0 36 6q13 4 20.5 -1.5t7.5 -15.5q0 -14 -14 -20q-24 -11 -61 -11q-80 0 -80 66q0 40 32 70t77 49z" />
    <glyph glyph-name="Wcircumflex" unicode="&#x174;" horiz-adv-x="944" 
d="M499 653l188 -552l183 552q6 21 26 21q12 0 20 -7.5t8 -19.5q0 -4 -2 -12l-208 -624q-7 -19 -27 -19q-21 0 -27 19l-188 554l-188 -554q-6 -19 -27 -19q-20 0 -27 19l-208 624q-2 8 -2 12q0 12 8 19.5t20 7.5q20 0 26 -21l183 -552l188 552q6 21 27 21t27 -21zM491 831
l91 -69q9 -9 9 -19q0 -8 -7 -14t-16 -6q-8 0 -16 6l-80 57l-80 -57q-8 -6 -16 -6q-9 0 -16 6t-7 14q0 10 9 19l91 69q11 8 19 8t19 -8z" />
    <glyph glyph-name="wcircumflex" unicode="&#x175;" horiz-adv-x="644" 
d="M347 423l117 -334l109 333q7 20 25 20q12 0 20 -7t8 -19q0 -4 -2 -12l-132 -394q-7 -18 -27 -18q-21 0 -27 19l-116 330l-116 -330q-6 -19 -27 -19q-20 0 -27 18l-132 394q-2 8 -2 12q0 12 8 19t20 7q18 0 25 -20l109 -333l117 334q7 19 25 19t25 -19zM341 638l95 -88
q9 -9 9 -19q0 -8 -7 -14t-16 -6q-8 0 -16 6l-84 74l-84 -74q-7 -6 -16 -6t-16 6t-7 14q0 10 9 19l95 88q8 8 19 8t19 -8z" />
    <glyph glyph-name="Ycircumflex" unicode="&#x176;" horiz-adv-x="552" 
d="M541 630l-235 -338v-270q0 -13 -8.5 -21.5t-21.5 -8.5t-21.5 8.5t-8.5 21.5v270l-235 338q-6 9 -6 17q0 12 7.5 19.5t19.5 7.5q16 0 26 -14l218 -312l218 312q10 14 26 14q12 0 19.5 -7.5t7.5 -19.5q0 -8 -6 -17zM295 831l91 -69q9 -9 9 -19q0 -8 -7 -14t-16 -6
q-8 0 -16 6l-80 57l-80 -57q-8 -6 -16 -6q-9 0 -16 6t-7 14q0 10 9 19l91 69q11 8 19 8t19 -8z" />
    <glyph glyph-name="ycircumflex" unicode="&#x177;" horiz-adv-x="433" 
d="M418 415q0 -5 -3 -13l-147 -356q-68 -163 -191 -236q-8 -5 -18 -5q-12 0 -19 7t-7 18q0 15 18 25q84 58 136 148l-170 397q-4 10 -4 15q0 11 7.5 19t20.5 8q18 0 26 -19l151 -356l148 358q7 17 25 17q12 0 19.5 -7.5t7.5 -19.5zM238 638l95 -88q9 -9 9 -19q0 -8 -7 -14
t-16 -6t-16 6l-84 74l-84 -74q-7 -6 -16 -6t-16 6t-7 14q0 10 9 19l95 88q8 8 19 8t19 -8z" />
    <glyph glyph-name="Ydieresis" unicode="&#x178;" horiz-adv-x="552" 
d="M541 630l-235 -338v-270q0 -13 -8.5 -21.5t-21.5 -8.5t-21.5 8.5t-8.5 21.5v270l-235 338q-6 9 -6 17q0 12 7.5 19.5t19.5 7.5q16 0 26 -14l218 -312l218 312q10 14 26 14q12 0 19.5 -7.5t7.5 -19.5q0 -8 -6 -17zM138 785q0 17 12 28.5t28 11.5t28 -11.5t12 -28.5
t-12 -28.5t-28 -11.5t-28 11.5t-12 28.5zM334 785q0 17 12 28.5t28 11.5t28 -11.5t12 -28.5t-12 -28.5t-28 -11.5t-28 11.5t-12 28.5z" />
    <glyph glyph-name="Zacute" unicode="&#x179;" horiz-adv-x="637" 
d="M575 26q0 -11 -8 -18.5t-19 -7.5h-439q-12 0 -20.5 7t-8.5 19q0 8 7 19l401 569h-376q-11 0 -19 7.5t-8 18.5t8 18.5t19 7.5h427q28 0 28 -26q0 -10 -8 -20l-398 -568h387q11 0 19 -7.5t8 -18.5zM289 765l55 62q10 12 24 12q11 0 18 -7t7 -16q0 -11 -8 -20l-55 -59
q-13 -14 -24 -14q-10 0 -17.5 7t-7.5 16t8 19z" />
    <glyph glyph-name="zacute" unicode="&#x17a;" horiz-adv-x="467" 
d="M422 24q0 -24 -25 -24h-312q-10 0 -17.5 7t-7.5 17q0 8 7 19l273 343h-254q-10 0 -17.5 7t-7.5 17q0 11 7.5 17.5t17.5 6.5h308q11 0 18 -6.5t7 -17.5q0 -9 -6 -18l-274 -344h258q11 0 18 -7t7 -17zM195 536q0 7 6 16l72 102q7 11 21 11q10 0 17.5 -6t7.5 -17
q0 -9 -6 -17l-69 -97q-12 -16 -25 -16q-10 0 -17 7t-7 17z" />
    <glyph glyph-name="Zdotaccent" unicode="&#x17b;" horiz-adv-x="637" 
d="M575 26q0 -11 -8 -18.5t-19 -7.5h-439q-12 0 -20.5 7t-8.5 19q0 8 7 19l401 569h-376q-11 0 -19 7.5t-8 18.5t8 18.5t19 7.5h427q28 0 28 -26q0 -10 -8 -20l-398 -568h387q11 0 19 -7.5t8 -18.5zM288 779q0 16 11 27t27 11t27 -11t11 -27t-11 -27t-27 -11t-27 11t-11 27z
" />
    <glyph glyph-name="zdotaccent" unicode="&#x17c;" horiz-adv-x="467" 
d="M422 24q0 -24 -25 -24h-312q-10 0 -17.5 7t-7.5 17q0 8 7 19l273 343h-254q-10 0 -17.5 7t-7.5 17q0 11 7.5 17.5t17.5 6.5h308q11 0 18 -6.5t7 -17.5q0 -9 -6 -18l-274 -344h258q11 0 18 -7t7 -17zM204 566q0 16 11 27t27 11t27 -11t11 -27t-11 -27t-27 -11t-27 11
t-11 27z" />
    <glyph glyph-name="Zcaron" unicode="&#x17d;" horiz-adv-x="637" 
d="M575 26q0 -11 -8 -18.5t-19 -7.5h-439q-12 0 -20.5 7t-8.5 19q0 8 7 19l401 569h-376q-11 0 -19 7.5t-8 18.5t8 18.5t19 7.5h427q28 0 28 -26q0 -10 -8 -20l-398 -568h387q11 0 19 -7.5t8 -18.5zM434 798l-91 -69q-11 -8 -19 -8t-19 8l-91 69q-9 9 -9 19q0 8 7 14t16 6
q8 0 16 -6l80 -57l80 57q8 6 16 6q9 0 16 -6t7 -14q0 -10 -9 -19z" />
    <glyph glyph-name="zcaron" unicode="&#x17e;" horiz-adv-x="467" 
d="M422 24q0 -24 -25 -24h-312q-10 0 -17.5 7t-7.5 17q0 8 7 19l273 343h-254q-10 0 -17.5 7t-7.5 17q0 11 7.5 17.5t17.5 6.5h308q11 0 18 -6.5t7 -17.5q0 -9 -6 -18l-274 -344h258q11 0 18 -7t7 -17zM360 604l-95 -88q-8 -8 -19 -8t-19 8l-95 88q-9 9 -9 19q0 8 7 14t16 6
q8 0 16 -6l84 -74l84 74q8 6 16 6q9 0 16 -6t7 -14q0 -10 -9 -19z" />
    <glyph glyph-name="florin" unicode="&#x192;" horiz-adv-x="559" 
d="M509 649q0 -26 -31 -26h-24q-57 0 -80 -23.5t-34 -84.5l-23 -131h96q24 0 24 -22q0 -12 -8.5 -20t-21.5 -8h-99l-64 -364q-15 -87 -53 -126t-128 -39h-22q-24 0 -24 22q0 13 8.5 20.5t20.5 7.5h23q56 0 79 24t34 85l66 370h-64q-10 0 -17 6.5t-7 15.5q0 28 30 28h67
l24 132q16 88 54.5 122.5t124.5 34.5h22q27 0 27 -24z" />
    <glyph glyph-name="Aringacute" unicode="&#x1fa;" horiz-adv-x="716" 
d="M430 715q0 -47 -42 -65l276 -617q4 -8 4 -14q0 -12 -8 -19.5t-21 -7.5q-19 0 -27 19l-82 183h-344l-82 -183q-8 -19 -27 -19q-13 0 -21 7.5t-8 19.5q0 6 4 14l276 617q-42 18 -42 65q0 30 20.5 50.5t51.5 20.5t51.5 -20.5t20.5 -50.5zM209 247h298l-149 343zM396 715
q0 17 -10.5 29t-27.5 12t-27.5 -12t-10.5 -29t10.5 -29t27.5 -12t27.5 12t10.5 29zM343 870l39 44q10 12 24 12q11 0 18 -7t7 -16q0 -11 -8 -20l-39 -41q-13 -14 -24 -14q-10 0 -17.5 7t-7.5 16t8 19z" />
    <glyph glyph-name="aringacute" unicode="&#x1fb;" horiz-adv-x="516" 
d="M325 570q0 -30 -20.5 -50.5t-51.5 -20.5t-51.5 20.5t-20.5 50.5t20.5 50.5t51.5 20.5t51.5 -20.5t20.5 -50.5zM291 570q0 17 -10.5 29t-27.5 12t-27.5 -12t-10.5 -29t10.5 -29t27.5 -12t27.5 12t10.5 29zM233 711q0 7 6 16l38 54q7 11 21 11q10 0 17.5 -6t7.5 -17
q0 -9 -6 -17l-35 -49q-12 -16 -25 -16q-10 0 -17 7t-7 17zM441 22q0 -13 -8 -21.5t-22 -8.5t-22 8.5t-8 21.5v22q-50 -56 -149 -56q-79 0 -127 37t-48 94q0 60 50.5 96.5t133.5 36.5q46 0 83.5 -16t56.5 -38v59q0 71 -35.5 104.5t-109.5 33.5q-60 0 -123 -26q-9 -3 -14 -3
q-26 0 -26 25q0 15 15 22q64 33 153 33q95 0 147.5 -49t52.5 -139v-236zM381 119q0 39 -41 63.5t-95 24.5q-58 0 -93 -24t-35 -64t34 -63.5t90 -23.5q57 0 98.5 24.5t41.5 62.5z" />
    <glyph glyph-name="AEacute" unicode="&#x1fc;" horiz-adv-x="940" 
d="M636 0q-20 0 -28 19l-78 175h-344l-82 -183q-8 -19 -27 -19q-13 0 -21 7.5t-8 19.5q0 6 4 14l278 613q9 20 30 20h507q11 0 19 -8t8 -19t-8 -19t-19 -8h-466l109 -241h208q11 0 19 -8t8 -19t-8 -19t-19 -8h-183l119 -263h214q11 0 19 -8t8 -19t-8 -19t-19 -8h-232z
M209 247h298l-149 338zM356 765l55 62q10 12 24 12q11 0 18 -7t7 -16q0 -11 -8 -20l-55 -59q-13 -14 -24 -14q-10 0 -17.5 7t-7.5 16t8 19z" />
    <glyph glyph-name="aeacute" unicode="&#x1fd;" horiz-adv-x="867" 
d="M604 446q92 0 151 -63.5t59 -160.5q0 -10 -7.5 -17.5t-17.5 -7.5h-347q0 -66 43.5 -112.5t124.5 -46.5q82 0 136 64q11 13 23 13q11 0 18 -7.5t7 -17.5q0 -9 -6 -18q-27 -37 -74 -60.5t-104 -23.5q-65 0 -113.5 26t-71.5 64q-59 -90 -190 -90q-82 0 -130 36.5t-48 94.5
q0 60 50.5 96.5t133.5 36.5q46 0 83.5 -16t56.5 -38v59q0 71 -35.5 104.5t-109.5 33.5q-60 0 -123 -26q-9 -3 -14 -3q-26 0 -26 25q0 15 15 22q64 33 153 33q139 0 176 -107q61 107 187 107zM381 119q0 39 -41 63.5t-95 24.5q-58 0 -93 -24t-35 -64q0 -41 33 -64t91 -23
q57 0 98.5 24.5t41.5 62.5zM759 247q-6 64 -49 106.5t-106 42.5q-65 0 -110 -42.5t-50 -106.5h315zM251 536q0 7 6 16l72 102q7 11 21 11q10 0 17.5 -6t7.5 -17q0 -9 -6 -17l-69 -97q-12 -16 -25 -16q-10 0 -17 7t-7 17z" />
    <glyph glyph-name="Oslashacute" unicode="&#x1fe;" horiz-adv-x="774" 
d="M59 -25l92 109q-99 101 -99 249q0 143 94.5 244t241.5 101q116 0 203 -68l92 110q8 8 17 8q22 0 22 -22q0 -7 -5 -14l-93 -111q98 -100 98 -248q0 -143 -93.5 -244t-240.5 -101q-118 0 -205 68l-90 -108q-8 -10 -19 -10q-8 0 -15 6.5t-7 14.5q0 7 7 16zM112 333
q0 -123 75 -206l369 441q-70 57 -168 57q-124 0 -200 -86t-76 -206zM662 333q0 122 -74 205l-370 -440q71 -57 170 -57q124 0 199 86t75 206zM370 765l55 62q10 12 24 12q11 0 18 -7t7 -16q0 -11 -8 -20l-55 -59q-13 -14 -24 -14q-10 0 -17.5 7t-7.5 16t8 19z" />
    <glyph glyph-name="oslashacute" unicode="&#x1ff;" horiz-adv-x="560" 
d="M58 -29l63 79q-69 64 -69 167q0 97 64.5 163t163.5 66q70 0 128 -37l63 79q6 8 16 8q19 0 21 -18q0 -8 -5 -14l-64 -80q69 -67 69 -167q0 -97 -64.5 -163t-163.5 -66q-74 0 -128 37l-62 -77q-9 -10 -17 -10q-7 0 -14 5t-7 13q0 7 6 15zM448 217q0 72 -45 122l-217 -271
q42 -28 94 -28q71 0 119.5 50.5t48.5 126.5zM112 217q0 -72 44 -123l217 272q-40 28 -93 28q-71 0 -119.5 -50.5t-48.5 -126.5zM247 536q0 7 6 16l72 102q7 11 21 11q10 0 17.5 -6t7.5 -17q0 -9 -6 -17l-69 -97q-12 -16 -25 -16q-10 0 -17 7t-7 17z" />
    <glyph glyph-name="Scommaaccent" unicode="&#x218;" horiz-adv-x="634" 
d="M579 165q0 -81 -66.5 -129t-181.5 -48q-145 0 -252 83q-14 12 -14 25q0 10 7 17t18 7t24 -9q101 -71 216 -71q89 0 139 33.5t50 89.5q0 53 -46.5 84t-145.5 61q-141 43 -194.5 90t-53.5 110q0 83 70.5 126.5t177.5 43.5q121 0 215 -64q14 -9 14 -21q0 -10 -7 -18t-20 -8
q-8 0 -16 5q-88 54 -187 54q-83 0 -135 -29.5t-52 -88.5q0 -49 42 -80.5t147 -65.5q48 -16 74 -25.5t60 -24t51.5 -27.5t34.5 -31t24 -40t7 -49zM361 -135q0 -65 -17 -119q-8 -27 -30 -27q-25 0 -25 24q0 5 5 20q15 46 15 98v36q0 28 26 28t26 -28v-32z" />
    <glyph glyph-name="scommaaccent" unicode="&#x219;" horiz-adv-x="468" 
d="M418 109q0 -54 -46 -87.5t-127 -33.5q-100 0 -168 57q-12 9 -12 23q0 10 6.5 16t16.5 6q12 0 23 -9q60 -47 137 -47q52 0 82 19.5t30 52.5q0 24 -17.5 40.5t-37 24t-60.5 18.5q-97 27 -136 59.5t-39 81.5q0 57 46 86.5t126 29.5q71 0 135 -35q27 -13 27 -30
q0 -23 -25 -23q-8 0 -24 9q-56 30 -114 30q-113 0 -113 -65q0 -31 26 -50t96 -39q88 -26 128 -53t40 -81zM275 -135q0 -65 -17 -119q-8 -27 -30 -27q-25 0 -25 24q0 5 5 20q15 46 15 98v36q0 28 26 28t26 -28v-32z" />
    <glyph glyph-name="circumflex" unicode="&#x2c6;" horiz-adv-x="366" 
d="M202 638l95 -88q9 -9 9 -19q0 -8 -7 -14t-16 -6t-16 6l-84 74l-84 -74q-7 -6 -16 -6t-16 6t-7 14q0 10 9 19l95 88q8 8 19 8t19 -8z" />
    <glyph glyph-name="caron" unicode="&#x2c7;" horiz-adv-x="366" 
d="M297 604l-95 -88q-8 -8 -19 -8t-19 8l-95 88q-9 9 -9 19q0 8 7 14t16 6t16 -6l84 -74l84 74q7 6 16 6t16 -6t7 -14q0 -10 -9 -19z" />
    <glyph glyph-name="breve" unicode="&#x2d8;" horiz-adv-x="368" 
d="M261 615q0 10 7 16.5t17 6.5q9 0 16 -6.5t7 -15.5q0 -52 -32.5 -79t-91.5 -27t-91.5 27t-32.5 79q0 9 7 15.5t16 6.5q10 0 17 -6.5t7 -16.5q0 -33 17.5 -48.5t59.5 -15.5t59.5 15.5t17.5 48.5z" />
    <glyph glyph-name="dotaccent" unicode="&#x2d9;" horiz-adv-x="230" 
d="M77 566q0 16 11 27t27 11t27 -11t11 -27t-11 -27t-27 -11t-27 11t-11 27z" />
    <glyph glyph-name="ring" unicode="&#x2da;" horiz-adv-x="284" 
d="M214 570q0 -30 -20.5 -50.5t-51.5 -20.5t-51.5 20.5t-20.5 50.5t20.5 50.5t51.5 20.5t51.5 -20.5t20.5 -50.5zM180 570q0 17 -10.5 29t-27.5 12t-27.5 -12t-10.5 -29t10.5 -29t27.5 -12t27.5 12t10.5 29z" />
    <glyph glyph-name="ogonek" unicode="&#x2db;" horiz-adv-x="320" 
d="M202 -137q13 4 20.5 -1.5t7.5 -15.5q0 -14 -14 -20q-24 -11 -58 -11q-39 0 -61 18.5t-22 50.5q0 38 32 68t78 48h45q-105 -64 -105 -112q0 -31 41 -31q14 0 36 6z" />
    <glyph glyph-name="tilde" unicode="&#x2dc;" horiz-adv-x="402" 
d="M256 519q-22 0 -59 21q-33 18 -47 18q-21 0 -37 -19l-11 -12q-9 -9 -19 -9q-9 0 -16 6t-7 15t6 16l10 13q30 37 74 37q26 0 51 -14q6 -3 16 -9t15 -8.5t11.5 -5t11.5 -2.5q14 0 35 21l10 10q9 9 19 9q9 0 16 -5.5t7 -14.5q0 -10 -6 -17l-12 -15q-32 -35 -68 -35z" />
    <glyph glyph-name="hungarumlaut" unicode="&#x2dd;" horiz-adv-x="474" 
d="M105 536q0 7 6 16l72 102q7 11 21 11q10 0 17.5 -6t7.5 -17q0 -9 -6 -17l-69 -97q-12 -16 -25 -16q-10 0 -17 7t-7 17zM265 536q0 7 6 16l72 102q7 11 21 11q10 0 17.5 -6t7.5 -17q0 -9 -6 -17l-69 -97q-12 -16 -25 -16q-10 0 -17 7t-7 17z" />
    <glyph glyph-name="Omega" unicode="&#x3a9;" horiz-adv-x="832" 
d="M416 625q-124 0 -200 -80t-76 -201q0 -87 50 -164t131 -127q18 -10 18 -26q0 -12 -8 -19.5t-20 -7.5h-188q-12 0 -20 8t-8 20t8 20t20 8h110q-153 128 -153 290q0 144 92.5 238t243.5 94t243.5 -94t92.5 -238q0 -162 -153 -290h110q12 0 20 -8t8 -20t-8 -20t-20 -8h-188
q-12 0 -20 7.5t-8 19.5q0 16 18 26q81 50 131 127t50 164q0 121 -76 201t-200 80z" />
    <glyph glyph-name="pi" unicode="&#x3c0;" horiz-adv-x="654" 
d="M599 409q0 -11 -7.5 -18t-17.5 -7h-107v-278q0 -34 13 -48t48 -14h22q24 0 24 -23q0 -11 -7 -17.5t-17 -6.5h-29q-57 0 -84.5 23.5t-27.5 80.5v283h-188v-364q0 -12 -8.5 -20t-20.5 -8q-13 0 -21 8t-8 20v364h-93q-10 0 -17.5 7t-7.5 18t7.5 18t17.5 7h504q10 0 17.5 -7
t7.5 -18z" />
    <glyph glyph-name="Wgrave" unicode="&#x1e80;" horiz-adv-x="944" 
d="M499 653l188 -552l183 552q6 21 26 21q12 0 20 -7.5t8 -19.5q0 -4 -2 -12l-208 -624q-7 -19 -27 -19q-21 0 -27 19l-188 554l-188 -554q-6 -19 -27 -19q-20 0 -27 19l-208 624q-2 8 -2 12q0 12 8 19.5t20 7.5q20 0 26 -21l183 -552l188 552q6 21 27 21t27 -21zM432 827
l55 -62q8 -10 8 -19t-7.5 -16t-17.5 -7q-11 0 -24 14l-55 59q-8 9 -8 20q0 9 7 16t18 7q14 0 24 -12z" />
    <glyph glyph-name="wgrave" unicode="&#x1e81;" horiz-adv-x="644" 
d="M347 423l117 -334l109 333q7 20 25 20q12 0 20 -7t8 -19q0 -4 -2 -12l-132 -394q-7 -18 -27 -18q-21 0 -27 19l-116 330l-116 -330q-6 -19 -27 -19q-20 0 -27 18l-132 394q-2 8 -2 12q0 12 8 19t20 7q18 0 25 -20l109 -333l117 334q7 19 25 19t25 -19zM337 536
q0 -10 -7 -17t-17 -7q-14 0 -25 16l-69 97q-6 8 -6 17q0 10 7.5 16.5t17.5 6.5q14 0 21 -11l72 -102q6 -9 6 -16z" />
    <glyph glyph-name="Wacute" unicode="&#x1e82;" horiz-adv-x="944" 
d="M499 653l188 -552l183 552q6 21 26 21q12 0 20 -7.5t8 -19.5q0 -4 -2 -12l-208 -624q-7 -19 -27 -19q-21 0 -27 19l-188 554l-188 -554q-6 -19 -27 -19q-20 0 -27 19l-208 624q-2 8 -2 12q0 12 8 19.5t20 7.5q20 0 26 -21l183 -552l188 552q6 21 27 21t27 -21zM456 765
l55 62q10 12 24 12q11 0 18 -7t7 -16q0 -11 -8 -20l-55 -59q-13 -14 -24 -14q-10 0 -17.5 7t-7.5 16t8 19z" />
    <glyph glyph-name="wacute" unicode="&#x1e83;" horiz-adv-x="644" 
d="M347 423l117 -334l109 333q7 20 25 20q12 0 20 -7t8 -19q0 -4 -2 -12l-132 -394q-7 -18 -27 -18q-21 0 -27 19l-116 330l-116 -330q-6 -19 -27 -19q-20 0 -27 18l-132 394q-2 8 -2 12q0 12 8 19t20 7q18 0 25 -20l109 -333l117 334q7 19 25 19t25 -19zM302 536q0 7 6 16
l72 102q7 11 21 11q10 0 17.5 -6t7.5 -17q0 -9 -6 -17l-69 -97q-12 -16 -25 -16q-10 0 -17 7t-7 17z" />
    <glyph glyph-name="Wdieresis" unicode="&#x1e84;" horiz-adv-x="944" 
d="M499 653l188 -552l183 552q6 21 26 21q12 0 20 -7.5t8 -19.5q0 -4 -2 -12l-208 -624q-7 -19 -27 -19q-21 0 -27 19l-188 554l-188 -554q-6 -19 -27 -19q-20 0 -27 19l-208 624q-2 8 -2 12q0 12 8 19.5t20 7.5q20 0 26 -21l183 -552l188 552q6 21 27 21t27 -21zM334 785
q0 17 12 28.5t28 11.5t28 -11.5t12 -28.5t-12 -28.5t-28 -11.5t-28 11.5t-12 28.5zM530 785q0 17 12 28.5t28 11.5t28 -11.5t12 -28.5t-12 -28.5t-28 -11.5t-28 11.5t-12 28.5z" />
    <glyph glyph-name="wdieresis" unicode="&#x1e85;" horiz-adv-x="644" 
d="M347 423l117 -334l109 333q7 20 25 20q12 0 20 -7t8 -19q0 -4 -2 -12l-132 -394q-7 -18 -27 -18q-21 0 -27 19l-116 330l-116 -330q-6 -19 -27 -19q-20 0 -27 18l-132 394q-2 8 -2 12q0 12 8 19t20 7q18 0 25 -20l109 -333l117 334q7 19 25 19t25 -19zM199 565
q0 17 11.5 28.5t28.5 11.5t28.5 -11.5t11.5 -28.5t-11.5 -28.5t-28.5 -11.5t-28.5 11.5t-11.5 28.5zM365 565q0 17 11.5 28.5t28.5 11.5t28.5 -11.5t11.5 -28.5t-11.5 -28.5t-28.5 -11.5t-28.5 11.5t-11.5 28.5z" />
    <glyph glyph-name="Ygrave" unicode="&#x1ef2;" horiz-adv-x="552" 
d="M541 630l-235 -338v-270q0 -13 -8.5 -21.5t-21.5 -8.5t-21.5 8.5t-8.5 21.5v270l-235 338q-6 9 -6 17q0 12 7.5 19.5t19.5 7.5q16 0 26 -14l218 -312l218 312q10 14 26 14q12 0 19.5 -7.5t7.5 -19.5q0 -8 -6 -17zM235 827l55 -62q8 -10 8 -19t-7.5 -16t-17.5 -7
q-11 0 -24 14l-55 59q-8 9 -8 20q0 9 7 16t18 7q14 0 24 -12z" />
    <glyph glyph-name="ygrave" unicode="&#x1ef3;" horiz-adv-x="433" 
d="M418 415q0 -5 -3 -13l-147 -356q-68 -163 -191 -236q-8 -5 -18 -5q-12 0 -19 7t-7 18q0 15 18 25q84 58 136 148l-170 397q-4 10 -4 15q0 11 7.5 19t20.5 8q18 0 26 -19l151 -356l148 358q7 17 25 17q12 0 19.5 -7.5t7.5 -19.5zM248 536q0 -10 -7 -17t-17 -7
q-14 0 -25 16l-69 97q-6 8 -6 17q0 10 7.5 16.5t17.5 6.5q14 0 21 -11l72 -102q6 -9 6 -16z" />
    <glyph glyph-name="endash" unicode="&#x2013;" horiz-adv-x="571" 
d="M96 223q-11 0 -18.5 6.5t-7.5 18.5t7.5 18.5t18.5 6.5h379q11 0 18.5 -6.5t7.5 -18.5t-7.5 -18.5t-18.5 -6.5h-379z" />
    <glyph glyph-name="emdash" unicode="&#x2014;" horiz-adv-x="767" 
d="M96 223q-11 0 -18.5 6.5t-7.5 18.5t7.5 18.5t18.5 6.5h575q11 0 18.5 -6.5t7.5 -18.5t-7.5 -18.5t-18.5 -6.5h-575z" />
    <glyph glyph-name="quoteleft" unicode="&#x2018;" horiz-adv-x="219" 
d="M75 487q0 87 27 160q10 27 31 27q26 0 26 -24q0 -5 -5 -20q-25 -74 -25 -143v-43q0 -12 -7.5 -20t-19.5 -8t-19.5 8t-7.5 20v43z" />
    <glyph glyph-name="quoteright" unicode="&#x2019;" horiz-adv-x="219" 
d="M154 603q0 -87 -27 -160q-10 -27 -31 -27q-26 0 -26 24q0 5 5 20q25 74 25 143v43q0 12 7.5 20t19.5 8t19.5 -8t7.5 -20v-43z" />
    <glyph glyph-name="quotesinglbase" unicode="&#x201a;" horiz-adv-x="206" 
d="M131 25q0 -87 -27 -160q-10 -27 -31 -27q-26 0 -26 24q0 5 5 20q25 74 25 143v43q0 12 7.5 20t19.5 8t19.5 -8t7.5 -20v-43z" />
    <glyph glyph-name="quotedblleft" unicode="&#x201c;" horiz-adv-x="396" 
d="M252 487q0 87 27 160q10 27 31 27q26 0 26 -24q0 -5 -5 -20q-25 -74 -25 -143v-43q0 -12 -7.5 -20t-19.5 -8t-19.5 8t-7.5 20v43zM75 487q0 87 27 160q10 27 31 27q26 0 26 -24q0 -5 -5 -20q-25 -74 -25 -143v-43q0 -12 -7.5 -20t-19.5 -8t-19.5 8t-7.5 20v43z" />
    <glyph glyph-name="quotedblright" unicode="&#x201d;" horiz-adv-x="396" 
d="M154 603q0 -87 -27 -160q-10 -27 -31 -27q-26 0 -26 24q0 5 5 20q25 74 25 143v43q0 12 7.5 20t19.5 8t19.5 -8t7.5 -20v-43zM331 603q0 -87 -27 -160q-10 -27 -31 -27q-26 0 -26 24q0 5 5 20q25 74 25 143v43q0 12 7.5 20t19.5 8t19.5 -8t7.5 -20v-43z" />
    <glyph glyph-name="quotedblbase" unicode="&#x201e;" horiz-adv-x="383" 
d="M131 25q0 -87 -27 -160q-10 -27 -31 -27q-26 0 -26 24q0 5 5 20q25 74 25 143v43q0 12 7.5 20t19.5 8t19.5 -8t7.5 -20v-43zM308 25q0 -87 -27 -160q-10 -27 -31 -27q-26 0 -26 24q0 5 5 20q25 74 25 143v43q0 12 7.5 20t19.5 8t19.5 -8t7.5 -20v-43z" />
    <glyph glyph-name="dagger" unicode="&#x2020;" horiz-adv-x="460" 
d="M89 502h112v143q0 12 8.5 20.5t20.5 8.5t20.5 -8.5t8.5 -20.5v-143h112q12 0 20.5 -7t8.5 -19t-8.5 -19t-20.5 -7h-112v-501q0 -12 -8.5 -20.5t-20.5 -8.5t-20.5 8.5t-8.5 20.5v501h-112q-12 0 -20.5 7t-8.5 19t8.5 19t20.5 7z" />
    <glyph glyph-name="daggerdbl" unicode="&#x2021;" horiz-adv-x="500" 
d="M221 92h-112q-12 0 -20.5 7t-8.5 19t8.5 19t20.5 7h112v306h-112q-12 0 -20.5 7t-8.5 19t8.5 19t20.5 7h112v143q0 12 8.5 20.5t20.5 8.5t20.5 -8.5t8.5 -20.5v-143h112q12 0 20.5 -7t8.5 -19t-8.5 -19t-20.5 -7h-112v-306h112q12 0 20.5 -7t8.5 -19t-8.5 -19t-20.5 -7
h-112v-143q0 -12 -8.5 -20.5t-20.5 -8.5t-20.5 8.5t-8.5 20.5v143z" />
    <glyph glyph-name="bullet" unicode="&#x2022;" horiz-adv-x="354" 
d="M65 321q0 47 32.5 79.5t79.5 32.5t79.5 -32.5t32.5 -79.5t-32.5 -79.5t-79.5 -32.5t-79.5 32.5t-32.5 79.5z" />
    <glyph glyph-name="ellipsis" unicode="&#x2026;" horiz-adv-x="702" 
d="M75 36q0 17 12.5 29.5t29.5 12.5t29.5 -12.5t12.5 -29.5t-12.5 -29.5t-29.5 -12.5t-29.5 12.5t-12.5 29.5zM309 36q0 17 12.5 29.5t29.5 12.5t29.5 -12.5t12.5 -29.5t-12.5 -29.5t-29.5 -12.5t-29.5 12.5t-12.5 29.5zM543 36q0 17 12.5 29.5t29.5 12.5t29.5 -12.5
t12.5 -29.5t-12.5 -29.5t-29.5 -12.5t-29.5 12.5t-12.5 29.5z" />
    <glyph glyph-name="perthousand" unicode="&#x2030;" horiz-adv-x="1248" 
d="M785 147q0 -67 -46 -113t-114 -46t-114 46t-46 113q0 66 46 112.5t114 46.5t114 -46.5t46 -112.5zM643 651q0 -8 -5 -16l-389 -634q-7 -13 -21 -13q-11 0 -17.5 7t-6.5 17q0 7 9 22l384 628q7 13 22 13q10 0 17 -6.5t7 -17.5zM734 147q0 48 -30 81t-79 33t-79 -33
t-30 -81t30 -81t79 -33t79 33t30 81zM380 519q0 -67 -46 -113t-114 -46t-114 46t-46 113q0 66 46 112.5t114 46.5t114 -46.5t46 -112.5zM329 519q0 48 -30 81t-79 33t-79 -33t-30 -81t30 -81t79 -33t79 33t30 81zM1186 147q0 -67 -46 -113t-114 -46t-114 46t-46 113
q0 66 46 112.5t114 46.5t114 -46.5t46 -112.5zM1135 147q0 48 -30 81t-79 33t-79 -33t-30 -81t30 -81t79 -33t79 33t30 81z" />
    <glyph glyph-name="guilsinglleft" unicode="&#x2039;" horiz-adv-x="342" 
d="M272 367q0 -11 -10 -21l-141 -133l141 -133q10 -10 10 -21q0 -10 -8 -17t-19 -7q-9 0 -19 8l-158 152q-8 8 -8 18t8 18l158 152q10 8 19 8q11 0 19 -7t8 -17z" />
    <glyph glyph-name="guilsinglright" unicode="&#x203a;" horiz-adv-x="342" 
d="M70 367q0 10 8 17t19 7q9 0 19 -8l158 -152q8 -8 8 -18t-8 -18l-158 -152q-10 -8 -19 -8q-11 0 -19 7t-8 17q0 11 10 21l141 133l-141 133q-10 10 -10 21z" />
    <glyph glyph-name="fraction" unicode="&#x2044;" horiz-adv-x="486" 
d="M475 640l-424 -639q-9 -13 -22 -13q-10 0 -17 6t-7 16q0 7 5 15l424 639q8 14 23 14q24 0 24 -22q0 -7 -6 -16z" />
    <glyph glyph-name="Euro" unicode="&#x20ac;" horiz-adv-x="714" 
d="M419 678q142 0 223 -141q7 -12 7 -20q0 -12 -8 -19.5t-20 -7.5q-15 0 -23 14q-36 62 -78.5 92t-100.5 30q-79 0 -131 -52.5t-72 -137.5h224q11 0 18.5 -6.5t7.5 -16.5t-7.5 -16.5t-18.5 -6.5h-232q-3 -28 -3 -57q0 -30 3 -57h232q11 0 18.5 -6.5t7.5 -16.5t-7.5 -16.5
t-18.5 -6.5h-224q20 -85 72 -137.5t131 -52.5q58 0 100.5 30t78.5 92q8 14 23 14q12 0 20 -7.5t8 -19.5q0 -8 -7 -20q-81 -141 -223 -141q-103 0 -172 66.5t-92 175.5h-89q-11 0 -18.5 6.5t-7.5 16.5t7.5 16.5t18.5 6.5h82q-3 27 -3 57q0 29 3 57h-82q-11 0 -18.5 6.5
t-7.5 16.5t7.5 16.5t18.5 6.5h89q23 109 92 175.5t172 66.5z" />
    <glyph glyph-name="uni2113" unicode="&#x2113;" horiz-adv-x="541" 
d="M37 214q80 32 107 44v224q0 98 49 147t131 49q74 0 115.5 -42t41.5 -113q0 -118 -141 -216q-54 -38 -136 -77v-80q0 -53 23.5 -81.5t86.5 -28.5q55 0 128 34q16 6 27 -1t11 -21q0 -17 -21 -27q-70 -37 -151 -37q-91 0 -127.5 44.5t-36.5 134.5v37q-49 -21 -89 -35
q-15 -6 -25 1.5t-10 19.5q0 17 17 24zM204 483v-197q219 103 219 236q0 50 -26 77.5t-74 27.5q-119 0 -119 -144z" />
    <glyph glyph-name="uni2116" unicode="&#x2116;" horiz-adv-x="1085" 
d="M628 20q0 -12 -7.5 -20t-21.5 -8q-13 0 -23 13l-424 559v-544q0 -11 -8 -19.5t-20 -8.5t-20.5 8t-8.5 20v625q0 13 8.5 21t21.5 8q14 0 23 -13l423 -560v544q0 13 8 21t21 8q12 0 20 -8.5t8 -20.5v-625zM1050 526q0 -64 -42 -109t-110 -45t-110 45t-42 109t41.5 108
t110.5 44t110.5 -44t41.5 -108zM898 417q49 0 76 32.5t27 76.5q0 43 -27 74.5t-76 31.5t-76 -31.5t-27 -74.5q0 -44 27 -76.5t76 -32.5zM1017 313q28 0 28 -22t-28 -22h-238q-28 0 -28 22t28 22h238z" />
    <glyph glyph-name="trademark" unicode="&#x2122;" horiz-adv-x="742" 
d="M316 648q0 -8 -6 -13.5t-14 -5.5h-90v-241q0 -9 -6 -14.5t-14 -5.5q-21 0 -21 20v241h-90q-8 0 -14 5.5t-6 13.5q0 18 20 18h221q20 0 20 -18zM517 424l112 232q7 14 19 14q19 0 19 -19v-264q0 -19 -19 -19q-8 0 -14 5.5t-6 13.5v185l-92 -192q-7 -12 -19 -12t-19 12
l-92 192v-185q0 -8 -6 -13.5t-14 -5.5q-19 0 -19 19v264q0 19 19 19q12 0 19 -14z" />
    <glyph glyph-name="estimated" unicode="&#x212e;" horiz-adv-x="844" 
d="M779 333v-6q0 -16 -16 -16h-556v-213q92 -77 215 -77q84 0 149 28.5t130 90.5q7 7 15 7q7 0 12 -5t5 -11q0 -7 -7 -14q-66 -62 -137 -95.5t-167 -33.5q-149 0 -253 103t-104 242q0 140 106 242.5t251 102.5t251 -103.5t106 -241.5zM422 645q-122 0 -215 -81v-221h430v221
q-93 81 -215 81z" />
    <glyph glyph-name="partialdiff" unicode="&#x2202;" horiz-adv-x="576" 
d="M60 161q0 110 65.5 174.5t174.5 64.5q52 0 92 -24.5t62 -62.5v9q0 110 -54 192.5t-152 118.5q-15 6 -15 21q0 24 26 24q9 0 25 -7q104 -45 165.5 -134t61.5 -207q0 -153 -70.5 -249t-194.5 -96q-91 0 -138.5 52.5t-47.5 123.5zM439 225q0 54 -37.5 89t-100.5 35
q-83 0 -132.5 -49.5t-49.5 -135.5q0 -57 31.5 -93t98.5 -36q80 0 135 56.5t55 133.5z" />
    <glyph glyph-name="Delta" unicode="&#x2206;" horiz-adv-x="692" 
d="M370 656l254 -611q1 -3 2 -5.5l2 -5t2 -4.5q2 -6 2 -9q0 -21 -27 -21h-518q-27 0 -27 21q0 3 2 9q1 2 2 4.5l2 5t2 5.5l254 611q7 18 24 18t24 -18zM130 49h432l-216 533z" />
    <glyph glyph-name="product" unicode="&#x220f;" horiz-adv-x="751" 
d="M680 666q11 0 18.5 -7.5t7.5 -17.5q0 -11 -7.5 -18t-18.5 -7h-124v-596q0 -12 -8.5 -20t-19.5 -8t-19.5 8t-8.5 20v596h-249v-596q0 -12 -8.5 -20t-19.5 -8t-19.5 8t-8.5 20v596h-124q-11 0 -18.5 7t-7.5 18q0 10 7.5 17.5t18.5 7.5h609z" />
    <glyph glyph-name="summation" unicode="&#x2211;" horiz-adv-x="579" 
d="M382 324l-228 -341h324q11 0 18.5 -7t7.5 -18t-7.5 -18.5t-18.5 -7.5h-377q-11 0 -18.5 7.5t-7.5 18.5q0 8 7 17l242 366l-242 366q-7 9 -7 17q0 11 7.5 18.5t18.5 7.5h377q11 0 18.5 -7.5t7.5 -18.5t-7.5 -18t-18.5 -7h-324l228 -341q7 -9 7 -17t-7 -17z" />
    <glyph glyph-name="minus" unicode="&#x2212;" horiz-adv-x="561" 
d="M111 298q-11 0 -18.5 6.5t-7.5 18.5t7.5 18.5t18.5 6.5h339q11 0 18.5 -6.5t7.5 -18.5t-7.5 -18.5t-18.5 -6.5h-339z" />
    <glyph glyph-name="radical" unicode="&#x221a;" horiz-adv-x="562" 
d="M497 652q0 -4 -3 -13l-194 -626q-7 -21 -27 -21q-13 0 -22 14l-171 245q-5 7 -5 16q0 12 7.5 18.5t18.5 6.5q13 0 22 -12l141 -206l182 585q6 19 25 19q12 0 19 -7.5t7 -18.5z" />
    <glyph glyph-name="infinity" unicode="&#x221e;" horiz-adv-x="802" 
d="M582 369q69 0 109.5 -34.5t40.5 -100.5t-40.5 -100.5t-109.5 -34.5q-56 0 -98.5 27t-82.5 74q-40 -47 -82.5 -74t-98.5 -27q-69 0 -109.5 34.5t-40.5 100.5t40.5 100.5t109.5 34.5q56 0 98.5 -27t82.5 -74q40 47 82.5 74t98.5 27zM580 147q46 0 72 22.5t26 64.5t-26 64.5
t-72 22.5q-75 0 -146 -87q71 -87 146 -87zM222 147q75 0 146 87q-71 87 -146 87q-46 0 -72 -22.5t-26 -64.5t26 -64.5t72 -22.5z" />
    <glyph glyph-name="integral" unicode="&#x222b;" horiz-adv-x="447" 
d="M382 647q0 -11 -7.5 -18t-17.5 -7h-13q-53 0 -75.5 -24.5t-22.5 -85.5v-546q0 -83 -35 -122t-117 -39h-18q-11 0 -18.5 6.5t-7.5 18.5t7.5 18.5t18.5 6.5h15q55 0 75 24t20 83v547q0 82 37.5 122.5t118.5 40.5h15q11 0 18 -7t7 -18z" />
    <glyph glyph-name="approxequal" unicode="&#x2248;" horiz-adv-x="545" 
d="M353 190q-31 0 -73 19q-56 25 -73 25q-36 0 -79 -38q-8 -6 -16 -6t-15 6.5t-7 14.5q0 9 8 17q33 30 55.5 41.5t53.5 11.5t73 -19q55 -25 73 -25q36 0 79 38q8 6 16 6t15 -6.5t7 -14.5q0 -9 -8 -17q-33 -30 -55.5 -41.5t-53.5 -11.5zM353 344q-31 0 -73 19q-56 25 -73 25
q-36 0 -79 -38q-8 -6 -16 -6t-15 6.5t-7 14.5q0 9 8 17q33 30 55.5 41.5t53.5 11.5t73 -19q55 -25 73 -25q36 0 79 38q8 6 16 6t15 -6.5t7 -14.5q0 -9 -8 -17q-33 -30 -55.5 -41.5t-53.5 -11.5z" />
    <glyph glyph-name="notequal" unicode="&#x2260;" horiz-adv-x="550" 
d="M390 476l-24 -43h71q11 0 19.5 -7.5t8.5 -18.5t-8.5 -18.5t-19.5 -7.5h-100l-67 -122h167q11 0 19.5 -7t8.5 -19q0 -11 -8.5 -18.5t-19.5 -7.5h-196l-34 -62q-9 -15 -24 -15q-21 0 -21 19q0 7 4 14l24 44h-77q-11 0 -19.5 7.5t-8.5 18.5q0 12 8.5 19t19.5 7h105l67 122
h-172q-11 0 -19.5 7.5t-8.5 18.5t8.5 18.5t19.5 7.5h201l36 65q7 12 20 12q23 0 23 -23q0 -7 -3 -11z" />
    <glyph glyph-name="lessequal" unicode="&#x2264;" horiz-adv-x="588" 
d="M477 48q11 0 18.5 -7t7.5 -17t-7.5 -17t-18.5 -7h-370q-11 0 -19 7t-8 17t8 17t19 7h370zM477 465q0 -14 -14 -22l-289 -149l289 -149q14 -8 14 -22q0 -11 -7.5 -18t-17.5 -7q-8 0 -14 3l-328 170q-15 8 -15 23t15 23l328 170q6 3 14 3q10 0 17.5 -7t7.5 -18z" />
    <glyph glyph-name="greaterequal" unicode="&#x2265;" horiz-adv-x="588" 
d="M111 48h370q11 0 19 -7t8 -17t-8 -17t-19 -7h-370q-11 0 -18.5 7t-7.5 17t7.5 17t18.5 7zM111 465q0 11 7.5 18t17.5 7q8 0 14 -3l328 -170q15 -8 15 -23t-15 -23l-328 -170q-6 -3 -14 -3q-10 0 -17.5 7t-7.5 18q0 14 14 22l289 149l-289 149q-14 8 -14 22z" />
    <glyph glyph-name="lozenge" unicode="&#x25ca;" horiz-adv-x="644" 
d="M50 333q0 8 6 17l245 311q11 13 21 13t21 -13l245 -311q6 -9 6 -17t-6 -17l-245 -311q-11 -13 -21 -13t-21 13l-245 311q-6 9 -6 17zM322 61l213 272l-213 272l-213 -272z" />
    <glyph glyph-name="apple" unicode="&#xf8ff;" horiz-adv-x="851" 
d="M771 333h-333v-333h-333v666h666v-333z" />
    <glyph glyph-name="Acute" horiz-adv-x="322" 
d="M118 765l55 62q10 12 24 12q11 0 18 -7t7 -16q0 -11 -8 -20l-55 -59q-13 -14 -24 -14q-10 0 -17.5 7t-7.5 16t8 19z" />
    <glyph glyph-name="Breve" horiz-adv-x="448" 
d="M311 816q0 10 7 16.5t17 6.5q9 0 16 -6.5t7 -15.5q0 -96 -134 -96t-134 96q0 9 7 15.5t16 6.5q10 0 17 -6.5t7 -16.5q0 -54 87 -54t87 54z" />
    <glyph glyph-name="Caron" horiz-adv-x="418" 
d="M319 798l-91 -69q-11 -8 -19 -8t-19 8l-91 69q-9 9 -9 19q0 8 7 14t16 6t16 -6l80 -57l80 57q7 6 16 6t16 -6t7 -14q0 -10 -9 -19z" />
    <glyph glyph-name="Circumflex" horiz-adv-x="418" 
d="M228 831l91 -69q9 -9 9 -19q0 -8 -7 -14t-16 -6t-16 6l-80 57l-80 -57q-7 -6 -16 -6t-16 6t-7 14q0 10 9 19l91 69q11 8 19 8t19 -8z" />
    <glyph glyph-name="commaaccent" horiz-adv-x="356" 
d="M203 -135q0 -65 -17 -119q-8 -27 -30 -27q-25 0 -25 24q0 5 5 20q15 46 15 98v36q0 28 26 28t26 -28v-32z" />
    <glyph glyph-name="Dieresis" horiz-adv-x="456" 
d="M90 785q0 17 12 28.5t28 11.5t28 -11.5t12 -28.5t-12 -28.5t-28 -11.5t-28 11.5t-12 28.5zM286 785q0 17 12 28.5t28 11.5t28 -11.5t12 -28.5t-12 -28.5t-28 -11.5t-28 11.5t-12 28.5z" />
    <glyph glyph-name="Dotaccent" horiz-adv-x="256" 
d="M90 779q0 16 11 27t27 11t27 -11t11 -27t-11 -27t-27 -11t-27 11t-11 27z" />
    <glyph glyph-name="Grave" horiz-adv-x="322" 
d="M149 827l55 -62q8 -10 8 -19t-7.5 -16t-17.5 -7q-11 0 -24 14l-55 59q-8 9 -8 20q0 9 7 16t18 7q14 0 24 -12z" />
    <glyph glyph-name="Hungarumlaut" horiz-adv-x="457" 
d="M110 747q0 7 6 16l45 65q7 11 21 11q10 0 17.5 -6t7.5 -17q0 -9 -6 -17l-42 -60q-12 -16 -25 -16q-10 0 -17 7t-7 17zM270 747q0 7 6 16l45 65q7 11 21 11q10 0 17.5 -6t7.5 -17q0 -9 -6 -17l-42 -60q-12 -16 -25 -16q-10 0 -17 7t-7 17z" />
    <glyph glyph-name="Macron" horiz-adv-x="469" 
d="M357 792q9 0 15.5 -6.5t6.5 -15.5t-6.5 -15.5t-15.5 -6.5h-245q-9 0 -15.5 6.5t-6.5 15.5t6.5 15.5t15.5 6.5h245z" />
    <glyph glyph-name="Ring" horiz-adv-x="324" 
d="M234 780q0 -30 -20.5 -50.5t-51.5 -20.5t-51.5 20.5t-20.5 50.5t20.5 50.5t51.5 20.5t51.5 -20.5t20.5 -50.5zM200 780q0 17 -10.5 29t-27.5 12t-27.5 -12t-10.5 -29t10.5 -29t27.5 -12t27.5 12t10.5 29z" />
    <glyph glyph-name="Tilde" horiz-adv-x="437" 
d="M276 727q-22 0 -59 21q-33 18 -47 18q-21 0 -37 -19l-11 -12q-9 -9 -19 -9q-9 0 -16 6t-7 15t6 16l10 13q30 37 74 37q26 0 51 -14q6 -3 16 -9t15 -8.5t11.5 -5t11.5 -2.5q14 0 35 21l10 10q9 9 19 9q9 0 16 -5.5t7 -14.5t-6 -17q-1 -2 -3 -4.5t-5 -5.5t-4 -5
q-32 -35 -68 -35z" />
    <glyph glyph-name="a.salt" horiz-adv-x="582" 
d="M442 22v58q-61 -92 -177 -92q-92 0 -153.5 65t-61.5 164t61.5 164t153.5 65q116 0 177 -92v58q0 13 8.5 21.5t21.5 8.5t21.5 -8.5t8.5 -21.5v-390q0 -13 -8.5 -21.5t-21.5 -8.5t-21.5 8.5t-8.5 21.5zM110 217q0 -79 44.5 -128.5t118.5 -49.5q75 0 122 51.5t47 126.5
t-47 126.5t-122 51.5q-74 0 -118.5 -49.5t-44.5 -128.5z" />
    <glyph glyph-name="y.salt" horiz-adv-x="565" 
d="M485 32q0 -108 -50 -167.5t-166 -59.5q-101 0 -163 38q-18 10 -18 26q0 10 7 16t16 6q10 0 26 -8q57 -29 130 -29q89 0 123.5 44.5t34.5 128.5v57q-50 -86 -163 -86q-86 0 -136.5 56t-50.5 145v213q0 13 8.5 21.5t21.5 8.5t21.5 -8.5t8.5 -21.5v-212q0 -69 36 -108
t104 -39q65 0 107.5 44t42.5 116v199q0 13 8.5 21.5t21.5 8.5t21.5 -8.5t8.5 -21.5v-380z" />
    <glyph glyph-name="aacute.salt" horiz-adv-x="582" 
d="M246 536q0 7 6 16l72 102q7 11 21 11q10 0 17.5 -6t7.5 -17q0 -9 -6 -17l-69 -97q-12 -16 -25 -16q-10 0 -17 7t-7 17zM442 22v58q-61 -92 -177 -92q-92 0 -153.5 65t-61.5 164t61.5 164t153.5 65q116 0 177 -92v58q0 13 8.5 21.5t21.5 8.5t21.5 -8.5t8.5 -21.5v-390
q0 -13 -8.5 -21.5t-21.5 -8.5t-21.5 8.5t-8.5 21.5zM110 217q0 -79 44.5 -128.5t118.5 -49.5q75 0 122 51.5t47 126.5t-47 126.5t-122 51.5q-74 0 -118.5 -49.5t-44.5 -128.5z" />
    <glyph glyph-name="abreve.salt" horiz-adv-x="582" 
d="M442 22v58q-61 -92 -177 -92q-92 0 -153.5 65t-61.5 164t61.5 164t153.5 65q116 0 177 -92v58q0 13 8.5 21.5t21.5 8.5t21.5 -8.5t8.5 -21.5v-390q0 -13 -8.5 -21.5t-21.5 -8.5t-21.5 8.5t-8.5 21.5zM110 217q0 -79 44.5 -128.5t118.5 -49.5q75 0 122 51.5t47 126.5
t-47 126.5t-122 51.5q-74 0 -118.5 -49.5t-44.5 -128.5zM374 615q0 10 7 16.5t17 6.5q9 0 16 -6.5t7 -15.5q0 -52 -32.5 -79t-91.5 -27t-91.5 27t-32.5 79q0 9 7 15.5t16 6.5q10 0 17 -6.5t7 -16.5q0 -33 17.5 -48.5t59.5 -15.5t59.5 15.5t17.5 48.5z" />
    <glyph glyph-name="acircumflex.salt" horiz-adv-x="582" 
d="M314 638l95 -88q9 -9 9 -19q0 -8 -7 -14t-16 -6t-16 6l-84 74l-84 -74q-8 -6 -16 -6q-9 0 -16 6t-7 14q0 10 9 19l95 88q8 8 19 8t19 -8zM442 22v58q-61 -92 -177 -92q-92 0 -153.5 65t-61.5 164t61.5 164t153.5 65q116 0 177 -92v58q0 13 8.5 21.5t21.5 8.5t21.5 -8.5
t8.5 -21.5v-390q0 -13 -8.5 -21.5t-21.5 -8.5t-21.5 8.5t-8.5 21.5zM110 217q0 -79 44.5 -128.5t118.5 -49.5q75 0 122 51.5t47 126.5t-47 126.5t-122 51.5q-74 0 -118.5 -49.5t-44.5 -128.5z" />
    <glyph glyph-name="adieresis.salt" horiz-adv-x="582" 
d="M171 565q0 17 11.5 28.5t28.5 11.5t28.5 -11.5t11.5 -28.5t-11.5 -28.5t-28.5 -11.5t-28.5 11.5t-11.5 28.5zM337 565q0 17 11.5 28.5t28.5 11.5t28.5 -11.5t11.5 -28.5t-11.5 -28.5t-28.5 -11.5t-28.5 11.5t-11.5 28.5zM442 22v58q-61 -92 -177 -92q-92 0 -153.5 65
t-61.5 164t61.5 164t153.5 65q116 0 177 -92v58q0 13 8.5 21.5t21.5 8.5t21.5 -8.5t8.5 -21.5v-390q0 -13 -8.5 -21.5t-21.5 -8.5t-21.5 8.5t-8.5 21.5zM110 217q0 -79 44.5 -128.5t118.5 -49.5q75 0 122 51.5t47 126.5t-47 126.5t-122 51.5q-74 0 -118.5 -49.5
t-44.5 -128.5z" />
    <glyph glyph-name="agrave.salt" horiz-adv-x="582" 
d="M321 536q0 -10 -7 -17t-17 -7q-14 0 -25 16l-69 97q-6 8 -6 17q0 10 7.5 16.5t17.5 6.5q14 0 21 -11l72 -102q6 -9 6 -16zM442 22v58q-61 -92 -177 -92q-92 0 -153.5 65t-61.5 164t61.5 164t153.5 65q116 0 177 -92v58q0 13 8.5 21.5t21.5 8.5t21.5 -8.5t8.5 -21.5v-390
q0 -13 -8.5 -21.5t-21.5 -8.5t-21.5 8.5t-8.5 21.5zM110 217q0 -79 44.5 -128.5t118.5 -49.5q75 0 122 51.5t47 126.5t-47 126.5t-122 51.5q-74 0 -118.5 -49.5t-44.5 -128.5z" />
    <glyph glyph-name="amacron.salt" horiz-adv-x="582" 
d="M442 22v58q-61 -92 -177 -92q-92 0 -153.5 65t-61.5 164t61.5 164t153.5 65q116 0 177 -92v58q0 13 8.5 21.5t21.5 8.5t21.5 -8.5t8.5 -21.5v-390q0 -13 -8.5 -21.5t-21.5 -8.5t-21.5 8.5t-8.5 21.5zM110 217q0 -79 44.5 -128.5t118.5 -49.5q75 0 122 51.5t47 126.5
t-47 126.5t-122 51.5q-74 0 -118.5 -49.5t-44.5 -128.5zM411 582q9 0 15.5 -6.5t6.5 -15.5t-6.5 -15.5t-15.5 -6.5h-225q-9 0 -15.5 6.5t-6.5 15.5t6.5 15.5t15.5 6.5h225z" />
    <glyph glyph-name="aogonek.salt" horiz-adv-x="582" 
d="M448 0q-6 7 -6 22v58q-61 -92 -177 -92q-92 0 -153.5 65t-61.5 164t61.5 164t153.5 65q116 0 177 -92v58q0 13 8.5 21.5t21.5 8.5t21.5 -8.5t8.5 -21.5v-390q0 -17 -13 -25l-18 -12t-22.5 -15.5t-21 -16.5t-20.5 -20t-12.5 -21t-5.5 -24q0 -31 41 -31q14 0 36 6
q13 4 20.5 -1.5t7.5 -15.5q0 -14 -14 -20q-24 -11 -61 -11q-80 0 -80 66q0 40 32 70t77 49zM110 217q0 -79 44.5 -128.5t118.5 -49.5q75 0 122 51.5t47 126.5t-47 126.5t-122 51.5q-74 0 -118.5 -49.5t-44.5 -128.5z" />
    <glyph glyph-name="aring.salt" horiz-adv-x="582" 
d="M358 570q0 -30 -20.5 -50.5t-51.5 -20.5t-51.5 20.5t-20.5 50.5t20.5 50.5t51.5 20.5t51.5 -20.5t20.5 -50.5zM324 570q0 17 -10.5 29t-27.5 12t-27.5 -12t-10.5 -29t10.5 -29t27.5 -12t27.5 12t10.5 29zM442 22v58q-61 -92 -177 -92q-92 0 -153.5 65t-61.5 164t61.5 164
t153.5 65q116 0 177 -92v58q0 13 8.5 21.5t21.5 8.5t21.5 -8.5t8.5 -21.5v-390q0 -13 -8.5 -21.5t-21.5 -8.5t-21.5 8.5t-8.5 21.5zM110 217q0 -79 44.5 -128.5t118.5 -49.5q75 0 122 51.5t47 126.5t-47 126.5t-122 51.5q-74 0 -118.5 -49.5t-44.5 -128.5z" />
    <glyph glyph-name="aringacute.salt" horiz-adv-x="582" 
d="M442 22v58q-61 -92 -177 -92q-92 0 -153.5 65t-61.5 164t61.5 164t153.5 65q116 0 177 -92v58q0 13 8.5 21.5t21.5 8.5t21.5 -8.5t8.5 -21.5v-390q0 -13 -8.5 -21.5t-21.5 -8.5t-21.5 8.5t-8.5 21.5zM110 217q0 -79 44.5 -128.5t118.5 -49.5q75 0 122 51.5t47 126.5
t-47 126.5t-122 51.5q-74 0 -118.5 -49.5t-44.5 -128.5zM353 570q0 -30 -20.5 -50.5t-51.5 -20.5t-51.5 20.5t-20.5 50.5t20.5 50.5t51.5 20.5t51.5 -20.5t20.5 -50.5zM319 570q0 17 -10.5 29t-27.5 12t-27.5 -12t-10.5 -29t10.5 -29t27.5 -12t27.5 12t10.5 29zM253 711
q0 7 6 16l38 54q7 11 21 11q10 0 17.5 -6t7.5 -17q0 -9 -6 -17l-35 -49q-12 -16 -25 -16q-10 0 -17 7t-7 17z" />
    <glyph glyph-name="atilde.salt" horiz-adv-x="582" 
d="M347 519q-22 0 -59 21q-33 18 -47 18q-21 0 -37 -19l-11 -12q-9 -9 -19 -9q-9 0 -16 6t-7 15t6 16l10 13q30 37 74 37q26 0 51 -14q6 -3 16 -9t15 -8.5t11.5 -5t11.5 -2.5q14 0 35 21l10 10q9 9 19 9q9 0 16 -5.5t7 -14.5q0 -10 -6 -17q-1 -2 -3 -4.5t-5 -5.5t-4 -5
q-31 -35 -68 -35zM442 22v58q-61 -92 -177 -92q-92 0 -153.5 65t-61.5 164t61.5 164t153.5 65q116 0 177 -92v58q0 13 8.5 21.5t21.5 8.5t21.5 -8.5t8.5 -21.5v-390q0 -13 -8.5 -21.5t-21.5 -8.5t-21.5 8.5t-8.5 21.5zM110 217q0 -79 44.5 -128.5t118.5 -49.5q75 0 122 51.5
t47 126.5t-47 126.5t-122 51.5q-74 0 -118.5 -49.5t-44.5 -128.5z" />
    <glyph glyph-name="yacute.salt" horiz-adv-x="565" 
d="M241 536q0 7 6 16l72 102q7 11 21 11q10 0 17.5 -6t7.5 -17q0 -9 -6 -17l-69 -97q-12 -16 -25 -16q-10 0 -17 7t-7 17zM485 32q0 -108 -50 -167.5t-166 -59.5q-101 0 -163 38q-18 10 -18 26q0 10 7 16t16 6q10 0 26 -8q57 -29 130 -29q89 0 123.5 44.5t34.5 128.5v57
q-50 -86 -163 -86q-86 0 -136.5 56t-50.5 145v213q0 13 8.5 21.5t21.5 8.5t21.5 -8.5t8.5 -21.5v-212q0 -69 36 -108t104 -39q65 0 107.5 44t42.5 116v199q0 13 8.5 21.5t21.5 8.5t21.5 -8.5t8.5 -21.5v-380z" />
    <glyph glyph-name="ycircumflex.salt" horiz-adv-x="565" 
d="M485 32q0 -108 -50 -167.5t-166 -59.5q-101 0 -163 38q-18 10 -18 26q0 10 7 16t16 6q10 0 26 -8q57 -29 130 -29q89 0 123.5 44.5t34.5 128.5v57q-50 -86 -163 -86q-86 0 -136.5 56t-50.5 145v213q0 13 8.5 21.5t21.5 8.5t21.5 -8.5t8.5 -21.5v-212q0 -69 36 -108
t104 -39q65 0 107.5 44t42.5 116v199q0 13 8.5 21.5t21.5 8.5t21.5 -8.5t8.5 -21.5v-380zM305 638l95 -88q9 -9 9 -19q0 -8 -7 -14t-16 -6q-8 0 -16 6l-84 74l-84 -74q-8 -6 -16 -6q-9 0 -16 6t-7 14q0 10 9 19l95 88q8 8 19 8t19 -8z" />
    <glyph glyph-name="ydieresis.salt" horiz-adv-x="565" 
d="M162 565q0 17 12 28.5t28 11.5t28 -11.5t12 -28.5t-12 -28.5t-28 -11.5t-28 11.5t-12 28.5zM328 565q0 17 12 28.5t28 11.5t28 -11.5t12 -28.5t-12 -28.5t-28 -11.5t-28 11.5t-12 28.5zM485 32q0 -108 -50 -167.5t-166 -59.5q-101 0 -163 38q-18 10 -18 26q0 10 7 16
t16 6q10 0 26 -8q57 -29 130 -29q89 0 123.5 44.5t34.5 128.5v57q-50 -86 -163 -86q-86 0 -136.5 56t-50.5 145v213q0 13 8.5 21.5t21.5 8.5t21.5 -8.5t8.5 -21.5v-212q0 -69 36 -108t104 -39q65 0 107.5 44t42.5 116v199q0 13 8.5 21.5t21.5 8.5t21.5 -8.5t8.5 -21.5v-380z
" />
    <glyph glyph-name="ygrave.salt" horiz-adv-x="565" 
d="M485 32q0 -108 -50 -167.5t-166 -59.5q-101 0 -163 38q-18 10 -18 26q0 10 7 16t16 6q10 0 26 -8q57 -29 130 -29q89 0 123.5 44.5t34.5 128.5v57q-50 -86 -163 -86q-86 0 -136.5 56t-50.5 145v213q0 13 8.5 21.5t21.5 8.5t21.5 -8.5t8.5 -21.5v-212q0 -69 36 -108
t104 -39q65 0 107.5 44t42.5 116v199q0 13 8.5 21.5t21.5 8.5t21.5 -8.5t8.5 -21.5v-380zM326 536q0 -10 -7 -17t-17 -7q-14 0 -25 16l-69 97q-6 8 -6 17q0 10 7.5 16.5t17.5 6.5q14 0 21 -11l72 -102q6 -9 6 -16z" />
    <glyph glyph-name="minus.onum" horiz-adv-x="551" 
d="M106 183q-11 0 -18.5 6.5t-7.5 18.5t7.5 18.5t18.5 6.5h339q11 0 18.5 -6.5t7.5 -18.5t-7.5 -18.5t-18.5 -6.5h-339z" />
    <glyph glyph-name="multiply.onum" horiz-adv-x="545" 
d="M154 376l118 -118l118 118q8 8 21 8q12 0 20 -8t8 -20q0 -13 -8 -21l-118 -118l117 -117q10 -10 10 -21q0 -12 -9 -20.5t-20 -8.5t-21 8l-118 118l-118 -118q-8 -8 -20 -8q-13 0 -21 8t-8 21q0 12 8 20l118 118l-118 118q-8 10 -8 21q0 12 8.5 20t20.5 8t20 -8z" />
    <glyph glyph-name="numbersign.onum" horiz-adv-x="707" 
d="M657 397q0 -10 -7 -17.5t-18 -7.5h-97l-19 -173h95q22 0 22 -22q0 -10 -7 -17.5t-18 -7.5h-97l-15 -134q-3 -26 -27 -26q-27 0 -23 30l14 130h-239l-16 -135q-3 -25 -27 -25q-25 0 -23 26l15 134h-92q-10 0 -16.5 6.5t-6.5 15.5q0 25 25 25h96l19 173h-95q-9 0 -15.5 6.5
t-6.5 15.5q0 25 27 25h95l15 130q3 25 27 25q26 0 23 -29l-15 -126h239l15 130q3 25 28 25q26 0 23 -27l-15 -128h94q9 0 16 -6t7 -16zM485 372h-239l-20 -173h239z" />
    <glyph glyph-name="dollar.onum" horiz-adv-x="562" 
d="M497 152q0 -62 -51.5 -104t-131.5 -48v-79q0 -11 -7.5 -18.5t-18.5 -7.5t-18 7.5t-7 18.5v80q-102 7 -178 63q-15 11 -15 25q0 10 6.5 16t17.5 6q10 0 21 -7q82 -56 175 -56q68 0 108.5 28t40.5 72q0 45 -34.5 67.5t-111.5 44.5q-121 35 -162.5 72t-41.5 94q0 58 47 96
t137 43v80q0 11 7.5 18.5t18.5 7.5t18 -7.5t7 -18.5v-80q86 -6 147 -50q12 -9 12 -22q0 -9 -7 -16t-17 -7q-7 0 -18 6q-72 42 -144 42q-73 0 -111.5 -24t-38.5 -66q0 -39 31.5 -62t115.5 -49l69 -22.5t54.5 -23.5t44 -30t25 -37.5t10.5 -51.5z" />
    <glyph glyph-name="plus.onum" horiz-adv-x="604" 
d="M106 244h167v169q0 12 8.5 20.5t20.5 8.5t20.5 -8.5t8.5 -20.5v-169h167q12 0 20.5 -7.5t8.5 -19.5t-8.5 -19.5t-20.5 -7.5h-167v-169q0 -12 -8.5 -20.5t-20.5 -8.5t-20.5 8.5t-8.5 20.5v169h-167q-12 0 -20.5 7.5t-8.5 19.5t8.5 19.5t20.5 7.5z" />
    <glyph glyph-name="zero.onum" horiz-adv-x="614" 
d="M307 494q113 0 182.5 -72.5t69.5 -180.5t-69.5 -180.5t-182.5 -72.5t-182.5 72.5t-69.5 180.5t69.5 180.5t182.5 72.5zM499 241q0 85 -53 143t-139 58t-139 -58t-53 -143t53 -143t139 -58t139 58t53 143z" />
    <glyph glyph-name="one.onum" horiz-adv-x="367" 
d="M217 421l-148 -45q-8 -2 -11 -2q-11 0 -19.5 7.5t-8.5 19.5q0 20 24 27l178 56q9 3 15 3q30 0 30 -31v-434q0 -12 -8.5 -21t-21.5 -9t-21.5 9t-8.5 21v399z" />
    <glyph glyph-name="two.onum" horiz-adv-x="562" 
d="M504 25q0 -10 -7 -17.5t-19 -7.5h-377q-16 0 -26 9t-10 22q0 19 29 37l187 115q78 50 112 85t34 83q0 42 -33 67t-100 25q-77 0 -161 -45q-8 -4 -16 -4q-11 0 -18 7t-7 17q0 16 17 26q86 50 186 50q93 0 142.5 -38t49.5 -103q0 -64 -42.5 -109.5t-125.5 -97.5l-159 -96
h318q11 0 18.5 -7t7.5 -18z" />
    <glyph glyph-name="three.onum" horiz-adv-x="553" 
d="M153 177q0 11 7.5 18.5t18.5 7.5h13q89 0 149 37.5t60 98.5q0 104 -139 104q-65 0 -131 -30q-18 -7 -29.5 -0.5t-11.5 19.5q0 18 22 28q74 34 155 34q91 0 142.5 -40.5t51.5 -111.5q0 -57 -42 -100t-109 -59q85 -8 136.5 -57.5t51.5 -120.5q0 -86 -68 -143t-179 -57
q-114 0 -203 56q-13 9 -13 22q0 15 14 22t31 -2q77 -47 168 -47q86 0 138 40.5t52 106.5q0 75 -62.5 111.5t-171.5 36.5h-25q-11 0 -18.5 7.5t-7.5 18.5z" />
    <glyph glyph-name="four.onum" horiz-adv-x="618" 
d="M562 26h-100v-191q0 -13 -8.5 -21.5t-20.5 -8.5q-13 0 -21 8.5t-8 21.5v191h-341q-11 0 -18 6.5t-7 16.5q0 11 8 21l362 405q12 12 27 12q27 0 27 -30v-383h100q26 0 26 -24q0 -10 -7.5 -17t-18.5 -7zM117 74h287v321z" />
    <glyph glyph-name="five.onum" horiz-adv-x="576" 
d="M521 14q0 -90 -64.5 -149.5t-185.5 -59.5q-111 0 -196 57q-17 11 -17 24q0 10 7 17.5t18 7.5q10 0 19 -6q83 -50 169 -50q94 0 142 44t48 113q0 71 -47 110.5t-131 39.5q-68 0 -127 -30q-16 -8 -25 -8q-14 0 -21.5 8t-5.5 21l41 304q3 25 29 25h277q11 0 19 -7.5t8 -18.5
t-8 -18.5t-19 -7.5h-253l-32 -243q51 27 129 27q102 0 164 -54t62 -146z" />
    <glyph glyph-name="six.onum" horiz-adv-x="592" 
d="M401 635q-99 -50 -173 -140t-103 -202q25 57 79.5 87t123.5 30q104 0 159 -60t55 -145q0 -86 -65 -151.5t-170 -65.5q-115 0 -175 66t-60 170q0 139 86 262t218 187q12 5 19 5q10 0 16.5 -6t6.5 -14q0 -14 -17 -23zM486 204q0 71 -42.5 114t-121.5 43q-76 0 -131.5 -45
t-55.5 -118q0 -71 46 -116t128 -45q79 0 128 48t49 119z" />
    <glyph glyph-name="seven.onum" horiz-adv-x="513" 
d="M485 457q0 -10 -6 -22q-134 -283 -307 -611q-10 -19 -28 -19q-11 0 -19 7.5t-8 18.5q0 6 5 16q172 324 294 583h-348q-11 0 -18.5 7.5t-7.5 17.5q0 12 7.5 19.5t18.5 7.5h389q28 0 28 -25z" />
    <glyph glyph-name="eight.onum" horiz-adv-x="624" 
d="M312 -12q-114 0 -181.5 55.5t-67.5 141.5q0 68 43 116.5t109 65.5q-106 46 -106 146q0 72 57 118.5t146 46.5t146 -46.5t57 -118.5q0 -100 -106 -146q66 -17 109 -65.5t43 -116.5q0 -86 -67.5 -141.5t-181.5 -55.5zM312 38q81 0 135 40.5t54 106.5q0 71 -53.5 112
t-135.5 41t-135.5 -41t-53.5 -112q0 -66 54 -106.5t135 -40.5zM312 386q63 0 104 34.5t41 87.5q0 55 -38.5 88.5t-106.5 33.5t-106.5 -33.5t-38.5 -88.5q0 -53 41 -87.5t104 -34.5z" />
    <glyph glyph-name="nine.onum" horiz-adv-x="595" 
d="M206 -152q99 52 173.5 141t102.5 200q-25 -57 -79.5 -87t-123.5 -30q-104 0 -159 60t-55 145q0 91 65.5 154t169.5 63q115 0 175 -66t60 -170q0 -139 -86 -261.5t-218 -186.5q-12 -5 -19 -5q-10 0 -16.5 6t-6.5 14q0 15 17 23zM121 278q0 -71 42.5 -114t121.5 -43
q76 0 131.5 45t55.5 118t-45.5 117t-128.5 44q-79 0 -128 -48t-49 -119z" />
    <glyph glyph-name="less.onum" horiz-adv-x="550" 
d="M480 421q0 -16 -16 -24l-332 -180l332 -180q16 -8 16 -24q0 -10 -7 -17.5t-19 -7.5q-9 0 -16 4l-362 202q-16 10 -16 23t16 23l362 202q7 4 16 4q12 0 19 -7.5t7 -17.5z" />
    <glyph glyph-name="equal.onum" horiz-adv-x="560" 
d="M442 325q11 0 19.5 -7.5t8.5 -18.5t-8.5 -18.5t-19.5 -7.5h-324q-11 0 -19.5 7.5t-8.5 18.5t8.5 18.5t19.5 7.5h324zM442 151q11 0 19.5 -7.5t8.5 -18.5q0 -12 -8.5 -19t-19.5 -7h-324q-11 0 -19.5 7t-8.5 19q0 11 8.5 18.5t19.5 7.5h324z" />
    <glyph glyph-name="greater.onum" horiz-adv-x="550" 
d="M70 421q0 10 7 17.5t19 7.5q9 0 16 -4l362 -202q16 -10 16 -23t-16 -23l-362 -202q-7 -4 -16 -4q-12 0 -19 7.5t-7 17.5q0 16 16 24l332 180l-332 180q-16 8 -16 24z" />
    <glyph glyph-name="cent.onum" horiz-adv-x="566" 
d="M80 261q0 93 55.5 155t143.5 72v102q0 10 7.5 18t20.5 8t20.5 -8t7.5 -18v-102q50 -5 89.5 -27.5t60.5 -54.5q6 -9 6 -18q0 -11 -8.5 -18t-20.5 -7q-11 0 -21 12q-53 63 -132 63q-74 0 -121.5 -49.5t-47.5 -127.5t47.5 -127.5t121.5 -49.5q79 0 132 63q10 12 21 12
q12 0 20.5 -7t8.5 -18q0 -9 -6 -18q-22 -32 -61.5 -55t-88.5 -28v-101q0 -10 -7.5 -18t-20.5 -8t-20.5 8t-7.5 18v101q-88 11 -143.5 73t-55.5 155z" />
    <glyph glyph-name="sterling.onum" horiz-adv-x="648" 
d="M298 255v-206h244q11 0 19.5 -6.5t8.5 -17.5t-8.5 -18t-19.5 -7h-444q-12 0 -20 6.5t-8 18.5q0 11 8 17.5t20 6.5h140v206h-124q-12 0 -20 7t-8 18t8 18t20 7h124v79q0 101 47.5 147.5t152.5 46.5q72 0 131 -31q19 -10 19 -27q0 -10 -7 -17t-19 -7q-9 0 -17 4
q-56 24 -107 24q-76 0 -108.5 -29t-32.5 -108v-82h219q11 0 19.5 -7t8.5 -18t-8.5 -18t-19.5 -7h-218z" />
    <glyph glyph-name="notequal.onum" horiz-adv-x="560" 
d="M395 368l-24 -43h71q11 0 19.5 -7.5t8.5 -18.5t-8.5 -18.5t-19.5 -7.5h-100l-67 -122h167q11 0 19.5 -7.5t8.5 -18.5q0 -12 -8.5 -19t-19.5 -7h-196l-34 -62q-9 -15 -24 -15q-21 0 -21 19q0 7 4 14l24 44h-77q-11 0 -19.5 7t-8.5 19q0 11 8.5 18.5t19.5 7.5h105l67 122
h-172q-11 0 -19.5 7.5t-8.5 18.5t8.5 18.5t19.5 7.5h201l36 65q7 12 20 12q23 0 23 -23q0 -7 -3 -11z" />
    <glyph glyph-name="plusminus.onum" horiz-adv-x="630" 
d="M511 0h-392q-12 0 -20.5 7.5t-8.5 19.5t8.5 19t20.5 7h167v160h-167q-12 0 -20.5 7t-8.5 19t8.5 19.5t20.5 7.5h167v147q0 12 8.5 20.5t20.5 8.5t20.5 -8.5t8.5 -20.5v-147h167q12 0 20.5 -7.5t8.5 -19.5t-8.5 -19t-20.5 -7h-167v-160h167q12 0 20.5 -7t8.5 -19
t-8.5 -19.5t-20.5 -7.5z" />
    <glyph glyph-name="yen.onum" horiz-adv-x="580" 
d="M290 279l174 281q9 14 25 14q11 0 18.5 -7t7.5 -18q0 -7 -6 -18l-123 -196h103q9 0 15 -6t6 -14q0 -9 -6 -15t-15 -6h-130l-39 -62v-44h168q22 0 22 -21q0 -9 -6.5 -14.5t-15.5 -5.5h-168v-124q0 -13 -8.5 -22t-21.5 -9t-21.5 9t-8.5 22v124h-168q-9 0 -15.5 5.5
t-6.5 14.5q0 21 22 21h168v44l-39 62h-130q-9 0 -15 6t-6 15q0 8 6 14t15 6h103l-123 196q-6 11 -6 18q0 11 7.5 18t18.5 7q16 0 25 -14z" />
    <glyph glyph-name="florin.onum" horiz-adv-x="539" 
d="M229 241h-85q-10 0 -17.5 7t-7.5 17q0 26 30 26h89l24 133q14 82 51 116t114 34h44q28 0 28 -24q0 -26 -31 -26h-40q-51 0 -74 -21.5t-32 -76.5l-23 -135h117q11 0 18 -6.5t7 -17.5t-8.5 -18.5t-21.5 -7.5h-122l-49 -277q-15 -87 -51.5 -123t-128.5 -36h-25
q-10 0 -17.5 6.5t-7.5 16.5q0 27 29 27h27q59 0 80.5 22.5t32.5 83.5z" />
    <glyph glyph-name="approxequal.onum" horiz-adv-x="565" 
d="M358 80q-31 0 -73 19q-56 25 -73 25q-36 0 -79 -38q-7 -6 -16 -6q-8 0 -15 6.5t-7 14.5q0 9 8 17q33 30 55.5 41.5t53.5 11.5t73 -19q55 -25 73 -25q36 0 79 38q7 6 16 6q8 0 15 -6.5t7 -14.5q0 -9 -8 -17q-33 -30 -55.5 -41.5t-53.5 -11.5zM358 234q-31 0 -73 19
q-56 25 -73 25q-36 0 -79 -38q-8 -6 -16 -6t-15 6.5t-7 14.5q0 9 8 17q33 30 55.5 41.5t53.5 11.5t73 -19q55 -25 73 -25q36 0 79 38q7 6 16 6q8 0 15 -6.5t7 -14.5q0 -9 -8 -17q-33 -30 -55.5 -41.5t-53.5 -11.5z" />
    <glyph glyph-name="divide.onum" horiz-adv-x="586" 
d="M472 190h-358q-12 0 -20.5 7.5t-8.5 19.5t8.5 19.5t20.5 7.5h358q12 0 20.5 -7.5t8.5 -19.5t-8.5 -19.5t-20.5 -7.5zM251 66q0 17 12.5 29.5t29.5 12.5t29.5 -12.5t12.5 -29.5t-12.5 -29.5t-29.5 -12.5t-29.5 12.5t-12.5 29.5zM251 368q0 17 12.5 29.5t29.5 12.5
t29.5 -12.5t12.5 -29.5t-12.5 -29.5t-29.5 -12.5t-29.5 12.5t-12.5 29.5z" />
    <glyph glyph-name="Euro.onum" horiz-adv-x="714" 
d="M218 283q0 -33 5 -56h300q9 0 15 -5.5t6 -14.5t-6 -14.5t-15 -5.5h-290q23 -67 76 -107t129 -40q91 0 159 60q11 10 22 10t18 -7.5t7 -17.5q0 -11 -9 -20q-80 -77 -199 -77q-98 0 -168.5 54t-96.5 145h-94q-22 0 -22 20t22 20h85q-4 24 -4 56t4 56h-85q-22 0 -22 20
t22 20h94q26 91 96.5 145t168.5 54q119 0 199 -77q9 -9 9 -20q0 -10 -7 -17.5t-18 -7.5t-22 10q-68 60 -159 60q-76 0 -128.5 -40t-76.5 -107h290q9 0 15 -5.5t6 -14.5t-6 -14.5t-15 -5.5h-300q-5 -22 -5 -56z" />
    <glyph glyph-name="minus.tnum" 
d="M155 298q-11 0 -18.5 6.5t-7.5 18.5t7.5 18.5t18.5 6.5h339q11 0 18.5 -6.5t7.5 -18.5t-7.5 -18.5t-18.5 -6.5h-339z" />
    <glyph glyph-name="multiply.tnum" 
d="M206 482l118 -118l118 118q8 8 21 8q12 0 20 -8t8 -20q0 -13 -8 -21l-118 -118l117 -117q10 -10 10 -21q0 -12 -9 -20.5t-20 -8.5t-21 8l-118 118l-118 -118q-8 -8 -20 -8q-13 0 -21 8t-8 21q0 12 8 20l118 118l-118 118q-8 10 -8 21q0 12 8.5 20t20.5 8t20 -8z" />
    <glyph glyph-name="numbersign.tnum" horiz-adv-x="716" 
d="M664 459q0 -10 -7 -17.5t-18 -7.5h-97l-21 -193h95q22 0 22 -22q0 -10 -7 -17.5t-18 -7.5h-97l-20 -176q-3 -26 -27 -26q-27 0 -23 30l19 172h-239l-21 -177q-4 -25 -27 -25q-12 0 -18 7.5t-5 18.5l20 176h-92q-10 0 -16.5 6.5t-6.5 15.5q0 25 25 25h96l21 193h-95
q-9 0 -15.5 6.5t-6.5 15.5q0 25 27 25h95l19 168q3 25 27 25q26 0 23 -29l-19 -164h239l19 168q3 25 28 25q26 0 23 -27l-19 -166h94q9 0 16 -6t7 -16zM492 434h-239l-22 -193h239z" />
    <glyph glyph-name="dollar.tnum" 
d="M558 175q0 -69 -53.5 -114t-148.5 -53v-90q0 -10 -7.5 -18t-20.5 -8t-20.5 8t-7.5 18v91q-113 9 -194 74q-14 12 -14 24q0 10 7 17t18 7t24 -9q44 -31 86 -47t105 -16q76 0 121.5 31t45.5 85q0 21 -10.5 39.5t-24.5 31t-41.5 26.5t-47.5 21.5l-57 20.5q-119 42 -168 84
t-49 102q0 71 55 112t151 45v91q0 10 7.5 18t20.5 8t20.5 -8t7.5 -18v-92q88 -8 161 -55q14 -9 14 -21q0 -10 -7 -18t-20 -8q-8 0 -16 5q-86 48 -166 48q-169 0 -169 -106q0 -46 35 -71.5t128 -60.5q134 -50 184.5 -87t50.5 -107z" />
    <glyph glyph-name="plus.tnum" 
d="M129 350h167v169q0 12 8.5 20.5t20.5 8.5t20.5 -8.5t8.5 -20.5v-169h167q12 0 20.5 -7.5t8.5 -19.5t-8.5 -19.5t-20.5 -7.5h-167v-169q0 -12 -8.5 -20.5t-20.5 -8.5t-20.5 8.5t-8.5 20.5v169h-167q-12 0 -20.5 7.5t-8.5 19.5t8.5 19.5t20.5 7.5z" />
    <glyph glyph-name="zero.tnum" 
d="M604 333q0 -145 -76.5 -245t-202.5 -100t-202.5 100t-76.5 245t76.5 245t202.5 100t202.5 -100t76.5 -245zM544 333q0 124 -58.5 207.5t-160.5 83.5t-160.5 -83.5t-58.5 -207.5t58.5 -207.5t160.5 -83.5t160.5 83.5t58.5 207.5z" />
    <glyph glyph-name="one.tnum" 
d="M106 0q-10 0 -18 8t-8 18q0 11 7.5 18.5t18.5 7.5h202v556l-163 -43q-8 -2 -11 -2q-11 0 -19.5 7.5t-8.5 19.5q0 21 23 28l190 52q14 4 20 4q29 0 29 -31v-591h194q11 0 18.5 -7.5t7.5 -18.5q0 -10 -8 -18t-18 -8h-456z" />
    <glyph glyph-name="two.tnum" 
d="M579 26q0 -10 -7.5 -18t-18.5 -8h-442q-11 0 -19 8t-8 19q0 51 10.5 91t26.5 68t46 53t59 42t75 39q125 60 168.5 96.5t43.5 92.5q0 57 -45.5 86.5t-128.5 29.5q-115 0 -199 -64q-8 -6 -16 -6q-11 0 -18.5 7t-7.5 18q0 19 37 42q87 56 208 56q106 0 168 -45t62 -125
q0 -65 -47.5 -114t-171.5 -107q-116 -54 -162 -102.5t-46 -132.5h407q11 0 18.5 -7.5t7.5 -18.5z" />
    <glyph glyph-name="three.tnum" 
d="M563 187q0 -89 -72 -144t-182 -55q-141 0 -241 84q-12 10 -12 23q0 12 8.5 18.5t19.5 6.5q10 0 18 -7q92 -75 207 -75q85 0 139.5 40.5t54.5 110.5q0 65 -50.5 105.5t-144.5 40.5h-72q-11 0 -18.5 8t-7.5 18q0 11 7.5 18.5t18.5 7.5h65q73 0 115.5 34.5t42.5 88.5
q0 58 -39 87.5t-110 29.5q-67 0 -135 -34q-16 -9 -27 -9q-12 0 -18.5 7t-6.5 16q0 19 26 32q72 39 165 39t149 -44.5t56 -119.5q0 -99 -114 -148q69 -12 113.5 -59t44.5 -120z" />
    <glyph glyph-name="four.tnum" 
d="M65 228l159 426q7 20 27 20q13 0 20.5 -10t2.5 -24l-148 -408h310v191q0 12 8.5 20.5t20.5 8.5t20.5 -8.5t8.5 -20.5v-191h90q11 0 18.5 -7t7.5 -18t-7.5 -18t-18.5 -7h-90v-160q0 -13 -8 -21.5t-21 -8.5t-21 8.5t-8 21.5v160h-351q-26 0 -26 25q0 7 6 21z" />
    <glyph glyph-name="five.tnum" 
d="M575 206q0 -94 -67.5 -156.5t-183.5 -62.5q-148 0 -240 86q-11 11 -11 21q0 12 8 19t20 7q9 0 18 -7q87 -74 203 -74q90 0 141.5 46t51.5 119q0 76 -48.5 119t-129.5 43q-101 0 -179 -66q-10 -8 -23 -8q-15 0 -22 9t-5 21l51 319q5 25 30 25h308q11 0 19 -7.5t8 -18.5
t-7.5 -18.5t-19.5 -7.5h-286l-41 -250q67 53 169 53q107 0 171.5 -56.5t64.5 -154.5z" />
    <glyph glyph-name="six.tnum" 
d="M584 204q0 -92 -67 -154t-183 -62q-124 0 -190 62.5t-66 171.5q0 143 79.5 261.5t212.5 176.5q43 18 62 18q25 0 25 -20q0 -10 -6.5 -15.5t-23.5 -12.5q-127 -51 -194.5 -133.5t-102.5 -205.5q31 58 88.5 88.5t131.5 30.5q105 0 169.5 -58.5t64.5 -147.5zM526 203
q0 72 -48 115t-135 43q-82 0 -142.5 -46t-60.5 -115q0 -75 48.5 -119t147.5 -44q84 0 137 46.5t53 119.5z" />
    <glyph glyph-name="seven.tnum" 
d="M570 641q0 -9 -7 -18q-64 -82 -102 -138t-77 -132t-57 -157t-18 -174q0 -13 -8 -21.5t-22 -8.5t-22 8.5t-8 21.5q0 173 65 316t178 276h-405q-11 0 -19 7.5t-8 18.5t8 18.5t19 7.5h452q31 0 31 -25z" />
    <glyph glyph-name="eight.tnum" 
d="M112 513q0 75 60 120t153 45t153 -45t60 -120q0 -95 -113 -146q72 -19 116 -65.5t44 -116.5q0 -87 -70 -142t-190 -55t-190 55t-70 142q0 70 44 116.5t116 65.5q-113 51 -113 146zM325 338q-85 0 -143 -40.5t-58 -111.5q0 -69 54 -109t147 -40t147 40t54 109
q0 71 -58 111.5t-143 40.5zM325 386q67 0 111.5 35.5t44.5 88.5q0 56 -42.5 88t-113.5 32t-113.5 -32t-42.5 -88q0 -53 44.5 -88.5t111.5 -35.5z" />
    <glyph glyph-name="nine.tnum" 
d="M72 462q0 92 67 154t183 62q124 0 190 -62.5t66 -171.5q0 -143 -79.5 -261.5t-212.5 -176.5q-43 -18 -62 -18q-25 0 -25 20q0 10 6.5 15.5t23.5 12.5q127 51 194.5 133.5t102.5 205.5q-31 -58 -88.5 -88.5t-131.5 -30.5q-109 0 -171.5 58t-62.5 148zM130 463
q0 -72 48 -115t135 -43q82 0 142.5 46t60.5 115q0 75 -48.5 119t-147.5 44q-84 0 -137 -46.5t-53 -119.5z" />
    <glyph glyph-name="less.tnum" 
d="M535 527q0 -16 -16 -24l-332 -180l332 -180q16 -8 16 -24q0 -10 -7 -17.5t-19 -7.5q-9 0 -16 4l-362 202q-16 10 -16 23t16 23l362 202q7 4 16 4q12 0 19 -7.5t7 -17.5z" />
    <glyph glyph-name="equal.tnum" 
d="M487 433q11 0 19.5 -7.5t8.5 -18.5t-8.5 -18.5t-19.5 -7.5h-324q-11 0 -19.5 7.5t-8.5 18.5t8.5 18.5t19.5 7.5h324zM487 259q11 0 19.5 -7t8.5 -19q0 -11 -8.5 -18.5t-19.5 -7.5h-324q-11 0 -19.5 7.5t-8.5 18.5q0 12 8.5 19t19.5 7h324z" />
    <glyph glyph-name="greater.tnum" 
d="M115 527q0 10 7 17.5t19 7.5q9 0 16 -4l362 -202q16 -10 16 -23t-16 -23l-362 -202q-7 -4 -16 -4q-12 0 -19 7.5t-7 17.5q0 16 16 24l332 180l-332 180q-16 8 -16 24z" />
    <glyph glyph-name="cent.tnum" 
d="M132 333q0 90 56 153.5t143 73.5v92q0 10 7.5 18t20.5 8t20.5 -8t7.5 -18v-92q50 -5 89.5 -27.5t60.5 -54.5q6 -9 6 -18q0 -11 -8.5 -18t-20.5 -7q-11 0 -21 12q-53 63 -132 63q-73 0 -121 -51.5t-48 -125.5t48 -125.5t121 -51.5q79 0 132 63q10 12 21 12q12 0 20.5 -7
t8.5 -18q0 -9 -6 -18q-22 -32 -61.5 -55t-88.5 -28v-91q0 -10 -7.5 -18t-20.5 -8t-20.5 8t-7.5 18v91q-87 11 -143 74.5t-56 153.5z" />
    <glyph glyph-name="sterling.tnum" 
d="M553 632q0 -25 -25 -25q-6 0 -14 3q-41 14 -96 14q-76 0 -111 -39.5t-35 -119.5v-94h223q11 0 19.5 -7t8.5 -19t-8.5 -19t-19.5 -7h-223v-267h254q11 0 19 -7.5t8 -18.5q0 -12 -8 -19t-19 -7h-462q-12 0 -20.5 7t-8.5 19t8.5 19t20.5 7h148v267h-129q-12 0 -20.5 6.5
t-8.5 19.5t8.5 19.5t20.5 6.5h129v95q0 104 53.5 158t150.5 54q69 0 114 -19q23 -10 23 -27z" />
    <glyph glyph-name="notequal.tnum" 
d="M440 476l-24 -43h71q11 0 19.5 -7.5t8.5 -18.5t-8.5 -18.5t-19.5 -7.5h-100l-67 -122h167q11 0 19.5 -7t8.5 -19q0 -11 -8.5 -18.5t-19.5 -7.5h-196l-34 -62q-9 -15 -24 -15q-21 0 -21 19q0 7 4 14l24 44h-77q-11 0 -19.5 7.5t-8.5 18.5q0 12 8.5 19t19.5 7h105l67 122
h-172q-11 0 -19.5 7.5t-8.5 18.5t8.5 18.5t19.5 7.5h201l36 65q7 12 20 12q23 0 23 -23q0 -7 -3 -11z" />
    <glyph glyph-name="plusminus.tnum" 
d="M129 53h392q12 0 20.5 -7t8.5 -19t-8.5 -19.5t-20.5 -7.5h-392q-12 0 -20.5 7.5t-8.5 19.5t8.5 19t20.5 7zM129 360h167v159q0 12 8.5 20.5t20.5 8.5t20.5 -8.5t8.5 -20.5v-159h167q12 0 20.5 -7.5t8.5 -19.5t-8.5 -19.5t-20.5 -7.5h-167v-159q0 -12 -8.5 -20.5
t-20.5 -8.5t-20.5 8.5t-8.5 20.5v159h-167q-12 0 -20.5 7.5t-8.5 19.5t8.5 19.5t20.5 7.5z" />
    <glyph glyph-name="yen.tnum" 
d="M128 340q-11 0 -18.5 6.5t-7.5 16.5t7.5 16.5t18.5 6.5h110l-148 244q-6 9 -6 17q0 12 8 19.5t19 7.5q16 0 25 -15l189 -313l189 313q9 15 25 15q11 0 19 -7.5t8 -19.5q0 -8 -6 -17l-148 -244h110q11 0 18.5 -6.5t7.5 -16.5t-7.5 -16.5t-18.5 -6.5h-138l-29 -48v-66h167
q11 0 18.5 -6.5t7.5 -16.5t-7.5 -16.5t-18.5 -6.5h-167v-158q0 -13 -8.5 -21.5t-21.5 -8.5t-21.5 8.5t-8.5 21.5v158h-167q-11 0 -18.5 6.5t-7.5 16.5t7.5 16.5t18.5 6.5h167v66l-29 48h-138z" />
    <glyph glyph-name="florin.tnum" 
d="M540 649q0 -26 -31 -26h-24q-57 0 -80 -23.5t-34 -84.5l-23 -131h96q24 0 24 -22q0 -12 -8.5 -20t-21.5 -8h-99l-64 -364q-15 -87 -53 -126t-128 -39h-22q-24 0 -24 22q0 13 8.5 20.5t20.5 7.5h23q56 0 79 24t34 85l66 370h-64q-10 0 -17 6.5t-7 15.5q0 28 30 28h67
l24 132q16 88 54.5 122.5t124.5 34.5h22q27 0 27 -24z" />
    <glyph glyph-name="approxequal.tnum" 
d="M398 190q-31 0 -73 19q-56 25 -73 25q-36 0 -79 -38q-7 -6 -16 -6q-8 0 -15 6.5t-7 14.5q0 9 8 17q33 30 55.5 41.5t53.5 11.5t73 -19q55 -25 73 -25q36 0 79 38q7 6 16 6q8 0 15 -6.5t7 -14.5q0 -9 -8 -17q-33 -30 -55.5 -41.5t-53.5 -11.5zM398 344q-31 0 -73 19
q-56 25 -73 25q-36 0 -79 -38q-7 -6 -16 -6q-8 0 -15 6.5t-7 14.5q0 9 8 17q33 30 55.5 41.5t53.5 11.5t73 -19q55 -25 73 -25q36 0 79 38q7 6 16 6q8 0 15 -6.5t7 -14.5q0 -9 -8 -17q-33 -30 -55.5 -41.5t-53.5 -11.5z" />
    <glyph glyph-name="divide.tnum" 
d="M516 296h-382q-12 0 -20.5 7.5t-8.5 19.5t8.5 19.5t20.5 7.5h382q12 0 20.5 -7.5t8.5 -19.5t-8.5 -19.5t-20.5 -7.5zM283 147q0 17 12.5 29.5t29.5 12.5t29.5 -12.5t12.5 -29.5t-12.5 -29.5t-29.5 -12.5t-29.5 12.5t-12.5 29.5zM283 499q0 17 12.5 29.5t29.5 12.5
t29.5 -12.5t12.5 -29.5t-12.5 -29.5t-29.5 -12.5t-29.5 12.5t-12.5 29.5z" />
    <glyph glyph-name="Euro.tnum" 
d="M369 678q134 0 206 -137q4 -8 4 -15q0 -12 -7.5 -18.5t-18.5 -6.5q-17 0 -27 17q-61 109 -157 109q-80 0 -125 -51.5t-59 -139.5h248q11 0 18.5 -6.5t7.5 -16.5t-7.5 -16.5t-18.5 -6.5h-253q-2 -19 -2 -57q0 -39 2 -57h253q11 0 18.5 -6.5t7.5 -16.5t-7.5 -16.5
t-18.5 -6.5h-248q14 -88 59 -139.5t125 -51.5q96 0 157 109q10 17 27 17q11 0 18.5 -6.5t7.5 -18.5q0 -7 -4 -15q-72 -137 -206 -137q-106 0 -166.5 65.5t-77.5 176.5h-76q-11 0 -18.5 6.5t-7.5 16.5t7.5 16.5t18.5 6.5h71q-2 18 -2 57q0 38 2 57h-71q-11 0 -18.5 6.5
t-7.5 16.5t7.5 16.5t18.5 6.5h76q17 111 77.5 176.5t166.5 65.5z" />
    <glyph glyph-name="minusonum.tnum" 
d="M155 183q-11 0 -18.5 6.5t-7.5 18.5t7.5 18.5t18.5 6.5h339q11 0 18.5 -6.5t7.5 -18.5t-7.5 -18.5t-18.5 -6.5h-339z" />
    <glyph glyph-name="multiplyonum.tnum" 
d="M206 376l118 -118l118 118q8 8 21 8q12 0 20 -8t8 -20q0 -13 -8 -21l-118 -118l117 -117q10 -10 10 -21q0 -12 -9 -20.5t-20 -8.5t-21 8l-118 118l-118 -118q-8 -8 -20 -8q-13 0 -21 8t-8 21q0 12 8 20l118 118l-118 118q-8 10 -8 21q0 12 8.5 20t20.5 8t20 -8z" />
    <glyph glyph-name="numbersignonum.tnum" 
d="M616 397q0 -10 -7 -17.5t-18 -7.5h-87l-19 -173h85q22 0 22 -22q0 -10 -7 -17.5t-18 -7.5h-87l-15 -134q-3 -26 -27 -26q-27 0 -23 30l14 130h-239l-16 -135q-3 -25 -27 -25q-25 0 -23 26l15 134h-82q-10 0 -16.5 6.5t-6.5 15.5q0 25 25 25h86l19 173h-85q-9 0 -15.5 6.5
t-6.5 15.5q0 25 27 25h85l15 130q3 25 27 25q26 0 23 -29l-15 -126h239l15 130q3 25 28 25q26 0 23 -27l-15 -128h84q9 0 16 -6t7 -16zM454 372h-239l-20 -173h239z" />
    <glyph glyph-name="dollaronum.tnum" 
d="M538 152q0 -62 -51.5 -104t-131.5 -48v-79q0 -11 -7.5 -18.5t-18.5 -7.5t-18 7.5t-7 18.5v80q-102 7 -178 63q-15 11 -15 25q0 10 6.5 16t17.5 6q10 0 21 -7q82 -56 175 -56q68 0 108.5 28t40.5 72q0 45 -34.5 67.5t-111.5 44.5q-121 35 -162.5 72t-41.5 94q0 58 47 96
t137 43v80q0 11 7.5 18.5t18.5 7.5t18 -7.5t7 -18.5v-80q86 -6 147 -50q12 -9 12 -22q0 -9 -7 -16t-17 -7q-8 0 -18 6q-72 42 -144 42q-73 0 -111.5 -24t-38.5 -66q0 -39 31.5 -62t115.5 -49l69 -22.5t54.5 -23.5t44 -30t25 -37.5t10.5 -51.5z" />
    <glyph glyph-name="plusonum.tnum" 
d="M129 244h167v169q0 12 8.5 20.5t20.5 8.5t20.5 -8.5t8.5 -20.5v-169h167q12 0 20.5 -7.5t8.5 -19.5t-8.5 -19.5t-20.5 -7.5h-167v-169q0 -12 -8.5 -20.5t-20.5 -8.5t-20.5 8.5t-8.5 20.5v169h-167q-12 0 -20.5 7.5t-8.5 19.5t8.5 19.5t20.5 7.5z" />
    <glyph glyph-name="zeroonum.tnum" 
d="M325 494q113 0 182.5 -72.5t69.5 -180.5t-69.5 -180.5t-182.5 -72.5t-182.5 72.5t-69.5 180.5t69.5 180.5t182.5 72.5zM517 241q0 85 -53 143t-139 58t-139 -58t-53 -143t53 -143t139 -58t139 58t53 143z" />
    <glyph glyph-name="oneonum.tnum" 
d="M103 0q-11 0 -18.5 7.5t-7.5 17.5q0 11 7.5 18t18.5 7h204v371l-163 -43q-8 -2 -11 -2q-11 0 -19.5 7.5t-8.5 19.5q0 21 23 28l190 52q14 4 20 4q29 0 29 -31v-406h191q11 0 18.5 -7t7.5 -18q0 -10 -7.5 -17.5t-18.5 -7.5h-455z" />
    <glyph glyph-name="twoonum.tnum" 
d="M551 25q0 -10 -7 -17.5t-19 -7.5h-377q-16 0 -26 9t-10 22q0 19 29 37l187 115q78 50 112 85t34 83q0 42 -33 67t-100 25q-77 0 -161 -45q-8 -4 -16 -4q-11 0 -18 7t-7 17q0 16 17 26q86 50 186 50q93 0 142.5 -38t49.5 -103q0 -64 -42.5 -109.5t-125.5 -97.5l-159 -96
h318q11 0 18.5 -7t7.5 -18z" />
    <glyph glyph-name="threeonum.tnum" 
d="M201 177q0 11 7.5 18.5t18.5 7.5h23q89 0 149 37.5t60 98.5q0 104 -139 104q-65 0 -131 -30q-18 -7 -29.5 -0.5t-11.5 19.5q0 18 22 28q74 34 155 34q91 0 142.5 -40.5t51.5 -111.5q0 -57 -42 -100t-109 -59q85 -8 136.5 -57.5t51.5 -120.5q0 -86 -68 -143t-179 -57
q-114 0 -203 56q-13 9 -13 22q0 15 14 22t31 -2q77 -47 168 -47q86 0 138 40.5t52 106.5q0 75 -62.5 111.5t-171.5 36.5h-35q-11 0 -18.5 7.5t-7.5 18.5z" />
    <glyph glyph-name="fouronum.tnum" 
d="M577 26h-106v-191q0 -13 -8.5 -21.5t-20.5 -8.5q-13 0 -21 8.5t-8 21.5v191h-331q-11 0 -18 6.5t-7 16.5q0 11 8 21l352 405q12 12 27 12q27 0 27 -30v-383h106q26 0 26 -24q0 -10 -7.5 -17t-18.5 -7zM136 74h277v321z" />
    <glyph glyph-name="fiveonum.tnum" 
d="M564 14q0 -90 -64.5 -149.5t-185.5 -59.5q-110 0 -196 57q-17 11 -17 24q0 10 7.5 17.5t17.5 7.5t19 -6q83 -50 169 -50q94 0 142 44t48 113q0 71 -47 110.5t-131 39.5q-68 0 -127 -30q-16 -8 -25 -8q-14 0 -21.5 8t-5.5 21l41 304q3 25 29 25h281q11 0 19 -7.5t8 -18.5
t-8 -18.5t-19 -7.5h-257l-32 -243q51 27 129 27q102 0 164 -54t62 -146z" />
    <glyph glyph-name="sixonum.tnum" 
d="M426 635q-99 -50 -173 -140t-103 -202q25 57 79.5 87t123.5 30q104 0 159 -60t55 -145q0 -86 -65 -151.5t-170 -65.5q-115 0 -175 66t-60 170q0 139 86 262t218 187q12 5 19 5q10 0 16.5 -6t6.5 -14q0 -14 -17 -23zM511 204q0 71 -42.5 114t-121.5 43q-76 0 -131.5 -45
t-55.5 -118q0 -71 46 -116t128 -45q79 0 128 48t49 119z" />
    <glyph glyph-name="sevenonum.tnum" 
d="M569 457q0 -10 -6 -22q-107 -226 -313 -611q-10 -19 -28 -19q-11 0 -18.5 7.5t-7.5 18.5q0 6 5 16q174 317 299 583h-367q-11 0 -18.5 7.5t-7.5 17.5q0 12 7.5 19.5t18.5 7.5h408q28 0 28 -25z" />
    <glyph glyph-name="eightonum.tnum" 
d="M325 -12q-114 0 -181.5 55.5t-67.5 141.5q0 68 43 116.5t109 65.5q-106 46 -106 146q0 72 57 118.5t146 46.5t146 -46.5t57 -118.5q0 -100 -106 -146q66 -17 109 -65.5t43 -116.5q0 -86 -67.5 -141.5t-181.5 -55.5zM325 38q81 0 135 40.5t54 106.5q0 71 -53.5 112
t-135.5 41t-135.5 -41t-53.5 -112q0 -66 54 -106.5t135 -40.5zM325 386q63 0 104 34.5t41 87.5q0 55 -38.5 88.5t-106.5 33.5t-106.5 -33.5t-38.5 -88.5q0 -53 41 -87.5t104 -34.5z" />
    <glyph glyph-name="nineonum.tnum" 
d="M239 -152q99 50 173.5 139.5t102.5 201.5q-25 -57 -79.5 -87t-123.5 -30q-104 0 -159 60t-55 145q0 91 65.5 154t169.5 63q115 0 175 -66t60 -170q0 -139 -86 -261.5t-218 -186.5q-12 -5 -19 -5q-10 0 -16.5 6t-6.5 14q0 15 17 23zM154 278q0 -71 42.5 -114t121.5 -43
q76 0 131.5 45t55.5 118t-45.5 117t-128.5 44q-79 0 -128 -48t-49 -119z" />
    <glyph glyph-name="lessonum.tnum" 
d="M535 421q0 -16 -16 -24l-332 -180l332 -180q16 -8 16 -24q0 -10 -7 -17.5t-19 -7.5q-9 0 -16 4l-362 202q-16 10 -16 23t16 23l362 202q7 4 16 4q12 0 19 -7.5t7 -17.5z" />
    <glyph glyph-name="equalonum.tnum" 
d="M487 325q11 0 19.5 -7.5t8.5 -18.5t-8.5 -18.5t-19.5 -7.5h-324q-11 0 -19.5 7.5t-8.5 18.5t8.5 18.5t19.5 7.5h324zM487 151q11 0 19.5 -7.5t8.5 -18.5q0 -12 -8.5 -19t-19.5 -7h-324q-11 0 -19.5 7t-8.5 19q0 11 8.5 18.5t19.5 7.5h324z" />
    <glyph glyph-name="greateronum.tnum" 
d="M115 421q0 10 7 17.5t19 7.5q9 0 16 -4l362 -202q16 -10 16 -23t-16 -23l-362 -202q-7 -4 -16 -4q-12 0 -19 7.5t-7 17.5q0 16 16 24l332 180l-332 180q-16 8 -16 24z" />
    <glyph glyph-name="centonum.tnum" 
d="M119 261q0 93 55.5 155t143.5 72v102q0 10 7.5 18t20.5 8t20.5 -8t7.5 -18v-102q50 -5 89.5 -27.5t60.5 -54.5q6 -9 6 -18q0 -11 -8.5 -18t-20.5 -7q-11 0 -21 12q-53 63 -132 63q-74 0 -121.5 -49.5t-47.5 -127.5t47.5 -127.5t121.5 -49.5q79 0 132 63q10 12 21 12
q12 0 20.5 -7t8.5 -18q0 -9 -6 -18q-22 -32 -61.5 -55t-88.5 -28v-101q0 -10 -7.5 -18t-20.5 -8t-20.5 8t-7.5 18v101q-88 11 -143.5 73t-55.5 155z" />
    <glyph glyph-name="sterlingonum.tnum" 
d="M287 245v-196h244q11 0 19.5 -6.5t8.5 -17.5t-8.5 -18t-19.5 -7h-444q-12 0 -20 6.5t-8 18.5q0 11 8 17.5t20 6.5h140v196h-124q-12 0 -20 7t-8 18t8 18t20 7h124v89q0 101 47.5 147.5t152.5 46.5q72 0 131 -31q19 -10 19 -27q0 -10 -7 -17t-19 -7q-9 0 -17 4
q-56 24 -107 24q-76 0 -108.5 -29t-32.5 -108v-92h219q11 0 19.5 -7t8.5 -18t-8.5 -18t-19.5 -7h-218z" />
    <glyph glyph-name="notequalonum.tnum" 
d="M440 368l-24 -43h71q11 0 19.5 -7.5t8.5 -18.5t-8.5 -18.5t-19.5 -7.5h-100l-67 -122h167q11 0 19.5 -7.5t8.5 -18.5q0 -12 -8.5 -19t-19.5 -7h-196l-34 -62q-9 -15 -24 -15q-21 0 -21 19q0 7 4 14l24 44h-77q-11 0 -19.5 7t-8.5 19q0 11 8.5 18.5t19.5 7.5h105l67 122
h-172q-11 0 -19.5 7.5t-8.5 18.5t8.5 18.5t19.5 7.5h201l36 65q7 12 20 12q23 0 23 -23q0 -7 -3 -11z" />
    <glyph glyph-name="plusminusonum.tnum" 
d="M521 0h-392q-12 0 -20.5 7.5t-8.5 19.5t8.5 19t20.5 7h167v160h-167q-12 0 -20.5 7t-8.5 19t8.5 19.5t20.5 7.5h167v147q0 12 8.5 20.5t20.5 8.5t20.5 -8.5t8.5 -20.5v-147h167q12 0 20.5 -7.5t8.5 -19.5t-8.5 -19t-20.5 -7h-167v-160h167q12 0 20.5 -7t8.5 -19
t-8.5 -19.5t-20.5 -7.5z" />
    <glyph glyph-name="yenonum.tnum" 
d="M325 279l174 281q9 14 25 14q11 0 18.5 -7t7.5 -18q0 -7 -6 -18l-123 -196h103q9 0 15 -6t6 -14q0 -9 -6 -15t-15 -6h-130l-39 -62v-44h168q22 0 22 -21q0 -9 -6.5 -14.5t-15.5 -5.5h-168v-124q0 -13 -8.5 -22t-21.5 -9t-21.5 9t-8.5 22v124h-168q-9 0 -15.5 5.5
t-6.5 14.5q0 21 22 21h168v44l-39 62h-130q-9 0 -15 6t-6 15q0 8 6 14t15 6h103l-123 196q-6 11 -6 18q0 11 7.5 18t18.5 7q16 0 25 -14z" />
    <glyph glyph-name="florinonum.tnum" 
d="M299 241h-85q-10 0 -17.5 7t-7.5 17q0 26 30 26h89l24 133q14 82 51 116t114 34h44q28 0 28 -24q0 -26 -31 -26h-40q-51 0 -74 -21.5t-32 -76.5l-23 -135h117q11 0 18 -6.5t7 -17.5t-8.5 -18.5t-21.5 -7.5h-122l-49 -277q-15 -87 -51.5 -123t-128.5 -36h-25
q-10 0 -17.5 6.5t-7.5 16.5q0 27 29 27h27q59 0 80.5 22.5t32.5 83.5z" />
    <glyph glyph-name="approxequalonum.tnum" 
d="M398 80q-31 0 -73 19q-56 25 -73 25q-36 0 -79 -38q-7 -6 -16 -6q-8 0 -15 6.5t-7 14.5q0 9 8 17q33 30 55.5 41.5t53.5 11.5t73 -19q55 -25 73 -25q36 0 79 38q7 6 16 6q8 0 15 -6.5t7 -14.5q0 -9 -8 -17q-33 -30 -55.5 -41.5t-53.5 -11.5zM398 234q-31 0 -73 19
q-56 25 -73 25q-36 0 -79 -38q-7 -6 -16 -6q-8 0 -15 6.5t-7 14.5q0 9 8 17q33 30 55.5 41.5t53.5 11.5t73 -19q55 -25 73 -25q36 0 79 38q7 6 16 6q8 0 15 -6.5t7 -14.5q0 -9 -8 -17q-33 -30 -55.5 -41.5t-53.5 -11.5z" />
    <glyph glyph-name="divideonum.tnum" 
d="M504 190h-358q-12 0 -20.5 7.5t-8.5 19.5t8.5 19.5t20.5 7.5h358q12 0 20.5 -7.5t8.5 -19.5t-8.5 -19.5t-20.5 -7.5zM283 66q0 17 12.5 29.5t29.5 12.5t29.5 -12.5t12.5 -29.5t-12.5 -29.5t-29.5 -12.5t-29.5 12.5t-12.5 29.5zM283 368q0 17 12.5 29.5t29.5 12.5
t29.5 -12.5t12.5 -29.5t-12.5 -29.5t-29.5 -12.5t-29.5 12.5t-12.5 29.5z" />
    <glyph glyph-name="Euroonum.tnum" 
d="M177 283q0 -33 5 -56h300q9 0 15 -5.5t6 -14.5t-6 -14.5t-15 -5.5h-290q23 -67 76 -107t129 -40q91 0 159 60q11 10 22 10t18 -7.5t7 -17.5q0 -11 -9 -20q-80 -77 -199 -77q-98 0 -168.5 54t-96.5 145h-84q-22 0 -22 20t22 20h75q-4 24 -4 56t4 56h-75q-22 0 -22 20
t22 20h84q26 91 96.5 145t168.5 54q119 0 199 -77q9 -9 9 -20q0 -10 -7 -17.5t-18 -7.5t-22 10q-68 60 -159 60q-76 0 -128.5 -40t-76.5 -107h290q9 0 15 -5.5t6 -14.5t-6 -14.5t-15 -5.5h-300q-5 -23 -5 -56z" />
    <glyph glyph-name="parenleft.smcp" horiz-adv-x="315" 
d="M220 678q9 12 22 12q12 0 20 -8t8 -18q0 -8 -5 -16q-60 -104 -87.5 -197t-27.5 -201t27.5 -201t87.5 -197q5 -8 5 -16q0 -10 -8 -18t-20 -8q-13 0 -22 12q-130 211 -130 428t130 428z" />
    <glyph glyph-name="parenright.smcp" horiz-adv-x="315" 
d="M95 678q130 -211 130 -428t-130 -428q-9 -12 -22 -12q-12 0 -20 8t-8 18q0 8 5 16q60 104 87.5 197t27.5 201t-27.5 201t-87.5 197q-5 8 -5 16q0 10 8 18t20 8q13 0 22 -12z" />
    <glyph glyph-name="bracketleft.smcp" horiz-adv-x="342" 
d="M287 -143q0 -11 -7.5 -18.5t-18.5 -7.5h-128q-13 0 -20.5 8.5t-7.5 20.5v776q0 14 8 22t20 8h128q11 0 18.5 -7.5t7.5 -18.5t-7.5 -18.5t-18.5 -7.5h-96v-731h96q11 0 18.5 -7.5t7.5 -18.5z" />
    <glyph glyph-name="bracketright.smcp" horiz-adv-x="342" 
d="M55 -143q0 11 7.5 18.5t18.5 7.5h96v731h-96q-11 0 -18.5 7.5t-7.5 18.5t7.5 18.5t18.5 7.5h128q12 0 20 -8t8 -22v-776q0 -12 -7.5 -20.5t-20.5 -8.5h-128q-11 0 -18.5 7.5t-7.5 18.5z" />
    <glyph glyph-name="a.smcp" horiz-adv-x="618" 
d="M309 508q17 0 26 -17l224 -459q4 -8 4 -13q0 -12 -8 -19.5t-21 -7.5q-16 0 -27 20l-64 131h-268l-64 -131q-11 -20 -27 -20q-13 0 -21 7.5t-8 19.5q0 5 4 13l224 459q9 17 26 17zM420 191l-111 236l-111 -236h222z" />
    <glyph glyph-name="b.smcp" horiz-adv-x="589" 
d="M327 500q76 0 120.5 -32.5t44.5 -90.5q0 -80 -88 -111q55 -9 89 -40t34 -86q0 -59 -48.5 -99.5t-141.5 -40.5h-207q-14 0 -22 8.5t-8 21.5v440q0 13 8.5 21.5t21.5 8.5h197zM337 236h-177v-185h179q65 0 97 26t32 67q0 92 -131 92zM160 449v-162h169q47 0 75 23.5
t28 59.5q0 79 -108 79h-164z" />
    <glyph glyph-name="c.smcp" horiz-adv-x="597" 
d="M330 512q124 0 199 -80q10 -10 10 -22q0 -11 -8 -18.5t-19 -7.5q-14 0 -27 13q-66 63 -150 63q-103 0 -159 -62t-56 -148t56 -148t159 -62q84 0 150 63q13 13 27 13q11 0 19 -7.5t8 -18.5q0 -12 -10 -22q-75 -80 -199 -80q-127 0 -198.5 76.5t-71.5 185.5t71.5 185.5
t198.5 76.5z" />
    <glyph glyph-name="d.smcp" horiz-adv-x="620" 
d="M100 30v440q0 13 8.5 21.5t21.5 8.5h159q126 0 200 -70t74 -180t-74 -180t-200 -70h-159q-13 0 -21.5 9t-8.5 21zM286 448h-126v-396h126q104 0 160.5 55t56.5 143t-56.5 143t-160.5 55z" />
    <glyph glyph-name="e.smcp" horiz-adv-x="535" 
d="M160 236v-184h299q11 0 18.5 -8t7.5 -18t-7.5 -18t-18.5 -8h-329q-13 0 -21.5 9t-8.5 21v440q0 13 8.5 21.5t21.5 8.5h318q10 0 18 -8t8 -18t-8 -18t-18 -8h-288v-160h169q11 0 18.5 -8t7.5 -18t-7.5 -18t-18.5 -8h-169z" />
    <glyph glyph-name="f.smcp" horiz-adv-x="506" 
d="M160 236v-214q0 -13 -8.5 -21.5t-21.5 -8.5t-21.5 8.5t-8.5 21.5v448q0 13 8.5 21.5t21.5 8.5h320q10 0 18 -8t8 -18t-8 -18t-18 -8h-290v-160h171q11 0 18.5 -8t7.5 -18t-7.5 -18t-18.5 -8h-171z" />
    <glyph glyph-name="g.smcp" horiz-adv-x="626" 
d="M331 221q0 11 7.5 18t17.5 7h178q10 0 17.5 -7t7.5 -18v-127q0 -9 -9 -20q-35 -38 -94 -62t-125 -24q-127 0 -199 76t-72 186q0 113 74 187.5t197 74.5q120 0 191 -71q10 -10 10 -19q0 -11 -8 -18.5t-19 -7.5q-12 0 -20 7q-67 57 -154 57q-98 0 -154.5 -60.5
t-56.5 -149.5q0 -87 55 -150t157 -63q95 0 170 61v98h-146q-11 0 -18 7t-7 18z" />
    <glyph glyph-name="h.smcp" horiz-adv-x="655" 
d="M160 229v-207q0 -13 -8.5 -21.5t-21.5 -8.5t-21.5 8.5t-8.5 21.5v456q0 13 8.5 21.5t21.5 8.5t21.5 -8.5t8.5 -21.5v-196h335v196q0 13 8.5 21.5t21.5 8.5t21.5 -8.5t8.5 -21.5v-456q0 -13 -8.5 -21.5t-21.5 -8.5t-21.5 8.5t-8.5 21.5v207h-335z" />
    <glyph glyph-name="i.smcp" horiz-adv-x="270" 
d="M165 478v-456q0 -13 -8.5 -21.5t-21.5 -8.5t-21.5 8.5t-8.5 21.5v456q0 13 8.5 21.5t21.5 8.5t21.5 -8.5t8.5 -21.5z" />
    <glyph glyph-name="j.smcp" horiz-adv-x="529" 
d="M236 39q69 0 103.5 38t34.5 108v293q0 13 8.5 21.5t21.5 8.5t21.5 -8.5t8.5 -21.5v-292q0 -89 -50 -143.5t-148 -54.5q-82 0 -132.5 39.5t-62.5 105.5q-2 15 5.5 24t22.5 9q24 0 29 -27q21 -100 138 -100z" />
    <glyph glyph-name="k.smcp" horiz-adv-x="593" 
d="M160 478v-249l308 269q12 10 22 10q12 0 20 -8t8 -19q0 -13 -11 -22l-175 -153l194 -270q5 -8 5 -17q0 -10 -8 -18.5t-20 -8.5q-16 0 -26 13l-188 264l-129 -113v-134q0 -13 -8.5 -21.5t-21.5 -8.5t-21.5 8.5t-8.5 21.5v456q0 13 8.5 21.5t21.5 8.5t21.5 -8.5t8.5 -21.5z
" />
    <glyph glyph-name="l.smcp" horiz-adv-x="512" 
d="M160 52h286q11 0 18.5 -7.5t7.5 -18.5t-7.5 -18.5t-18.5 -7.5h-316q-13 0 -21.5 9t-8.5 21v448q0 13 8.5 21.5t21.5 8.5t21.5 -8.5t8.5 -21.5v-426z" />
    <glyph glyph-name="m.smcp" horiz-adv-x="740" 
d="M640 479v-458q0 -12 -8.5 -20.5t-20.5 -8.5t-20.5 8.5t-8.5 20.5v358l-183 -367q-11 -20 -29 -20t-29 20l-183 367v-358q0 -12 -8.5 -20.5t-20.5 -8.5t-20.5 8.5t-8.5 20.5v458q0 13 8.5 21t20.5 8q21 0 32 -22l209 -419l209 419q11 22 32 22q12 0 20.5 -8t8.5 -21z" />
    <glyph glyph-name="n.smcp" horiz-adv-x="649" 
d="M155 494l336 -401v386q0 12 8.5 20.5t20.5 8.5t20.5 -8.5t8.5 -20.5v-457q0 -13 -7.5 -21t-21.5 -8t-27 15l-335 397v-384q0 -12 -9 -20.5t-20 -8.5q-12 0 -20.5 8.5t-8.5 20.5v458q0 13 8 21t21 8q14 0 26 -14z" />
    <glyph glyph-name="o.smcp" horiz-adv-x="654" 
d="M591 250q0 -110 -71.5 -186t-192.5 -76t-192.5 76t-71.5 186t71.5 186t192.5 76t192.5 -76t71.5 -186zM327 39q95 0 149.5 61.5t54.5 149.5t-54.5 149.5t-149.5 61.5t-149.5 -61.5t-54.5 -149.5t54.5 -149.5t149.5 -61.5z" />
    <glyph glyph-name="p.smcp" horiz-adv-x="561" 
d="M160 213v-191q0 -13 -8.5 -21.5t-21.5 -8.5t-21.5 8.5t-8.5 21.5v448q0 13 8.5 21.5t21.5 8.5h221q82 0 127 -40t45 -104q0 -65 -44.5 -104t-127.5 -39h-191zM463 356q0 41 -27.5 67t-75.5 26h-200v-185h200q48 0 75.5 25.5t27.5 66.5z" />
    <glyph glyph-name="q.smcp" horiz-adv-x="654" 
d="M540 -38q6 -9 6 -16q0 -10 -7.5 -17.5t-17.5 -7.5q-13 0 -22 13l-52 79q-55 -25 -120 -25q-121 0 -192.5 76t-71.5 186t71.5 186t192.5 76t192.5 -76t71.5 -186q0 -137 -101 -212zM327 39q51 0 90 18l-45 69q-6 9 -6 16q0 11 8 17.5t18 6.5q14 0 21 -12l46 -70
q72 61 72 166q0 88 -54.5 149.5t-149.5 61.5t-149.5 -61.5t-54.5 -149.5t54.5 -149.5t149.5 -61.5z" />
    <glyph glyph-name="r.smcp" horiz-adv-x="625" 
d="M160 217v-195q0 -13 -8.5 -21.5t-21.5 -8.5t-21.5 8.5t-8.5 21.5v448q0 13 8.5 21.5t21.5 8.5h246q83 0 127.5 -39t44.5 -103q0 -52 -31.5 -88.5t-90.5 -48.5l102 -187q4 -8 4 -15q0 -11 -8 -19t-20 -8q-18 0 -26 16l-114 209h-204zM488 358q0 41 -27.5 66t-75.5 25h-225
v-181h225q48 0 75.5 24.5t27.5 65.5z" />
    <glyph glyph-name="s.smcp" horiz-adv-x="564" 
d="M501 131q0 -66 -56.5 -104.5t-150.5 -38.5q-121 0 -208 64q-16 12 -16 26q0 11 8 18.5t20 7.5t20 -7q80 -58 175 -58q68 0 108 24t40 64t-34 60t-112 40q-118 31 -164.5 65t-46.5 88q0 64 53 98t153 34q101 0 178 -49q16 -10 16 -25q0 -10 -8 -17.5t-19 -7.5q-9 0 -17 5
q-67 43 -149 43q-147 0 -147 -79q0 -37 33 -56.5t117 -42.5q112 -31 159.5 -60.5t47.5 -91.5z" />
    <glyph glyph-name="t.smcp" horiz-adv-x="480" 
d="M270 448v-426q0 -13 -8.5 -21.5t-21.5 -8.5t-21.5 8.5t-8.5 21.5v426h-172q-10 0 -18 8t-8 18t8 18t18 8h404q10 0 18 -8t8 -18t-8 -18t-18 -8h-172z" />
    <glyph glyph-name="u.smcp" horiz-adv-x="658" 
d="M329 -12q-107 0 -170 56.5t-63 152.5v281q0 13 8.5 21.5t21.5 8.5t21.5 -8.5t8.5 -21.5v-286q0 -68 45.5 -110t127.5 -42t127.5 42t45.5 110v286q0 13 8.5 21.5t21.5 8.5t21.5 -8.5t8.5 -21.5v-281q0 -96 -63 -152.5t-170 -56.5z" />
    <glyph glyph-name="v.smcp" horiz-adv-x="522" 
d="M261 -8q-18 0 -27 19l-215 456q-4 10 -4 14q0 13 9 20t21 7q15 0 24 -17l192 -411l192 411q9 17 24 17q12 0 21 -7t9 -20q0 -4 -4 -14l-215 -456q-9 -19 -27 -19z" />
    <glyph glyph-name="w.smcp" horiz-adv-x="762" 
d="M409 485l147 -389l136 394q6 18 24 18q11 0 19.5 -6.5t8.5 -18.5q0 -4 -2 -10l-158 -463q-7 -18 -27 -18q-18 0 -26 19l-150 400l-150 -400q-8 -19 -26 -19q-20 0 -27 18l-158 462q-2 6 -2 10q0 12 8.5 19t19.5 7q18 0 24 -18l136 -394l147 389q9 23 28 23t28 -23z" />
    <glyph glyph-name="x.smcp" horiz-adv-x="574" 
d="M287 291l175 205q10 12 23 12q12 0 20 -6.5t8 -18.5q0 -9 -8 -19l-182 -212l186 -216q7 -8 7 -19t-8 -18t-20 -7q-15 0 -26 14l-175 205l-175 -205q-11 -14 -26 -14q-12 0 -20 7t-8 18t7 19l186 216l-182 212q-8 10 -8 19q0 12 8 18.5t20 6.5q13 0 23 -12z" />
    <glyph glyph-name="y.smcp" horiz-adv-x="478" 
d="M460 463l-191 -249v-192q0 -13 -8.5 -21.5t-21.5 -8.5t-21.5 8.5t-8.5 21.5v192l-191 249q-8 10 -8 18q0 12 8 19.5t21 7.5q14 0 24 -13l176 -229l176 229q10 13 24 13q13 0 21 -7.5t8 -19.5q0 -8 -8 -18z" />
    <glyph glyph-name="z.smcp" horiz-adv-x="559" 
d="M89 48l324 401h-297q-10 0 -17.5 7.5t-7.5 17.5q0 11 7 18.5t18 7.5h350q12 0 19.5 -7t7.5 -19q0 -10 -10 -22l-322 -401h312q11 0 18.5 -7t7.5 -19q0 -10 -7.5 -17.5t-18.5 -7.5h-365q-12 0 -20 7.5t-8 18.5q0 9 9 22z" />
    <glyph glyph-name="braceleft.smcp" horiz-adv-x="347" 
d="M211 137v-222q0 -22 8.5 -30.5t28.5 -8.5h34q10 0 17.5 -7.5t7.5 -18.5t-7.5 -18.5t-17.5 -7.5h-43q-88 0 -88 92v232q0 37 -16.5 54t-54.5 17h-8q-11 0 -19 7.5t-8 18.5t8 18.5t19 7.5h8q38 0 54.5 17t16.5 54v232q0 92 88 92h43q10 0 17.5 -7.5t7.5 -18.5t-7.5 -18.5
t-17.5 -7.5h-34q-20 0 -28.5 -8.5t-8.5 -30.5v-222q0 -50 -19 -76.5t-66 -31.5q47 -5 66 -31.5t19 -76.5z" />
    <glyph glyph-name="braceright.smcp" horiz-adv-x="347" 
d="M136 -85v222q0 50 19 76.5t66 31.5q-47 5 -66 31.5t-19 76.5v222q0 22 -8.5 30.5t-28.5 8.5h-34q-10 0 -17.5 7.5t-7.5 18.5t7.5 18.5t17.5 7.5h43q88 0 88 -92v-232q0 -37 16.5 -54t54.5 -17h8q11 0 19 -7.5t8 -18.5t-8 -18.5t-19 -7.5h-8q-38 0 -54.5 -17t-16.5 -54
v-232q0 -92 -88 -92h-43q-10 0 -17.5 7.5t-7.5 18.5t7.5 18.5t17.5 7.5h34q20 0 28.5 8.5t8.5 30.5z" />
    <glyph glyph-name="germandbls.smcp" horiz-adv-x="1128" 
d="M501 131q0 -66 -56.5 -104.5t-150.5 -38.5q-121 0 -208 64q-16 12 -16 26q0 11 8 18.5t20 7.5t20 -7q80 -58 175 -58q68 0 108 24t40 64t-34 60t-112 40q-118 31 -164.5 65t-46.5 88q0 64 53 98t153 34q101 0 178 -49q16 -10 16 -25q0 -10 -8 -17.5t-19 -7.5q-9 0 -17 5
q-67 43 -149 43q-147 0 -147 -79q0 -37 33 -56.5t117 -42.5q112 -31 159.5 -60.5t47.5 -91.5zM1065 131q0 -66 -56.5 -104.5t-150.5 -38.5q-121 0 -208 64q-16 12 -16 26q0 11 8 18.5t20 7.5t20 -7q80 -58 175 -58q68 0 108 24t40 64t-34 60t-112 40q-118 31 -164.5 65
t-46.5 88q0 64 53 98t153 34q101 0 178 -49q16 -10 16 -25q0 -10 -8 -17.5t-19 -7.5q-9 0 -17 5q-67 43 -149 43q-147 0 -147 -79q0 -37 33 -56.5t117 -42.5q112 -31 159.5 -60.5t47.5 -91.5z" />
    <glyph glyph-name="ae.smcp" horiz-adv-x="832" 
d="M309 500h436q11 0 18.5 -8t7.5 -18t-7.5 -18t-18.5 -8h-393l79 -160h195q10 0 18 -8t8 -18t-8 -18t-18 -8h-169l92 -184h207q10 0 18 -8t8 -18t-8 -18t-18 -8h-226q-17 0 -27 20l-60 123h-268l-64 -131q-11 -20 -27 -20q-13 0 -21 7.5t-8 19.5q0 5 4 13l224 451
q9 17 26 17zM420 191l-111 231l-111 -231h222z" />
    <glyph glyph-name="oslash.smcp" horiz-adv-x="654" 
d="M586 533l-75 -90q80 -74 80 -193q0 -110 -71.5 -186t-192.5 -76q-91 0 -158 46l-74 -89q-6 -7 -14 -7q-7 0 -12.5 4.5t-5.5 11.5q0 5 5 12l75 90q-80 74 -80 194q0 110 71.5 186t192.5 76q90 0 158 -47l75 90q6 7 14 7q7 0 12 -4.5t5 -11.5t-5 -13zM123 250
q0 -92 56 -151l271 324q-51 38 -123 38q-95 0 -149.5 -61.5t-54.5 -149.5zM327 39q95 0 149.5 61.5t54.5 149.5q0 91 -56 150l-271 -324q49 -37 123 -37z" />
    </font>
</defs>
</svg>
